BJCree-Bold.ufo
<glyph name="exclam" format="2">
  <advance width="606"/>
  <unicode hex="0021"/>
  <note>
exclam
</note>
  <outline>
    <contour>
      <point x="274" y="437" type="curve"/>
      <point x="343" y="437" type="line"/>
      <point x="352" y="660"/>
      <point x="377" y="850"/>
      <point x="452" y="1122" type="curve" smooth="yes"/>
      <point x="469" y="1184"/>
      <point x="480" y="1251"/>
      <point x="480" y="1305" type="curve" smooth="yes"/>
      <point x="480" y="1434"/>
      <point x="410" y="1509"/>
      <point x="307" y="1509" type="curve" smooth="yes"/>
      <point x="204" y="1509"/>
      <point x="137" y="1434"/>
      <point x="137" y="1305" type="curve" smooth="yes"/>
      <point x="137" y="1251"/>
      <point x="148" y="1184"/>
      <point x="165" y="1122" type="curve" smooth="yes"/>
      <point x="240" y="850"/>
      <point x="262" y="660"/>
    </contour>
    <contour>
      <point x="307" y="-25" type="curve" smooth="yes"/>
      <point x="387" y="-25"/>
      <point x="452" y="39"/>
      <point x="452" y="119" type="curve" smooth="yes"/>
      <point x="452" y="199"/>
      <point x="387" y="264"/>
      <point x="307" y="264" type="curve" smooth="yes"/>
      <point x="227" y="264"/>
      <point x="163" y="199"/>
      <point x="163" y="119" type="curve" smooth="yes"/>
      <point x="163" y="39"/>
      <point x="227" y="-25"/>
    </contour>
  </outline>
</glyph>
<glyph name="numbersign" format="2">
  <advance width="1166"/>
  <unicode hex="0023"/>
  <outline>
    <contour>
      <point x="148" y="0" type="line"/>
      <point x="330" y="0" type="line"/>
      <point x="536" y="1422" type="line"/>
      <point x="353" y="1422" type="line"/>
    </contour>
    <contour>
      <point x="630" y="0" type="line"/>
      <point x="812" y="0" type="line"/>
      <point x="1018" y="1422" type="line"/>
      <point x="835" y="1422" type="line"/>
    </contour>
    <contour>
      <point x="43" y="855" type="line"/>
      <point x="1123" y="855" type="line"/>
      <point x="1123" y="1024" type="line"/>
      <point x="43" y="1024" type="line"/>
    </contour>
    <contour>
      <point x="43" y="367" type="line"/>
      <point x="1123" y="367" type="line"/>
      <point x="1123" y="536" type="line"/>
      <point x="43" y="536" type="line"/>
    </contour>
  </outline>
</glyph>
<glyph name="dollar" format="2">
  <advance width="1176"/>
  <unicode hex="0024"/>
  <outline>
    <contour>
      <point x="585" y="-29" type="curve" smooth="yes"/>
      <point x="879" y="-29"/>
      <point x="1079" y="140"/>
      <point x="1079" y="388" type="curve" smooth="yes"/>
      <point x="1079" y="567"/>
      <point x="984" y="687"/>
      <point x="707" y="818" type="curve" smooth="yes"/>
      <point x="644" y="848"/>
      <point x="574" y="876"/>
      <point x="508" y="908" type="curve" smooth="yes"/>
      <point x="394" y="964"/>
      <point x="335" y="1028"/>
      <point x="335" y="1124" type="curve" smooth="yes"/>
      <point x="335" y="1247"/>
      <point x="425" y="1347"/>
      <point x="593" y="1347" type="curve" smooth="yes"/>
      <point x="736" y="1347"/>
      <point x="817" y="1298"/>
      <point x="817" y="1250" type="curve" smooth="yes"/>
      <point x="817" y="1238"/>
      <point x="815" y="1227"/>
      <point x="805" y="1212" type="curve" smooth="yes"/>
      <point x="782" y="1178"/>
      <point x="758" y="1129"/>
      <point x="758" y="1092" type="curve" smooth="yes"/>
      <point x="758" y="1010"/>
      <point x="814" y="961"/>
      <point x="895" y="961" type="curve" smooth="yes"/>
      <point x="965" y="961"/>
      <point x="1044" y="1028"/>
      <point x="1044" y="1131" type="curve" smooth="yes"/>
      <point x="1044" y="1273"/>
      <point x="895" y="1439"/>
      <point x="592" y="1439" type="curve" smooth="yes"/>
      <point x="366" y="1439"/>
      <point x="170" y="1284"/>
      <point x="170" y="1032" type="curve" smooth="yes"/>
      <point x="170" y="897"/>
      <point x="208" y="785"/>
      <point x="356" y="692" type="curve" smooth="yes"/>
      <point x="396" y="667"/>
      <point x="442" y="647"/>
      <point x="503" y="615" type="curve" smooth="yes"/>
      <point x="572" y="579"/>
      <point x="604" y="571"/>
      <point x="674" y="536" type="curve" smooth="yes"/>
      <point x="804" y="471"/>
      <point x="893" y="398"/>
      <point x="893" y="285" type="curve" smooth="yes"/>
      <point x="893" y="127"/>
      <point x="741" y="67"/>
      <point x="575" y="67" type="curve" smooth="yes"/>
      <point x="449" y="67"/>
      <point x="347" y="86"/>
      <point x="347" y="152" type="curve" smooth="yes"/>
      <point x="347" y="160"/>
      <point x="351" y="165"/>
      <point x="362" y="175" type="curve"/>
      <point x="405" y="208"/>
      <point x="451" y="268"/>
      <point x="451" y="323" type="curve" smooth="yes"/>
      <point x="451" y="414"/>
      <point x="377" y="466"/>
      <point x="302" y="466" type="curve" smooth="yes"/>
      <point x="227" y="466"/>
      <point x="151" y="413"/>
      <point x="151" y="292" type="curve" smooth="yes"/>
      <point x="151" y="41"/>
      <point x="418" y="-29"/>
    </contour>
    <contour>
      <point x="553" y="-281" type="line"/>
      <point x="653" y="-281" type="line"/>
      <point x="653" y="1640" type="line"/>
      <point x="553" y="1640" type="line"/>
    </contour>
  </outline>
</glyph>
<glyph name="percent" format="2">
  <advance width="1692"/>
  <unicode hex="0025"/>
  <outline>
    <contour>
      <point x="378" y="0" type="line"/>
      <point x="481" y="0" type="line"/>
      <point x="1322" y="1467" type="line"/>
      <point x="1229" y="1467" type="line"/>
    </contour>
    <contour>
      <point x="423" y="1428" type="curve" smooth="yes"/>
      <point x="266" y="1428"/>
      <point x="119" y="1309"/>
      <point x="119" y="1050" type="curve" smooth="yes"/>
      <point x="119" y="806"/>
      <point x="262" y="689"/>
      <point x="414" y="689" type="curve" smooth="yes"/>
      <point x="570" y="689"/>
      <point x="710" y="801"/>
      <point x="710" y="1048" type="curve" smooth="yes"/>
      <point x="710" y="1237"/>
      <point x="612" y="1428"/>
    </contour>
    <contour>
      <point x="415" y="1384" type="curve" smooth="yes"/>
      <point x="497" y="1384"/>
      <point x="510" y="1251"/>
      <point x="510" y="1068" type="curve" smooth="yes"/>
      <point x="510" y="890"/>
      <point x="496" y="734"/>
      <point x="416" y="734" type="curve" smooth="yes"/>
      <point x="329" y="734"/>
      <point x="319" y="880"/>
      <point x="319" y="1073" type="curve" smooth="yes"/>
      <point x="319" y="1250"/>
      <point x="331" y="1384"/>
    </contour>
    <contour>
      <point x="1275" y="734" type="curve" smooth="yes"/>
      <point x="1119" y="734"/>
      <point x="972" y="615"/>
      <point x="972" y="356" type="curve" smooth="yes"/>
      <point x="972" y="112"/>
      <point x="1115" y="-5"/>
      <point x="1267" y="-5" type="curve" smooth="yes"/>
      <point x="1423" y="-5"/>
      <point x="1563" y="107"/>
      <point x="1563" y="354" type="curve" smooth="yes"/>
      <point x="1563" y="543"/>
      <point x="1465" y="734"/>
    </contour>
    <contour>
      <point x="1268" y="689" type="curve" smooth="yes"/>
      <point x="1350" y="689"/>
      <point x="1363" y="556"/>
      <point x="1363" y="374" type="curve" smooth="yes"/>
      <point x="1363" y="195"/>
      <point x="1349" y="40"/>
      <point x="1269" y="40" type="curve" smooth="yes"/>
      <point x="1182" y="40"/>
      <point x="1172" y="185"/>
      <point x="1172" y="379" type="curve" smooth="yes"/>
      <point x="1172" y="555"/>
      <point x="1184" y="689"/>
    </contour>
  </outline>
</glyph>
<glyph name="ampersand" format="2">
  <advance width="1745"/>
  <unicode hex="0026"/>
  <outline>
    <contour>
      <point x="551" y="-33" type="curve" smooth="yes"/>
      <point x="966" y="-33"/>
      <point x="1228" y="274"/>
      <point x="1366" y="532" type="curve" smooth="yes"/>
      <point x="1459" y="706"/>
      <point x="1499" y="750"/>
      <point x="1642" y="750" type="curve"/>
      <point x="1642" y="843" type="line"/>
      <point x="1107" y="843" type="line"/>
      <point x="1107" y="750" type="line"/>
      <point x="1236" y="750"/>
      <point x="1289" y="719"/>
      <point x="1289" y="650" type="curve" smooth="yes"/>
      <point x="1289" y="500"/>
      <point x="991" y="118"/>
      <point x="721" y="118" type="curve" smooth="yes"/>
      <point x="534" y="118"/>
      <point x="396" y="305"/>
      <point x="396" y="474" type="curve" smooth="yes"/>
      <point x="396" y="628"/>
      <point x="481" y="700"/>
      <point x="579" y="747" type="curve"/>
      <point x="759" y="853" type="line"/>
      <point x="1001" y="947"/>
      <point x="1102" y="1101"/>
      <point x="1102" y="1237" type="curve" smooth="yes"/>
      <point x="1102" y="1389"/>
      <point x="977" y="1518"/>
      <point x="781" y="1518" type="curve" smooth="yes"/>
      <point x="589" y="1518"/>
      <point x="393" y="1384"/>
      <point x="393" y="1159" type="curve" smooth="yes"/>
      <point x="393" y="1050"/>
      <point x="439" y="939"/>
      <point x="516" y="792" type="curve" smooth="yes"/>
      <point x="619" y="595"/>
      <point x="776" y="358"/>
      <point x="947" y="153" type="curve" smooth="yes"/>
      <point x="1039" y="43"/>
      <point x="1168" y="-31"/>
      <point x="1307" y="-31" type="curve" smooth="yes"/>
      <point x="1526" y="-31"/>
      <point x="1649" y="138"/>
      <point x="1669" y="342" type="curve"/>
      <point x="1581" y="362" type="line"/>
      <point x="1561" y="240"/>
      <point x="1494" y="163"/>
      <point x="1414" y="163" type="curve" smooth="yes"/>
      <point x="1333" y="163"/>
      <point x="1253" y="225"/>
      <point x="1136" y="367" type="curve" smooth="yes"/>
      <point x="1099" y="412"/>
      <point x="865" y="706"/>
      <point x="763" y="902" type="curve" smooth="yes"/>
      <point x="698" y="1028"/>
      <point x="631" y="1156"/>
      <point x="631" y="1264" type="curve" smooth="yes"/>
      <point x="631" y="1351"/>
      <point x="678" y="1431"/>
      <point x="778" y="1431" type="curve" smooth="yes"/>
      <point x="846" y="1431"/>
      <point x="893" y="1349"/>
      <point x="893" y="1248" type="curve" smooth="yes"/>
      <point x="893" y="1139"/>
      <point x="837" y="1006"/>
      <point x="691" y="933" type="curve" smooth="yes"/>
      <point x="540" y="857" type="line"/>
      <point x="301" y="751"/>
      <point x="111" y="623"/>
      <point x="111" y="377" type="curve" smooth="yes"/>
      <point x="111" y="208"/>
      <point x="230" y="-33"/>
    </contour>
  </outline>
</glyph>
<glyph name="quotesingle" format="2">
  <advance width="490"/>
  <unicode hex="0027"/>
  <note>
quotesingle
</note>
  <outline>
    <contour>
      <point x="197" y="845" type="curve"/>
      <point x="291" y="845" type="line"/>
      <point x="372" y="1273"/>
      <point x="382" y="1327"/>
      <point x="382" y="1355" type="curve" smooth="yes"/>
      <point x="382" y="1438"/>
      <point x="323" y="1497"/>
      <point x="244" y="1497" type="curve" smooth="yes"/>
      <point x="165" y="1497"/>
      <point x="105" y="1438"/>
      <point x="105" y="1357" type="curve" smooth="yes"/>
      <point x="105" y="1326"/>
      <point x="113" y="1284"/>
    </contour>
  </outline>
</glyph>
<glyph name="parenleft" format="2">
  <advance width="797"/>
  <unicode hex="0028"/>
  <outline>
    <contour>
      <point x="682" y="-231" type="curve"/>
      <point x="717" y="-149" type="line"/>
      <point x="478" y="20"/>
      <point x="423" y="340"/>
      <point x="423" y="635" type="curve" smooth="yes"/>
      <point x="423" y="912"/>
      <point x="478" y="1236"/>
      <point x="717" y="1407" type="curve"/>
      <point x="682" y="1489" type="line"/>
      <point x="275" y="1278"/>
      <point x="117" y="933"/>
      <point x="117" y="635" type="curve" smooth="yes"/>
      <point x="117" y="375"/>
      <point x="247" y="-3"/>
    </contour>
  </outline>
</glyph>
<glyph name="parenright" format="2">
  <advance width="790"/>
  <unicode hex="0029"/>
  <outline>
    <contour>
      <point x="114" y="-229" type="line"/>
      <point x="545" y="-3"/>
      <point x="674" y="372"/>
      <point x="674" y="630" type="curve" smooth="yes"/>
      <point x="674" y="925"/>
      <point x="518" y="1268"/>
      <point x="114" y="1477" type="curve"/>
      <point x="79" y="1395" type="line"/>
      <point x="316" y="1226"/>
      <point x="371" y="905"/>
      <point x="371" y="630" type="curve" smooth="yes"/>
      <point x="371" y="337"/>
      <point x="316" y="20"/>
      <point x="79" y="-148" type="curve"/>
    </contour>
  </outline>
</glyph>
<glyph name="asterisk" format="2">
  <advance width="1016"/>
  <unicode hex="002A"/>
  <outline>
    <contour>
      <point x="571" y="1053" type="curve"/>
      <point x="599" y="1064"/>
      <point x="630" y="1071"/>
      <point x="663" y="1071" type="curve" smooth="yes"/>
      <point x="703" y="1071"/>
      <point x="751" y="1056"/>
      <point x="797" y="1056" type="curve" smooth="yes"/>
      <point x="871" y="1056"/>
      <point x="932" y="1093"/>
      <point x="932" y="1174" type="curve" smooth="yes"/>
      <point x="932" y="1241"/>
      <point x="884" y="1315"/>
      <point x="811" y="1315" type="curve" smooth="yes"/>
      <point x="742" y="1315"/>
      <point x="696" y="1261"/>
      <point x="649" y="1198" type="curve" smooth="yes"/>
      <point x="620" y="1160"/>
      <point x="583" y="1139"/>
      <point x="544" y="1125" type="curve"/>
      <point x="544" y="1166"/>
      <point x="553" y="1209"/>
      <point x="577" y="1250" type="curve" smooth="yes"/>
      <point x="610" y="1304"/>
      <point x="636" y="1349"/>
      <point x="636" y="1403" type="curve" smooth="yes"/>
      <point x="636" y="1474"/>
      <point x="570" y="1515"/>
      <point x="507" y="1515" type="curve" smooth="yes"/>
      <point x="443" y="1515"/>
      <point x="378" y="1474"/>
      <point x="378" y="1403" type="curve" smooth="yes"/>
      <point x="378" y="1349"/>
      <point x="404" y="1304"/>
      <point x="436" y="1250" type="curve" smooth="yes"/>
      <point x="460" y="1209"/>
      <point x="469" y="1166"/>
      <point x="469" y="1125" type="curve"/>
      <point x="430" y="1139"/>
      <point x="394" y="1160"/>
      <point x="365" y="1198" type="curve" smooth="yes"/>
      <point x="317" y="1261"/>
      <point x="272" y="1315"/>
      <point x="202" y="1315" type="curve" smooth="yes"/>
      <point x="130" y="1315"/>
      <point x="81" y="1241"/>
      <point x="81" y="1174" type="curve" smooth="yes"/>
      <point x="81" y="1093"/>
      <point x="143" y="1056"/>
      <point x="216" y="1056" type="curve" smooth="yes"/>
      <point x="263" y="1056"/>
      <point x="310" y="1071"/>
      <point x="351" y="1071" type="curve" smooth="yes"/>
      <point x="384" y="1071"/>
      <point x="415" y="1064"/>
      <point x="442" y="1053" type="curve"/>
      <point x="416" y="1021"/>
      <point x="382" y="993"/>
      <point x="337" y="978" type="curve" smooth="yes"/>
      <point x="256" y="951"/>
      <point x="173" y="912"/>
      <point x="173" y="827" type="curve" smooth="yes"/>
      <point x="173" y="755"/>
      <point x="238" y="693"/>
      <point x="310" y="693" type="curve" smooth="yes"/>
      <point x="342" y="693"/>
      <point x="375" y="702"/>
      <point x="397" y="731" type="curve" smooth="yes"/>
      <point x="429" y="775"/>
      <point x="438" y="825"/>
      <point x="447" y="889" type="curve" smooth="yes"/>
      <point x="454" y="935"/>
      <point x="481" y="980"/>
      <point x="507" y="1013" type="curve"/>
      <point x="533" y="980"/>
      <point x="559" y="935"/>
      <point x="566" y="889" type="curve" smooth="yes"/>
      <point x="575" y="825"/>
      <point x="584" y="775"/>
      <point x="617" y="731" type="curve" smooth="yes"/>
      <point x="639" y="702"/>
      <point x="671" y="693"/>
      <point x="703" y="693" type="curve" smooth="yes"/>
      <point x="776" y="693"/>
      <point x="841" y="755"/>
      <point x="841" y="827" type="curve" smooth="yes"/>
      <point x="841" y="912"/>
      <point x="758" y="951"/>
      <point x="676" y="978" type="curve" smooth="yes"/>
      <point x="632" y="993"/>
      <point x="598" y="1021"/>
    </contour>
  </outline>
</glyph>
<glyph name="plus" format="2">
  <advance width="1231"/>
  <unicode hex="002B"/>
  <note>
plus
</note>
  <outline>
    <contour>
      <point x="103" y="416" type="line"/>
      <point x="1128" y="416" type="line"/>
      <point x="1128" y="610" type="line"/>
      <point x="103" y="610" type="line"/>
    </contour>
    <contour>
      <point x="520" y="0" type="line"/>
      <point x="713" y="0" type="line"/>
      <point x="713" y="1026" type="line"/>
      <point x="520" y="1026" type="line"/>
    </contour>
  </outline>
</glyph>
<glyph name="comma" format="2">
  <advance width="569"/>
  <unicode hex="002C"/>
  <note>
comma
</note>
  <outline>
    <contour>
      <point x="82" y="-297" type="curve"/>
      <point x="137" y="-381" type="line"/>
      <point x="365" y="-244"/>
      <point x="483" y="-76"/>
      <point x="483" y="109" type="curve" smooth="yes"/>
      <point x="483" y="254"/>
      <point x="399" y="354"/>
      <point x="276" y="354" type="curve" smooth="yes"/>
      <point x="166" y="354"/>
      <point x="80" y="266"/>
      <point x="80" y="154" type="curve" smooth="yes"/>
      <point x="80" y="53"/>
      <point x="154" y="-23"/>
      <point x="250" y="-23" type="curve" smooth="yes"/>
      <point x="256" y="-23"/>
      <point x="262" y="-23"/>
      <point x="268" y="-20" type="curve"/>
      <point x="276" y="-20" type="line" smooth="yes"/>
      <point x="283" y="-20"/>
      <point x="285" y="-25"/>
      <point x="285" y="-33" type="curve" smooth="yes"/>
      <point x="285" y="-111"/>
      <point x="209" y="-209"/>
    </contour>
  </outline>
</glyph>
<glyph name="hyphen" format="2">
  <advance width="1249"/>
  <unicode hex="002D"/>
  <note>
hyphen
</note>
  <outline>
    <contour>
      <point x="1146" y="610" type="line"/>
      <point x="103" y="610" type="line"/>
      <point x="103" y="416" type="line"/>
      <point x="1146" y="416" type="line"/>
    </contour>
  </outline>
</glyph>
<glyph name="period" format="2">
  <advance width="564"/>
  <unicode hex="002E"/>
  <note>
period
</note>
  <outline>
    <contour>
      <point x="283" y="-29" type="curve" smooth="yes"/>
      <point x="366" y="-29"/>
      <point x="432" y="38"/>
      <point x="432" y="122" type="curve" smooth="yes"/>
      <point x="432" y="205"/>
      <point x="366" y="272"/>
      <point x="283" y="272" type="curve" smooth="yes"/>
      <point x="198" y="272"/>
      <point x="132" y="205"/>
      <point x="132" y="122" type="curve" smooth="yes"/>
      <point x="132" y="38"/>
      <point x="198" y="-29"/>
    </contour>
  </outline>
</glyph>
<glyph name="slash" format="2">
  <advance width="569"/>
  <unicode hex="002F"/>
  <note>
slash
</note>
  <outline>
    <contour>
      <point x="634" y="1509" type="line"/>
      <point x="451" y="1509" type="line"/>
      <point x="-63" y="-31" type="line"/>
      <point x="120" y="-31" type="line"/>
    </contour>
  </outline>
</glyph>
<glyph name="zero" format="2">
  <advance width="1166"/>
  <unicode hex="0030"/>
  <outline>
    <contour>
      <point x="583" y="1431" type="curve" smooth="yes"/>
      <point x="279" y="1431"/>
      <point x="94" y="1128"/>
      <point x="94" y="725" type="curve" smooth="yes"/>
      <point x="94" y="283"/>
      <point x="279" y="-29"/>
      <point x="583" y="-29" type="curve" smooth="yes"/>
      <point x="882" y="-29"/>
      <point x="1069" y="283"/>
      <point x="1069" y="714" type="curve" smooth="yes"/>
      <point x="1069" y="1054"/>
      <point x="935" y="1431"/>
    </contour>
    <contour>
      <point x="581" y="1332" type="curve" smooth="yes"/>
      <point x="726" y="1332"/>
      <point x="756" y="1036"/>
      <point x="756" y="679" type="curve" smooth="yes"/>
      <point x="756" y="311"/>
      <point x="724" y="77"/>
      <point x="581" y="77" type="curve" smooth="yes"/>
      <point x="435" y="77"/>
      <point x="405" y="312"/>
      <point x="405" y="685" type="curve" smooth="yes"/>
      <point x="405" y="1023"/>
      <point x="424" y="1332"/>
    </contour>
  </outline>
</glyph>
<glyph name="one" format="2">
  <advance width="1176"/>
  <unicode hex="0031"/>
  <note>
one
</note>
  <outline>
    <contour>
      <point x="238" y="0" type="line"/>
      <point x="1006" y="0" type="line"/>
      <point x="1006" y="93" type="line"/>
      <point x="940" y="93" type="line" smooth="yes"/>
      <point x="831" y="93"/>
      <point x="791" y="99"/>
      <point x="774" y="123" type="curve" smooth="yes"/>
      <point x="760" y="143"/>
      <point x="760" y="152"/>
      <point x="760" y="277" type="curve"/>
      <point x="760" y="1443" type="line"/>
      <point x="688" y="1443" type="line"/>
      <point x="559" y="1347"/>
      <point x="464" y="1289"/>
      <point x="220" y="1289" type="curve"/>
      <point x="220" y="1194" type="line"/>
      <point x="306" y="1194" type="line" smooth="yes"/>
      <point x="488" y="1194"/>
      <point x="488" y="1188"/>
      <point x="488" y="1022" type="curve" smooth="yes"/>
      <point x="488" y="277" type="line" smooth="yes"/>
      <point x="488" y="150"/>
      <point x="488" y="143"/>
      <point x="474" y="123" type="curve" smooth="yes"/>
      <point x="458" y="100"/>
      <point x="415" y="93"/>
      <point x="304" y="93" type="curve" smooth="yes"/>
      <point x="238" y="93" type="line"/>
    </contour>
  </outline>
</glyph>
<glyph name="two" format="2">
  <advance width="1176"/>
  <unicode hex="0032"/>
  <outline>
    <contour>
      <point x="109" y="0" type="line"/>
      <point x="1033" y="0" type="line"/>
      <point x="1061" y="493" type="line"/>
      <point x="968" y="493" type="line"/>
      <point x="954" y="442" type="line" smooth="yes"/>
      <point x="931" y="359"/>
      <point x="908" y="319"/>
      <point x="893" y="304" type="curve" smooth="yes"/>
      <point x="868" y="280"/>
      <point x="842" y="264"/>
      <point x="752" y="264" type="curve" smooth="yes"/>
      <point x="306" y="264" type="line"/>
      <point x="321" y="241" type="line"/>
      <point x="408" y="327"/>
      <point x="530" y="424"/>
      <point x="621" y="483" type="curve" smooth="yes"/>
      <point x="792" y="594"/>
      <point x="896" y="712"/>
      <point x="954" y="790" type="curve" smooth="yes"/>
      <point x="1023" y="883"/>
      <point x="1038" y="969"/>
      <point x="1038" y="1065" type="curve" smooth="yes"/>
      <point x="1038" y="1284"/>
      <point x="866" y="1443"/>
      <point x="578" y="1443" type="curve" smooth="yes"/>
      <point x="299" y="1443"/>
      <point x="164" y="1270"/>
      <point x="164" y="1036" type="curve" smooth="yes"/>
      <point x="164" y="877"/>
      <point x="253" y="800"/>
      <point x="339" y="800" type="curve" smooth="yes"/>
      <point x="416" y="800"/>
      <point x="495" y="856"/>
      <point x="495" y="964" type="curve" smooth="yes"/>
      <point x="495" y="1052"/>
      <point x="417" y="1082"/>
      <point x="328" y="1112" type="curve" smooth="yes"/>
      <point x="300" y="1121"/>
      <point x="290" y="1141"/>
      <point x="290" y="1169" type="curve" smooth="yes"/>
      <point x="290" y="1235"/>
      <point x="376" y="1346"/>
      <point x="508" y="1346" type="curve" smooth="yes"/>
      <point x="652" y="1346"/>
      <point x="733" y="1245"/>
      <point x="733" y="1074" type="curve" smooth="yes"/>
      <point x="733" y="924"/>
      <point x="699" y="806"/>
      <point x="529" y="587" type="curve" smooth="yes"/>
      <point x="445" y="479"/>
      <point x="323" y="360"/>
      <point x="260" y="286" type="curve" smooth="yes"/>
      <point x="202" y="218"/>
      <point x="158" y="159"/>
      <point x="109" y="88" type="curve"/>
    </contour>
  </outline>
</glyph>
<glyph name="three" format="2">
  <advance width="1176"/>
  <unicode hex="0033"/>
  <outline>
    <contour>
      <point x="545" y="-29" type="curve" smooth="yes"/>
      <point x="839" y="-29"/>
      <point x="1055" y="101"/>
      <point x="1055" y="395" type="curve" smooth="yes"/>
      <point x="1055" y="583"/>
      <point x="921" y="730"/>
      <point x="675" y="755" type="curve"/>
      <point x="664" y="737" type="line"/>
      <point x="877" y="766"/>
      <point x="1009" y="890"/>
      <point x="1009" y="1087" type="curve" smooth="yes"/>
      <point x="1009" y="1275"/>
      <point x="856" y="1443"/>
      <point x="565" y="1443" type="curve" smooth="yes"/>
      <point x="351" y="1443"/>
      <point x="191" y="1308"/>
      <point x="191" y="1133" type="curve" smooth="yes"/>
      <point x="191" y="1027"/>
      <point x="257" y="953"/>
      <point x="342" y="953" type="curve" smooth="yes"/>
      <point x="420" y="953"/>
      <point x="483" y="1012"/>
      <point x="483" y="1088" type="curve" smooth="yes"/>
      <point x="483" y="1167"/>
      <point x="444" y="1195"/>
      <point x="387" y="1239" type="curve" smooth="yes"/>
      <point x="376" y="1248"/>
      <point x="372" y="1262"/>
      <point x="372" y="1271" type="curve" smooth="yes"/>
      <point x="372" y="1310"/>
      <point x="432" y="1343"/>
      <point x="512" y="1343" type="curve" smooth="yes"/>
      <point x="641" y="1343"/>
      <point x="728" y="1249"/>
      <point x="728" y="1090" type="curve" smooth="yes"/>
      <point x="728" y="911"/>
      <point x="672" y="817"/>
      <point x="584" y="795" type="curve" smooth="yes"/>
      <point x="573" y="792"/>
      <point x="548" y="791"/>
      <point x="526" y="791" type="curve" smooth="yes"/>
      <point x="480" y="791"/>
      <point x="460" y="797"/>
      <point x="435" y="797" type="curve" smooth="yes"/>
      <point x="413" y="797"/>
      <point x="377" y="785"/>
      <point x="377" y="744" type="curve" smooth="yes"/>
      <point x="377" y="694"/>
      <point x="395" y="676"/>
      <point x="438" y="676" type="curve" smooth="yes"/>
      <point x="453" y="676"/>
      <point x="462" y="679"/>
      <point x="485" y="682" type="curve" smooth="yes"/>
      <point x="525" y="688"/>
      <point x="544" y="688"/>
      <point x="559" y="688" type="curve" smooth="yes"/>
      <point x="666" y="688"/>
      <point x="759" y="594"/>
      <point x="759" y="401" type="curve" smooth="yes"/>
      <point x="759" y="195"/>
      <point x="682" y="68"/>
      <point x="509" y="68" type="curve" smooth="yes"/>
      <point x="406" y="68"/>
      <point x="315" y="125"/>
      <point x="315" y="164" type="curve" smooth="yes"/>
      <point x="315" y="176"/>
      <point x="320" y="200"/>
      <point x="339" y="212" type="curve" smooth="yes"/>
      <point x="394" y="247"/>
      <point x="452" y="294"/>
      <point x="452" y="373" type="curve" smooth="yes"/>
      <point x="452" y="442"/>
      <point x="394" y="506"/>
      <point x="301" y="506" type="curve" smooth="yes"/>
      <point x="199" y="506"/>
      <point x="136" y="431"/>
      <point x="136" y="319" type="curve" smooth="yes"/>
      <point x="136" y="131"/>
      <point x="268" y="-29"/>
    </contour>
  </outline>
</glyph>
<glyph name="four" format="2">
  <advance width="1176"/>
  <unicode hex="0034"/>
  <outline>
    <contour>
      <point x="384" y="0" type="line"/>
      <point x="1104" y="0" type="line"/>
      <point x="1104" y="93" type="line"/>
      <point x="991" y="93"/>
      <point x="909" y="102"/>
      <point x="894" y="121" type="curve" smooth="yes"/>
      <point x="879" y="140"/>
      <point x="879" y="150"/>
      <point x="879" y="295" type="curve" smooth="yes"/>
      <point x="879" y="1443" type="line"/>
      <point x="790" y="1443" type="line"/>
      <point x="89" y="478" type="line"/>
      <point x="89" y="348" type="line"/>
      <point x="1074" y="348" type="line"/>
      <point x="1074" y="448" type="line"/>
      <point x="142" y="448" type="line"/>
      <point x="162" y="407" type="line"/>
      <point x="669" y="1106" type="line"/>
      <point x="609" y="1106" type="line"/>
      <point x="609" y="295" type="line" smooth="yes"/>
      <point x="609" y="150"/>
      <point x="609" y="141"/>
      <point x="595" y="121" type="curve" smooth="yes"/>
      <point x="580" y="99"/>
      <point x="503" y="93"/>
      <point x="384" y="93" type="curve"/>
    </contour>
  </outline>
</glyph>
<glyph name="five" format="2">
  <advance width="1176"/>
  <unicode hex="0035"/>
  <outline>
    <contour>
      <point x="530" y="-29" type="curve" smooth="yes"/>
      <point x="866" y="-29"/>
      <point x="1056" y="176"/>
      <point x="1056" y="479" type="curve" smooth="yes"/>
      <point x="1056" y="735"/>
      <point x="871" y="937"/>
      <point x="586" y="937" type="curve" smooth="yes"/>
      <point x="416" y="937"/>
      <point x="165" y="856"/>
      <point x="165" y="686" type="curve" smooth="yes"/>
      <point x="165" y="644"/>
      <point x="193" y="624"/>
      <point x="223" y="624" type="curve" smooth="yes"/>
      <point x="255" y="624"/>
      <point x="291" y="647"/>
      <point x="298" y="692" type="curve" smooth="yes"/>
      <point x="324" y="853"/>
      <point x="328" y="1017"/>
      <point x="348" y="1179" type="curve"/>
      <point x="282" y="1136" type="line"/>
      <point x="399" y="1111"/>
      <point x="459" y="1098"/>
      <point x="550" y="1098" type="curve" smooth="yes"/>
      <point x="871" y="1098"/>
      <point x="1016" y="1323"/>
      <point x="1016" y="1420" type="curve" smooth="yes"/>
      <point x="1016" y="1435"/>
      <point x="1010" y="1443"/>
      <point x="1000" y="1443" type="curve" smooth="yes"/>
      <point x="992" y="1443"/>
      <point x="979" y="1441"/>
      <point x="967" y="1437" type="curve" smooth="yes"/>
      <point x="893" y="1410"/>
      <point x="779" y="1393"/>
      <point x="675" y="1393" type="curve" smooth="yes"/>
      <point x="503" y="1393"/>
      <point x="380" y="1416"/>
      <point x="255" y="1443" type="curve"/>
      <point x="244" y="1194"/>
      <point x="228" y="970"/>
      <point x="204" y="726" type="curve"/>
      <point x="246" y="702" type="line"/>
      <point x="314" y="768"/>
      <point x="402" y="813"/>
      <point x="500" y="813" type="curve" smooth="yes"/>
      <point x="653" y="813"/>
      <point x="731" y="690"/>
      <point x="731" y="469" type="curve" smooth="yes"/>
      <point x="731" y="219"/>
      <point x="663" y="73"/>
      <point x="479" y="73" type="curve" smooth="yes"/>
      <point x="387" y="73"/>
      <point x="299" y="126"/>
      <point x="299" y="169" type="curve" smooth="yes"/>
      <point x="299" y="181"/>
      <point x="305" y="194"/>
      <point x="324" y="203" type="curve" smooth="yes"/>
      <point x="406" y="241"/>
      <point x="444" y="281"/>
      <point x="444" y="350" type="curve" smooth="yes"/>
      <point x="444" y="433"/>
      <point x="383" y="492"/>
      <point x="298" y="492" type="curve" smooth="yes"/>
      <point x="199" y="492"/>
      <point x="135" y="417"/>
      <point x="135" y="310" type="curve" smooth="yes"/>
      <point x="135" y="115"/>
      <point x="268" y="-29"/>
    </contour>
  </outline>
</glyph>
<glyph name="six" format="2">
  <advance width="1176"/>
  <unicode hex="0036"/>
  <outline>
    <contour>
      <point x="604" y="-29" type="curve" smooth="yes"/>
      <point x="905" y="-29"/>
      <point x="1091" y="174"/>
      <point x="1091" y="457" type="curve" smooth="yes"/>
      <point x="1091" y="702"/>
      <point x="951" y="859"/>
      <point x="708" y="859" type="curve" smooth="yes"/>
      <point x="594" y="859"/>
      <point x="475" y="807"/>
      <point x="408" y="694" type="curve"/>
      <point x="435" y="694" type="line"/>
      <point x="435" y="787"/>
      <point x="445" y="1010"/>
      <point x="472" y="1101" type="curve" smooth="yes"/>
      <point x="522" y="1269"/>
      <point x="600" y="1359"/>
      <point x="704" y="1359" type="curve" smooth="yes"/>
      <point x="755" y="1359"/>
      <point x="782" y="1331"/>
      <point x="782" y="1302" type="curve" smooth="yes"/>
      <point x="782" y="1288"/>
      <point x="780" y="1279"/>
      <point x="768" y="1258" type="curve" smooth="yes"/>
      <point x="748" y="1224"/>
      <point x="744" y="1206"/>
      <point x="744" y="1165" type="curve" smooth="yes"/>
      <point x="744" y="1073"/>
      <point x="815" y="1024"/>
      <point x="888" y="1024" type="curve" smooth="yes"/>
      <point x="963" y="1024"/>
      <point x="1039" y="1077"/>
      <point x="1039" y="1189" type="curve" smooth="yes"/>
      <point x="1039" y="1335"/>
      <point x="906" y="1443"/>
      <point x="702" y="1443" type="curve" smooth="yes"/>
      <point x="506" y="1443"/>
      <point x="400" y="1372"/>
      <point x="279" y="1217" type="curve" smooth="yes"/>
      <point x="155" y="1058"/>
      <point x="120" y="870"/>
      <point x="120" y="627" type="curve" smooth="yes"/>
      <point x="120" y="272"/>
      <point x="282" y="-29"/>
    </contour>
    <contour>
      <point x="622" y="68" type="curve" smooth="yes"/>
      <point x="511" y="68"/>
      <point x="436" y="186"/>
      <point x="436" y="397" type="curve" smooth="yes"/>
      <point x="436" y="556"/>
      <point x="497" y="731"/>
      <point x="626" y="731" type="curve" smooth="yes"/>
      <point x="733" y="731"/>
      <point x="798" y="618"/>
      <point x="798" y="434" type="curve" smooth="yes"/>
      <point x="798" y="197"/>
      <point x="741" y="68"/>
    </contour>
  </outline>
</glyph>
<glyph name="seven" format="2">
  <advance width="1166"/>
  <unicode hex="0037"/>
  <outline>
    <contour>
      <point x="1109" y="1346" type="curve"/>
      <point x="1109" y="1431" type="line"/>
      <point x="973" y="1419"/>
      <point x="859" y="1417"/>
      <point x="648" y="1417" type="curve" smooth="yes"/>
      <point x="505" y="1417"/>
      <point x="429" y="1417"/>
      <point x="210" y="1431" type="curve"/>
      <point x="142" y="881" type="line"/>
      <point x="234" y="881" type="line"/>
      <point x="254" y="960" type="line" smooth="yes"/>
      <point x="288" y="1095"/>
      <point x="316" y="1135"/>
      <point x="379" y="1135" type="curve" smooth="yes"/>
      <point x="475" y="1135"/>
      <point x="684" y="1128"/>
      <point x="935" y="1134" type="curve"/>
      <point x="916" y="1168" type="line"/>
      <point x="673" y="750" type="line" smooth="yes"/>
      <point x="527" y="496"/>
      <point x="446" y="294"/>
      <point x="446" y="119" type="curve" smooth="yes"/>
      <point x="446" y="53"/>
      <point x="473" y="-29"/>
      <point x="583" y="-29" type="curve" smooth="yes"/>
      <point x="700" y="-29"/>
      <point x="759" y="64"/>
      <point x="765" y="214" type="curve" smooth="yes"/>
      <point x="777" y="507"/>
      <point x="800" y="682"/>
      <point x="969" y="1066" type="curve" smooth="yes"/>
      <point x="1006" y="1149"/>
      <point x="1049" y="1237"/>
    </contour>
  </outline>
</glyph>
<glyph name="eight" format="2">
  <advance width="1176"/>
  <unicode hex="0038"/>
  <outline>
    <contour>
      <point x="600" y="-29" type="curve" smooth="yes"/>
      <point x="910" y="-29"/>
      <point x="1099" y="146"/>
      <point x="1099" y="428" type="curve" smooth="yes"/>
      <point x="1099" y="633"/>
      <point x="973" y="762"/>
      <point x="744" y="834" type="curve" smooth="yes"/>
      <point x="637" y="868"/>
      <point x="562" y="909"/>
      <point x="517" y="938" type="curve" smooth="yes"/>
      <point x="423" y="999"/>
      <point x="385" y="1057"/>
      <point x="385" y="1147" type="curve" smooth="yes"/>
      <point x="385" y="1255"/>
      <point x="481" y="1338"/>
      <point x="608" y="1338" type="curve" smooth="yes"/>
      <point x="745" y="1338"/>
      <point x="841" y="1240"/>
      <point x="841" y="1097" type="curve" smooth="yes"/>
      <point x="841" y="985"/>
      <point x="786" y="896"/>
      <point x="679" y="838" type="curve"/>
      <point x="485" y="692" type="line"/>
      <point x="281" y="628"/>
      <point x="130" y="530"/>
      <point x="130" y="334" type="curve" smooth="yes"/>
      <point x="130" y="120"/>
      <point x="296" y="-29"/>
    </contour>
    <contour>
      <point x="624" y="63" type="curve" smooth="yes"/>
      <point x="460" y="63"/>
      <point x="351" y="178"/>
      <point x="351" y="347" type="curve" smooth="yes"/>
      <point x="351" y="499"/>
      <point x="402" y="558"/>
      <point x="545" y="661" type="curve"/>
      <point x="765" y="819" type="line"/>
      <point x="939" y="886"/>
      <point x="1034" y="998"/>
      <point x="1034" y="1135" type="curve" smooth="yes"/>
      <point x="1034" y="1323"/>
      <point x="869" y="1443"/>
      <point x="623" y="1443" type="curve" smooth="yes"/>
      <point x="347" y="1443"/>
      <point x="180" y="1249"/>
      <point x="180" y="1031" type="curve" smooth="yes"/>
      <point x="180" y="901"/>
      <point x="249" y="772"/>
      <point x="429" y="695" type="curve" smooth="yes"/>
      <point x="512" y="660"/>
      <point x="686" y="574"/>
      <point x="743" y="548" type="curve" smooth="yes"/>
      <point x="872" y="490"/>
      <point x="916" y="417"/>
      <point x="916" y="312" type="curve" smooth="yes"/>
      <point x="916" y="173"/>
      <point x="782" y="63"/>
    </contour>
  </outline>
</glyph>
<glyph name="nine" format="2">
  <advance width="1176"/>
  <unicode hex="0039"/>
  <outline>
    <contour>
      <point x="517" y="-29" type="curve" smooth="yes"/>
      <point x="698" y="-29"/>
      <point x="831" y="58"/>
      <point x="912" y="172" type="curve" smooth="yes"/>
      <point x="1052" y="368"/>
      <point x="1092" y="565"/>
      <point x="1092" y="791" type="curve" smooth="yes"/>
      <point x="1092" y="1253"/>
      <point x="851" y="1443"/>
      <point x="603" y="1443" type="curve" smooth="yes"/>
      <point x="306" y="1443"/>
      <point x="128" y="1223"/>
      <point x="128" y="938" type="curve" smooth="yes"/>
      <point x="128" y="717"/>
      <point x="275" y="539"/>
      <point x="481" y="539" type="curve" smooth="yes"/>
      <point x="614" y="539"/>
      <point x="708" y="586"/>
      <point x="803" y="705" type="curve"/>
      <point x="778" y="724" type="line"/>
      <point x="778" y="515"/>
      <point x="770" y="398"/>
      <point x="735" y="293" type="curve" smooth="yes"/>
      <point x="686" y="145"/>
      <point x="612" y="68"/>
      <point x="509" y="68" type="curve" smooth="yes"/>
      <point x="450" y="68"/>
      <point x="426" y="82"/>
      <point x="426" y="109" type="curve" smooth="yes"/>
      <point x="426" y="121"/>
      <point x="430" y="149"/>
      <point x="438" y="162" type="curve" smooth="yes"/>
      <point x="458" y="194"/>
      <point x="465" y="218"/>
      <point x="465" y="249" type="curve" smooth="yes"/>
      <point x="465" y="345"/>
      <point x="398" y="391"/>
      <point x="328" y="391" type="curve" smooth="yes"/>
      <point x="252" y="391"/>
      <point x="172" y="336"/>
      <point x="172" y="233" type="curve" smooth="yes"/>
      <point x="172" y="94"/>
      <point x="306" y="-29"/>
    </contour>
    <contour>
      <point x="593" y="676" type="curve" smooth="yes"/>
      <point x="446" y="676"/>
      <point x="406" y="849"/>
      <point x="406" y="1006" type="curve" smooth="yes"/>
      <point x="406" y="1229"/>
      <point x="480" y="1339"/>
      <point x="595" y="1339" type="curve" smooth="yes"/>
      <point x="734" y="1339"/>
      <point x="778" y="1195"/>
      <point x="778" y="987" type="curve" smooth="yes"/>
      <point x="778" y="807"/>
      <point x="697" y="676"/>
    </contour>
  </outline>
</glyph>
<glyph name="colon" format="2">
  <advance width="569"/>
  <unicode hex="003A"/>
  <note>
colon
</note>
  <outline>
    <contour>
      <point x="307" y="-8" type="curve" smooth="yes"/>
      <point x="401" y="-8"/>
      <point x="477" y="68"/>
      <point x="477" y="162" type="curve" smooth="yes"/>
      <point x="477" y="256"/>
      <point x="401" y="332"/>
      <point x="307" y="332" type="curve" smooth="yes"/>
      <point x="213" y="332"/>
      <point x="137" y="256"/>
      <point x="137" y="162" type="curve" smooth="yes"/>
      <point x="137" y="68"/>
      <point x="213" y="-8"/>
    </contour>
    <contour>
      <point x="307" y="625" type="curve" smooth="yes"/>
      <point x="401" y="625"/>
      <point x="477" y="701"/>
      <point x="477" y="795" type="curve" smooth="yes"/>
      <point x="477" y="889"/>
      <point x="401" y="965"/>
      <point x="307" y="965" type="curve" smooth="yes"/>
      <point x="213" y="965"/>
      <point x="137" y="889"/>
      <point x="137" y="795" type="curve" smooth="yes"/>
      <point x="137" y="701"/>
      <point x="213" y="625"/>
    </contour>
  </outline>
</glyph>
<glyph name="semicolon" format="2">
  <advance width="564"/>
  <unicode hex="003B"/>
  <note>
semicolon
</note>
  <outline>
    <component base="comma" xOffset="20"/>
    <contour>
      <point x="293" y="620" type="curve" smooth="yes"/>
      <point x="386" y="620"/>
      <point x="461" y="695"/>
      <point x="461" y="788" type="curve" smooth="yes"/>
      <point x="461" y="882"/>
      <point x="386" y="957"/>
      <point x="293" y="957" type="curve" smooth="yes"/>
      <point x="199" y="957"/>
      <point x="124" y="882"/>
      <point x="124" y="788" type="curve" smooth="yes"/>
      <point x="124" y="695"/>
      <point x="199" y="620"/>
    </contour>
  </outline>
</glyph>
<glyph name="less" format="2">
  <advance width="1241"/>
  <unicode hex="003C"/>
  <note>
less
</note>
  <outline>
    <contour>
      <point x="304" y="493" type="line"/>
      <point x="1171" y="871" type="line"/>
      <point x="1171" y="1082" type="line"/>
      <point x="70" y="607" type="line"/>
      <point x="70" y="423" type="line"/>
      <point x="1171" y="-52" type="line"/>
      <point x="1171" y="158" type="line"/>
      <point x="304" y="537" type="line"/>
    </contour>
  </outline>
</glyph>
<glyph name="equal" format="2">
  <advance width="1231"/>
  <unicode hex="003D"/>
  <note>
equal
</note>
  <outline>
    <contour>
      <point x="103" y="416" type="line"/>
      <point x="103" y="221" type="line"/>
      <point x="1128" y="221" type="line"/>
      <point x="1128" y="416" type="line"/>
    </contour>
    <contour>
      <point x="103" y="808" type="line"/>
      <point x="103" y="614" type="line"/>
      <point x="1128" y="614" type="line"/>
      <point x="1128" y="808" type="line"/>
    </contour>
  </outline>
</glyph>
<glyph name="question" format="2">
  <advance width="1024"/>
  <unicode hex="003F"/>
  <outline>
    <contour>
      <point x="430" y="437" type="curve"/>
      <point x="510" y="437" type="line"/>
      <point x="516" y="580"/>
      <point x="567" y="701"/>
      <point x="696" y="793" type="curve" smooth="yes"/>
      <point x="829" y="888"/>
      <point x="908" y="998"/>
      <point x="908" y="1172" type="curve" smooth="yes"/>
      <point x="908" y="1355"/>
      <point x="755" y="1509"/>
      <point x="508" y="1509" type="curve" smooth="yes"/>
      <point x="258" y="1509"/>
      <point x="107" y="1358"/>
      <point x="107" y="1190" type="curve" smooth="yes"/>
      <point x="107" y="1079"/>
      <point x="172" y="1003"/>
      <point x="272" y="1003" type="curve" smooth="yes"/>
      <point x="356" y="1003"/>
      <point x="418" y="1067"/>
      <point x="418" y="1165" type="curve" smooth="yes"/>
      <point x="418" y="1219"/>
      <point x="375" y="1267"/>
      <point x="332" y="1296" type="curve" smooth="yes"/>
      <point x="298" y="1319"/>
      <point x="293" y="1327"/>
      <point x="293" y="1341" type="curve" smooth="yes"/>
      <point x="293" y="1372"/>
      <point x="348" y="1423"/>
      <point x="432" y="1423" type="curve" smooth="yes"/>
      <point x="555" y="1423"/>
      <point x="624" y="1313"/>
      <point x="624" y="1167" type="curve" smooth="yes"/>
      <point x="624" y="1083"/>
      <point x="585" y="979"/>
      <point x="532" y="887" type="curve" smooth="yes"/>
      <point x="461" y="765"/>
      <point x="423" y="635"/>
      <point x="423" y="543" type="curve" smooth="yes"/>
      <point x="423" y="522"/>
      <point x="426" y="470"/>
    </contour>
    <contour>
      <point x="467" y="-25" type="curve" smooth="yes"/>
      <point x="547" y="-25"/>
      <point x="612" y="39"/>
      <point x="612" y="119" type="curve" smooth="yes"/>
      <point x="612" y="199"/>
      <point x="547" y="264"/>
      <point x="467" y="264" type="curve" smooth="yes"/>
      <point x="387" y="264"/>
      <point x="323" y="199"/>
      <point x="323" y="119" type="curve" smooth="yes"/>
      <point x="323" y="39"/>
      <point x="387" y="-25"/>
    </contour>
  </outline>
</glyph>
<glyph name="at" format="2">
  <advance width="1517"/>
  <unicode hex="0040"/>
  <note>
at
</note>
  <outline>
    <contour>
      <point x="1448" y="386" type="curve"/>
      <point x="1308" y="386" type="line"/>
      <point x="1190" y="197"/>
      <point x="948" y="93"/>
      <point x="731" y="93" type="curve" smooth="yes"/>
      <point x="327" y="93"/>
      <point x="159" y="318"/>
      <point x="159" y="637" type="curve" smooth="yes"/>
      <point x="159" y="1036"/>
      <point x="438" y="1373"/>
      <point x="788" y="1373" type="curve" smooth="yes"/>
      <point x="1107" y="1373"/>
      <point x="1337" y="1155"/>
      <point x="1337" y="851" type="curve" smooth="yes"/>
      <point x="1337" y="696"/>
      <point x="1282" y="568"/>
      <point x="1184" y="483" type="curve" smooth="yes"/>
      <point x="1139" y="443"/>
      <point x="1093" y="424"/>
      <point x="1054" y="424" type="curve" smooth="yes"/>
      <point x="1022" y="424"/>
      <point x="1006" y="438"/>
      <point x="1006" y="469" type="curve" smooth="yes"/>
      <point x="1006" y="488"/>
      <point x="1010" y="515"/>
      <point x="1020" y="544" type="curve" smooth="yes"/>
      <point x="1207" y="1130" type="line"/>
      <point x="996" y="1130" type="line"/>
      <point x="971" y="1060" type="line"/>
      <point x="920" y="1136"/>
      <point x="872" y="1164"/>
      <point x="782" y="1164" type="curve" smooth="yes"/>
      <point x="663" y="1164"/>
      <point x="544" y="1101"/>
      <point x="463" y="991" type="curve" smooth="yes"/>
      <point x="378" y="876"/>
      <point x="325" y="727"/>
      <point x="325" y="597" type="curve" smooth="yes"/>
      <point x="325" y="508"/>
      <point x="357" y="430"/>
      <point x="408" y="375" type="curve" smooth="yes"/>
      <point x="454" y="324"/>
      <point x="520" y="295"/>
      <point x="593" y="295" type="curve" smooth="yes"/>
      <point x="706" y="295"/>
      <point x="785" y="355"/>
      <point x="841" y="486" type="curve"/>
      <point x="826" y="500" type="line"/>
      <point x="826" y="463"/>
      <point x="818" y="426"/>
      <point x="818" y="415" type="curve" smooth="yes"/>
      <point x="818" y="345"/>
      <point x="880" y="301"/>
      <point x="975" y="301" type="curve" smooth="yes"/>
      <point x="1231" y="301"/>
      <point x="1467" y="570"/>
      <point x="1467" y="865" type="curve" smooth="yes"/>
      <point x="1467" y="1217"/>
      <point x="1166" y="1497"/>
      <point x="790" y="1497" type="curve" smooth="yes"/>
      <point x="378" y="1497"/>
      <point x="29" y="1089"/>
      <point x="29" y="628" type="curve" smooth="yes"/>
      <point x="29" y="250"/>
      <point x="257" y="-31"/>
      <point x="727" y="-31" type="curve" smooth="yes"/>
      <point x="931" y="-31"/>
      <point x="1160" y="47"/>
      <point x="1318" y="199" type="curve" smooth="yes"/>
      <point x="1384" y="263"/>
      <point x="1418" y="310"/>
    </contour>
    <contour>
      <point x="824" y="1058" type="curve" smooth="yes"/>
      <point x="878" y="1058"/>
      <point x="920" y="1018"/>
      <point x="920" y="967" type="curve" smooth="yes"/>
      <point x="920" y="914"/>
      <point x="852" y="696"/>
      <point x="798" y="568" type="curve" smooth="yes"/>
      <point x="752" y="457"/>
      <point x="692" y="400"/>
      <point x="628" y="400" type="curve" smooth="yes"/>
      <point x="566" y="400"/>
      <point x="535" y="442"/>
      <point x="535" y="520" type="curve" smooth="yes"/>
      <point x="535" y="634"/>
      <point x="579" y="785"/>
      <point x="650" y="910" type="curve" smooth="yes"/>
      <point x="706" y="1012"/>
      <point x="762" y="1058"/>
    </contour>
  </outline>
</glyph>
<glyph name="A" format="2">
  <advance width="1541"/>
  <unicode hex="0041"/>
  <note>
A
</note>
  <anchor x="771" y="1607" name="Lupper"/>
  <outline>
    <contour>
      <point x="-27" y="0" type="line"/>
      <point x="527" y="0" type="line"/>
      <point x="527" y="92" type="line"/>
      <point x="478" y="92" type="line" smooth="yes"/>
      <point x="371" y="92"/>
      <point x="317" y="136"/>
      <point x="317" y="210" type="curve" smooth="yes"/>
      <point x="317" y="253"/>
      <point x="332" y="305"/>
      <point x="356" y="366" type="curve" smooth="yes"/>
      <point x="690" y="1207" type="line"/>
      <point x="660" y="1189" type="line"/>
      <point x="1035" y="244" type="line" smooth="yes"/>
      <point x="1058" y="187"/>
      <point x="1061" y="159"/>
      <point x="1061" y="143" type="curve" smooth="yes"/>
      <point x="1061" y="106"/>
      <point x="1030" y="92"/>
      <point x="941" y="92" type="curve" smooth="yes"/>
      <point x="907" y="92" type="line"/>
      <point x="907" y="0" type="line"/>
      <point x="1542" y="0" type="line"/>
      <point x="1542" y="92" type="line"/>
      <point x="1427" y="96"/>
      <point x="1400" y="117"/>
      <point x="1352" y="238" type="curve" smooth="yes"/>
      <point x="852" y="1497" type="line"/>
      <point x="689" y="1497" type="line"/>
      <point x="262" y="421" type="line" smooth="yes"/>
      <point x="175" y="201"/>
      <point x="121" y="92"/>
      <point x="-27" y="92" type="curve"/>
    </contour>
    <contour>
      <point x="949" y="592" type="line"/>
      <point x="405" y="592" type="line"/>
      <point x="367" y="473" type="line"/>
      <point x="990" y="473" type="line"/>
    </contour>
  </outline>
</glyph>
<glyph name="B" format="2">
  <advance width="1580"/>
  <unicode hex="0042"/>
  <outline>
    <contour>
      <point x="80" y="0" type="line"/>
      <point x="916" y="0" type="line" smooth="yes"/>
      <point x="1215" y="0"/>
      <point x="1504" y="103"/>
      <point x="1504" y="396" type="curve" smooth="yes"/>
      <point x="1504" y="653"/>
      <point x="1282" y="747"/>
      <point x="1009" y="778" type="curve"/>
      <point x="1008" y="764" type="line"/>
      <point x="1246" y="801"/>
      <point x="1437" y="925"/>
      <point x="1437" y="1107" type="curve" smooth="yes"/>
      <point x="1437" y="1403"/>
      <point x="1152" y="1467"/>
      <point x="898" y="1467" type="curve" smooth="yes"/>
      <point x="80" y="1467" type="line"/>
      <point x="80" y="1375" type="line"/>
      <point x="220" y="1375"/>
      <point x="255" y="1367"/>
      <point x="273" y="1346" type="curve" smooth="yes"/>
      <point x="291" y="1326"/>
      <point x="292" y="1291"/>
      <point x="292" y="1192" type="curve" smooth="yes"/>
      <point x="292" y="293" type="line" smooth="yes"/>
      <point x="292" y="149"/>
      <point x="292" y="142"/>
      <point x="277" y="122" type="curve" smooth="yes"/>
      <point x="260" y="99"/>
      <point x="218" y="92"/>
      <point x="80" y="92" type="curve"/>
    </contour>
    <contour>
      <point x="730" y="100" type="line"/>
      <point x="623" y="100"/>
      <point x="604" y="116"/>
      <point x="604" y="230" type="curve" smooth="yes"/>
      <point x="604" y="1239" type="line" smooth="yes"/>
      <point x="604" y="1344"/>
      <point x="629" y="1367"/>
      <point x="748" y="1367" type="curve" smooth="yes"/>
      <point x="958" y="1367"/>
      <point x="1090" y="1317"/>
      <point x="1090" y="1099" type="curve" smooth="yes"/>
      <point x="1090" y="867"/>
      <point x="953" y="798"/>
      <point x="741" y="798" type="curve" smooth="yes"/>
      <point x="543" y="798" type="line"/>
      <point x="543" y="706" type="line"/>
      <point x="782" y="706" type="line" smooth="yes"/>
      <point x="1007" y="706"/>
      <point x="1156" y="639"/>
      <point x="1156" y="402" type="curve" smooth="yes"/>
      <point x="1156" y="185"/>
      <point x="1046" y="100"/>
      <point x="841" y="100" type="curve"/>
    </contour>
  </outline>
</glyph>
<glyph name="C" format="2">
  <advance width="1593"/>
  <unicode hex="0043"/>
  <anchor x="802" y="0" name="Llower"/>
  <outline>
    <contour>
      <point x="1434" y="915" type="line"/>
      <point x="1414" y="1501" type="line"/>
      <point x="1341" y="1501" type="line"/>
      <point x="1237" y="1327" type="line"/>
      <point x="1298" y="1349" type="line"/>
      <point x="1143" y="1464"/>
      <point x="1017" y="1509"/>
      <point x="856" y="1509" type="curve" smooth="yes"/>
      <point x="431" y="1509"/>
      <point x="162" y="1177"/>
      <point x="162" y="721" type="curve" smooth="yes"/>
      <point x="162" y="330"/>
      <point x="429" y="-31"/>
      <point x="871" y="-31" type="curve" smooth="yes"/>
      <point x="1192" y="-31"/>
      <point x="1432" y="138"/>
      <point x="1476" y="507" type="curve"/>
      <point x="1381" y="507" type="line"/>
      <point x="1346" y="222"/>
      <point x="1165" y="78"/>
      <point x="929" y="78" type="curve" smooth="yes"/>
      <point x="651" y="78"/>
      <point x="519" y="307"/>
      <point x="519" y="758" type="curve" smooth="yes"/>
      <point x="519" y="1184"/>
      <point x="675" y="1425"/>
      <point x="896" y="1425" type="curve" smooth="yes"/>
      <point x="1124" y="1425"/>
      <point x="1272" y="1257"/>
      <point x="1341" y="915" type="curve"/>
    </contour>
  </outline>
</glyph>
<glyph name="D" format="2">
  <advance width="1692"/>
  <unicode hex="0044"/>
  <note>
D
</note>
  <outline>
    <contour>
      <point x="73" y="92" type="line"/>
      <point x="73" y="0" type="line"/>
      <point x="821" y="0" type="line" smooth="yes"/>
      <point x="1077" y="0"/>
      <point x="1225" y="63"/>
      <point x="1347" y="161" type="curve" smooth="yes"/>
      <point x="1512" y="293"/>
      <point x="1589" y="471"/>
      <point x="1589" y="750" type="curve" smooth="yes"/>
      <point x="1589" y="1013"/>
      <point x="1524" y="1166"/>
      <point x="1379" y="1296" type="curve" smooth="yes"/>
      <point x="1237" y="1422"/>
      <point x="1099" y="1467"/>
      <point x="836" y="1467" type="curve" smooth="yes"/>
      <point x="73" y="1467" type="line"/>
      <point x="73" y="1375" type="line"/>
      <point x="104" y="1375" type="line" smooth="yes"/>
      <point x="211" y="1375"/>
      <point x="253" y="1368"/>
      <point x="271" y="1344" type="curve" smooth="yes"/>
      <point x="285" y="1325"/>
      <point x="285" y="1305"/>
      <point x="285" y="1192" type="curve" smooth="yes"/>
      <point x="285" y="293" type="line" smooth="yes"/>
      <point x="285" y="161"/>
      <point x="285" y="142"/>
      <point x="271" y="122" type="curve" smooth="yes"/>
      <point x="254" y="98"/>
      <point x="211" y="92"/>
      <point x="104" y="92" type="curve" smooth="yes"/>
    </contour>
    <contour>
      <point x="781" y="90" type="curve" smooth="yes"/>
      <point x="718" y="90" type="line" smooth="yes"/>
      <point x="615" y="90"/>
      <point x="597" y="112"/>
      <point x="597" y="222" type="curve" smooth="yes"/>
      <point x="597" y="1255" type="line" smooth="yes"/>
      <point x="597" y="1348"/>
      <point x="617" y="1377"/>
      <point x="718" y="1377" type="curve" smooth="yes"/>
      <point x="770" y="1377" type="line" smooth="yes"/>
      <point x="1071" y="1377"/>
      <point x="1242" y="1179"/>
      <point x="1242" y="734" type="curve" smooth="yes"/>
      <point x="1242" y="360"/>
      <point x="1133" y="90"/>
    </contour>
  </outline>
</glyph>
<glyph name="E" format="2">
  <advance width="1554"/>
  <unicode hex="0045"/>
  <note>
E
</note>
  <anchor x="817" y="1620" name="Lupper"/>
  <outline>
    <contour>
      <point x="79" y="0" type="line"/>
      <point x="1414" y="0" type="line"/>
      <point x="1439" y="551" type="line"/>
      <point x="1346" y="551" type="line"/>
      <point x="1289" y="254"/>
      <point x="1155" y="91"/>
      <point x="857" y="91" type="curve" smooth="yes"/>
      <point x="792" y="91" type="line" smooth="yes"/>
      <point x="642" y="91"/>
      <point x="607" y="115"/>
      <point x="607" y="236" type="curve" smooth="yes"/>
      <point x="607" y="1212" type="line" smooth="yes"/>
      <point x="607" y="1355"/>
      <point x="632" y="1388"/>
      <point x="784" y="1388" type="curve" smooth="yes"/>
      <point x="854" y="1388" type="line" smooth="yes"/>
      <point x="1140" y="1388"/>
      <point x="1234" y="1264"/>
      <point x="1300" y="959" type="curve"/>
      <point x="1393" y="959" type="line"/>
      <point x="1363" y="1479" type="line"/>
      <point x="79" y="1479" type="line"/>
      <point x="79" y="1386" type="line"/>
      <point x="109" y="1386" type="line" smooth="yes"/>
      <point x="218" y="1386"/>
      <point x="259" y="1378"/>
      <point x="277" y="1355" type="curve" smooth="yes"/>
      <point x="292" y="1335"/>
      <point x="292" y="1329"/>
      <point x="292" y="1202" type="curve" smooth="yes"/>
      <point x="292" y="277" type="line" smooth="yes"/>
      <point x="292" y="150"/>
      <point x="291" y="144"/>
      <point x="276" y="123" type="curve" smooth="yes"/>
      <point x="259" y="100"/>
      <point x="218" y="93"/>
      <point x="109" y="93" type="curve" smooth="yes"/>
      <point x="79" y="93" type="line"/>
    </contour>
    <contour>
      <point x="928" y="418" type="curve"/>
      <point x="1021" y="418" type="line"/>
      <point x="1021" y="1092" type="line"/>
      <point x="928" y="1092" type="line"/>
      <point x="905" y="904"/>
      <point x="834" y="801"/>
      <point x="642" y="801" type="curve" smooth="yes"/>
      <point x="555" y="801" type="line"/>
      <point x="555" y="709" type="line"/>
      <point x="642" y="709" type="line" smooth="yes"/>
      <point x="834" y="709"/>
      <point x="905" y="606"/>
    </contour>
  </outline>
</glyph>
<glyph name="F" format="2">
  <advance width="1467"/>
  <unicode hex="0046"/>
  <note>
F
</note>
  <outline>
    <contour>
      <point x="104" y="0" type="line"/>
      <point x="863" y="0" type="line"/>
      <point x="863" y="92" type="line"/>
      <point x="810" y="92" type="line" smooth="yes"/>
      <point x="700" y="92"/>
      <point x="663" y="100"/>
      <point x="644" y="122" type="curve" smooth="yes"/>
      <point x="628" y="141"/>
      <point x="628" y="149"/>
      <point x="628" y="275" type="curve" smooth="yes"/>
      <point x="628" y="1202" type="line" smooth="yes"/>
      <point x="628" y="1344"/>
      <point x="652" y="1377"/>
      <point x="802" y="1377" type="curve" smooth="yes"/>
      <point x="905" y="1377" type="line" smooth="yes"/>
      <point x="1158" y="1377"/>
      <point x="1255" y="1241"/>
      <point x="1313" y="938" type="curve"/>
      <point x="1405" y="938" type="line"/>
      <point x="1390" y="1467" type="line"/>
      <point x="104" y="1467" type="line"/>
      <point x="104" y="1375" type="line"/>
      <point x="135" y="1375" type="line" smooth="yes"/>
      <point x="242" y="1375"/>
      <point x="282" y="1369"/>
      <point x="299" y="1344" type="curve" smooth="yes"/>
      <point x="311" y="1325"/>
      <point x="315" y="1312"/>
      <point x="315" y="1192" type="curve" smooth="yes"/>
      <point x="315" y="275" type="line" smooth="yes"/>
      <point x="315" y="155"/>
      <point x="315" y="140"/>
      <point x="298" y="122" type="curve" smooth="yes"/>
      <point x="277" y="100"/>
      <point x="242" y="92"/>
      <point x="135" y="92" type="curve" smooth="yes"/>
      <point x="104" y="92" type="line"/>
    </contour>
    <contour>
      <point x="920" y="415" type="curve"/>
      <point x="1013" y="415" type="line"/>
      <point x="1013" y="1083" type="line"/>
      <point x="920" y="1083" type="line"/>
      <point x="898" y="897"/>
      <point x="827" y="794"/>
      <point x="637" y="794" type="curve" smooth="yes"/>
      <point x="550" y="794" type="line"/>
      <point x="550" y="703" type="line"/>
      <point x="637" y="703" type="line" smooth="yes"/>
      <point x="827" y="703"/>
      <point x="898" y="601"/>
    </contour>
  </outline>
</glyph>
<glyph name="G" format="2">
  <advance width="1692"/>
  <unicode hex="0047"/>
  <note>
G
</note>
  <outline>
    <contour>
      <point x="788" y="-31" type="curve" smooth="yes"/>
      <point x="1022" y="-31"/>
      <point x="1163" y="42"/>
      <point x="1308" y="270" type="curve"/>
      <point x="1254" y="243" type="line"/>
      <point x="1392" y="-29" type="line"/>
      <point x="1469" y="-29" type="line"/>
      <point x="1469" y="405" type="line" smooth="yes"/>
      <point x="1469" y="538"/>
      <point x="1481" y="590"/>
      <point x="1584" y="590" type="curve"/>
      <point x="1649" y="590" type="line"/>
      <point x="1649" y="682" type="line"/>
      <point x="936" y="682" type="line"/>
      <point x="936" y="590" type="line"/>
      <point x="1022" y="590" type="line"/>
      <point x="1138" y="590"/>
      <point x="1163" y="558"/>
      <point x="1163" y="464" type="curve" smooth="yes"/>
      <point x="1163" y="377" type="line" smooth="yes"/>
      <point x="1163" y="188"/>
      <point x="1036" y="61"/>
      <point x="845" y="61" type="curve" smooth="yes"/>
      <point x="544" y="61"/>
      <point x="451" y="390"/>
      <point x="451" y="723" type="curve" smooth="yes"/>
      <point x="451" y="1041"/>
      <point x="540" y="1406"/>
      <point x="858" y="1406" type="curve" smooth="yes"/>
      <point x="1098" y="1406"/>
      <point x="1263" y="1224"/>
      <point x="1329" y="914" type="curve"/>
      <point x="1420" y="914" type="line"/>
      <point x="1378" y="1498" type="line"/>
      <point x="1304" y="1498" type="line"/>
      <point x="1193" y="1302" type="line"/>
      <point x="1261" y="1327" type="line"/>
      <point x="1120" y="1456"/>
      <point x="1005" y="1497"/>
      <point x="843" y="1497" type="curve" smooth="yes"/>
      <point x="440" y="1497"/>
      <point x="99" y="1221"/>
      <point x="99" y="711" type="curve" smooth="yes"/>
      <point x="99" y="270"/>
      <point x="388" y="-31"/>
    </contour>
  </outline>
</glyph>
<glyph name="H" format="2">
  <advance width="1782"/>
  <unicode hex="0048"/>
  <note>
H
</note>
  <outline>
    <contour>
      <point x="99" y="0" type="line"/>
      <point x="794" y="0" type="line"/>
      <point x="794" y="93" type="line"/>
      <point x="672" y="93"/>
      <point x="644" y="100"/>
      <point x="626" y="123" type="curve" smooth="yes"/>
      <point x="610" y="143"/>
      <point x="609" y="150"/>
      <point x="609" y="277" type="curve" smooth="yes"/>
      <point x="609" y="1200" type="line" smooth="yes"/>
      <point x="609" y="1327"/>
      <point x="609" y="1336"/>
      <point x="624" y="1355" type="curve" smooth="yes"/>
      <point x="642" y="1377"/>
      <point x="652" y="1386"/>
      <point x="794" y="1386" type="curve"/>
      <point x="794" y="1479" type="line"/>
      <point x="99" y="1479" type="line"/>
      <point x="99" y="1386" type="line"/>
      <point x="238" y="1386"/>
      <point x="260" y="1382"/>
      <point x="278" y="1358" type="curve" smooth="yes"/>
      <point x="292" y="1340"/>
      <point x="294" y="1327"/>
      <point x="294" y="1200" type="curve" smooth="yes"/>
      <point x="294" y="277" type="line" smooth="yes"/>
      <point x="294" y="150"/>
      <point x="294" y="141"/>
      <point x="280" y="123" type="curve" smooth="yes"/>
      <point x="262" y="100"/>
      <point x="238" y="93"/>
      <point x="99" y="93" type="curve"/>
    </contour>
    <contour>
      <point x="986" y="0" type="line"/>
      <point x="1677" y="0" type="line"/>
      <point x="1677" y="93" type="line"/>
      <point x="1535" y="93"/>
      <point x="1518" y="97"/>
      <point x="1499" y="120" type="curve" smooth="yes"/>
      <point x="1485" y="137"/>
      <point x="1482" y="152"/>
      <point x="1482" y="277" type="curve" smooth="yes"/>
      <point x="1482" y="1200" type="line" smooth="yes"/>
      <point x="1482" y="1327"/>
      <point x="1484" y="1336"/>
      <point x="1498" y="1355" type="curve" smooth="yes"/>
      <point x="1516" y="1379"/>
      <point x="1538" y="1386"/>
      <point x="1677" y="1386" type="curve"/>
      <point x="1677" y="1479" type="line"/>
      <point x="982" y="1479" type="line"/>
      <point x="982" y="1386" type="line"/>
      <point x="1121" y="1386"/>
      <point x="1132" y="1380"/>
      <point x="1150" y="1356" type="curve" smooth="yes"/>
      <point x="1164" y="1338"/>
      <point x="1167" y="1329"/>
      <point x="1167" y="1200" type="curve" smooth="yes"/>
      <point x="1167" y="277" type="line" smooth="yes"/>
      <point x="1167" y="150"/>
      <point x="1167" y="140"/>
      <point x="1153" y="123" type="curve" smooth="yes"/>
      <point x="1134" y="100"/>
      <point x="1105" y="93"/>
      <point x="986" y="93" type="curve"/>
    </contour>
    <contour>
      <point x="447" y="709" type="line"/>
      <point x="1259" y="709" type="line"/>
      <point x="1259" y="829" type="line"/>
      <point x="447" y="829" type="line"/>
    </contour>
  </outline>
</glyph>
<glyph name="I" format="2">
  <advance width="902"/>
  <unicode hex="0049"/>
  <note>
I
</note>
  <anchor x="449" y="1607" name="Lupper"/>
  <outline>
    <contour>
      <point x="82" y="0" type="line"/>
      <point x="819" y="0" type="line"/>
      <point x="819" y="92" type="line"/>
      <point x="679" y="92"/>
      <point x="640" y="97"/>
      <point x="623" y="121" type="curve" smooth="yes"/>
      <point x="609" y="141"/>
      <point x="606" y="149"/>
      <point x="606" y="275" type="curve" smooth="yes"/>
      <point x="606" y="1192" type="line" smooth="yes"/>
      <point x="606" y="1318"/>
      <point x="606" y="1327"/>
      <point x="622" y="1345" type="curve" smooth="yes"/>
      <point x="641" y="1367"/>
      <point x="679" y="1375"/>
      <point x="819" y="1375" type="curve"/>
      <point x="819" y="1467" type="line"/>
      <point x="82" y="1467" type="line"/>
      <point x="82" y="1375" type="line"/>
      <point x="221" y="1375"/>
      <point x="264" y="1368"/>
      <point x="280" y="1344" type="curve" smooth="yes"/>
      <point x="294" y="1323"/>
      <point x="294" y="1314"/>
      <point x="294" y="1192" type="curve" smooth="yes"/>
      <point x="294" y="275" type="line" smooth="yes"/>
      <point x="294" y="155"/>
      <point x="294" y="142"/>
      <point x="280" y="122" type="curve" smooth="yes"/>
      <point x="264" y="99"/>
      <point x="221" y="92"/>
      <point x="82" y="92" type="curve"/>
    </contour>
  </outline>
</glyph>
<glyph name="J" format="2">
  <advance width="1316"/>
  <unicode hex="004A"/>
  <outline>
    <contour>
      <point x="547" y="-31" type="curve" smooth="yes"/>
      <point x="716" y="-31"/>
      <point x="812" y="2"/>
      <point x="915" y="87" type="curve" smooth="yes"/>
      <point x="1041" y="191"/>
      <point x="1061" y="307"/>
      <point x="1061" y="479" type="curve" smooth="yes"/>
      <point x="1061" y="1192" type="line" smooth="yes"/>
      <point x="1061" y="1320"/>
      <point x="1061" y="1329"/>
      <point x="1077" y="1347" type="curve" smooth="yes"/>
      <point x="1095" y="1368"/>
      <point x="1124" y="1375"/>
      <point x="1245" y="1375" type="curve"/>
      <point x="1245" y="1467" type="line"/>
      <point x="508" y="1467" type="line"/>
      <point x="508" y="1375" type="line"/>
      <point x="675" y="1375"/>
      <point x="714" y="1371"/>
      <point x="732" y="1347" type="curve" smooth="yes"/>
      <point x="746" y="1328"/>
      <point x="749" y="1318"/>
      <point x="749" y="1192" type="curve" smooth="yes"/>
      <point x="749" y="448" type="line" smooth="yes"/>
      <point x="749" y="331"/>
      <point x="740" y="235"/>
      <point x="697" y="177" type="curve" smooth="yes"/>
      <point x="647" y="106"/>
      <point x="588" y="70"/>
      <point x="481" y="70" type="curve" smooth="yes"/>
      <point x="355" y="70"/>
      <point x="242" y="148"/>
      <point x="242" y="227" type="curve" smooth="yes"/>
      <point x="242" y="254"/>
      <point x="253" y="261"/>
      <point x="270" y="261" type="curve" smooth="yes"/>
      <point x="292" y="261"/>
      <point x="323" y="250"/>
      <point x="357" y="250" type="curve" smooth="yes"/>
      <point x="457" y="250"/>
      <point x="511" y="331"/>
      <point x="511" y="417" type="curve" smooth="yes"/>
      <point x="511" y="512"/>
      <point x="445" y="611"/>
      <point x="309" y="611" type="curve" smooth="yes"/>
      <point x="181" y="611"/>
      <point x="82" y="498"/>
      <point x="82" y="351" type="curve" smooth="yes"/>
      <point x="82" y="143"/>
      <point x="285" y="-31"/>
    </contour>
  </outline>
</glyph>
<glyph name="K" format="2">
  <advance width="1669"/>
  <unicode hex="004B"/>
  <note>
K
</note>
  <outline>
    <contour>
      <point x="76" y="0" type="line"/>
      <point x="819" y="0" type="line"/>
      <point x="819" y="93" type="line"/>
      <point x="678" y="93"/>
      <point x="639" y="99"/>
      <point x="621" y="120" type="curve" smooth="yes"/>
      <point x="604" y="140"/>
      <point x="604" y="150"/>
      <point x="604" y="175" type="curve" smooth="yes"/>
      <point x="604" y="1272" type="line" smooth="yes"/>
      <point x="604" y="1329"/>
      <point x="604" y="1335"/>
      <point x="619" y="1355" type="curve" smooth="yes"/>
      <point x="637" y="1378"/>
      <point x="682" y="1386"/>
      <point x="823" y="1386" type="curve"/>
      <point x="823" y="1479" type="line"/>
      <point x="76" y="1479" type="line"/>
      <point x="76" y="1386" type="line"/>
      <point x="215" y="1386"/>
      <point x="256" y="1378"/>
      <point x="274" y="1355" type="curve" smooth="yes"/>
      <point x="289" y="1335"/>
      <point x="289" y="1309"/>
      <point x="289" y="1277" type="curve" smooth="yes"/>
      <point x="289" y="175" type="line" smooth="yes"/>
      <point x="289" y="150"/>
      <point x="289" y="141"/>
      <point x="272" y="121" type="curve" smooth="yes"/>
      <point x="254" y="100"/>
      <point x="215" y="93"/>
      <point x="76" y="93" type="curve"/>
    </contour>
    <contour>
      <point x="479" y="345" type="line"/>
      <point x="1235" y="1211" type="line" smooth="yes"/>
      <point x="1362" y="1356"/>
      <point x="1445" y="1378"/>
      <point x="1580" y="1386" type="curve"/>
      <point x="1580" y="1479" type="line"/>
      <point x="970" y="1479" type="line"/>
      <point x="970" y="1386" type="line"/>
      <point x="1026" y="1386" type="line" smooth="yes"/>
      <point x="1104" y="1386"/>
      <point x="1138" y="1358"/>
      <point x="1138" y="1314" type="curve" smooth="yes"/>
      <point x="1138" y="1279"/>
      <point x="1114" y="1233"/>
      <point x="1072" y="1184" type="curve" smooth="yes"/>
      <point x="479" y="504" type="line"/>
    </contour>
    <contour>
      <point x="939" y="0" type="line"/>
      <point x="1659" y="0" type="line"/>
      <point x="1659" y="93" type="line"/>
      <point x="1520" y="93"/>
      <point x="1483" y="117"/>
      <point x="1421" y="221" type="curve" smooth="yes"/>
      <point x="972" y="982" type="line"/>
      <point x="776" y="736" type="line"/>
      <point x="1099" y="190" type="line" smooth="yes"/>
      <point x="1106" y="179"/>
      <point x="1113" y="159"/>
      <point x="1113" y="144" type="curve" smooth="yes"/>
      <point x="1113" y="94"/>
      <point x="1037" y="93"/>
      <point x="939" y="93" type="curve"/>
    </contour>
  </outline>
</glyph>
<glyph name="L" format="2">
  <advance width="1467"/>
  <unicode hex="004C"/>
  <note>
L
</note>
  <outline>
    <contour>
      <point x="83" y="0" type="line"/>
      <point x="1385" y="0" type="line"/>
      <point x="1409" y="546" type="line"/>
      <point x="1322" y="546" type="line"/>
      <point x="1239" y="246"/>
      <point x="1111" y="90"/>
      <point x="932" y="90" type="curve" smooth="yes"/>
      <point x="730" y="90" type="line" smooth="yes"/>
      <point x="644" y="90"/>
      <point x="607" y="124"/>
      <point x="607" y="204" type="curve" smooth="yes"/>
      <point x="607" y="1271" type="line" smooth="yes"/>
      <point x="607" y="1313"/>
      <point x="607" y="1323"/>
      <point x="621" y="1344" type="curve" smooth="yes"/>
      <point x="637" y="1368"/>
      <point x="677" y="1375"/>
      <point x="834" y="1375" type="curve"/>
      <point x="834" y="1467" type="line"/>
      <point x="83" y="1467" type="line"/>
      <point x="83" y="1375" type="line"/>
      <point x="223" y="1375"/>
      <point x="257" y="1372"/>
      <point x="278" y="1349" type="curve" smooth="yes"/>
      <point x="294" y="1331"/>
      <point x="295" y="1318"/>
      <point x="295" y="1271" type="curve" smooth="yes"/>
      <point x="295" y="197" type="line" smooth="yes"/>
      <point x="295" y="154"/>
      <point x="293" y="136"/>
      <point x="276" y="117" type="curve" smooth="yes"/>
      <point x="257" y="96"/>
      <point x="221" y="92"/>
      <point x="83" y="92" type="curve"/>
    </contour>
  </outline>
</glyph>
<glyph name="M" format="2">
  <advance width="2009"/>
  <unicode hex="004D"/>
  <guideline x="963" y="1344" angle="0"/>
  <outline>
    <contour>
      <point x="45" y="0" type="line"/>
      <point x="608" y="0" type="line"/>
      <point x="608" y="92" type="line"/>
      <point x="411" y="92"/>
      <point x="383" y="128"/>
      <point x="383" y="292" type="curve" smooth="yes"/>
      <point x="383" y="1408" type="line"/>
      <point x="354" y="1445" type="line"/>
      <point x="866" y="0" type="line"/>
      <point x="963" y="0" type="line"/>
      <point x="1451" y="1436" type="line"/>
      <point x="1427" y="1429" type="line"/>
      <point x="1427" y="217" type="line" smooth="yes"/>
      <point x="1427" y="161"/>
      <point x="1422" y="137"/>
      <point x="1410" y="121" type="curve" smooth="yes"/>
      <point x="1394" y="100"/>
      <point x="1374" y="93"/>
      <point x="1220" y="93" type="curve"/>
      <point x="1220" y="0" type="line"/>
      <point x="1949" y="0" type="line"/>
      <point x="1949" y="94" type="line"/>
      <point x="1795" y="94"/>
      <point x="1771" y="101"/>
      <point x="1757" y="123" type="curve" smooth="yes"/>
      <point x="1745" y="142"/>
      <point x="1742" y="158"/>
      <point x="1742" y="218" type="curve" smooth="yes"/>
      <point x="1742" y="1272" type="line" smooth="yes"/>
      <point x="1742" y="1365"/>
      <point x="1765" y="1386"/>
      <point x="1949" y="1386" type="curve"/>
      <point x="1949" y="1479" type="line"/>
      <point x="1345" y="1479" type="line"/>
      <point x="972" y="382" type="line"/>
      <point x="1022" y="441" type="line"/>
      <point x="654" y="1479" type="line"/>
      <point x="60" y="1479" type="line"/>
      <point x="60" y="1386" type="line"/>
      <point x="203" y="1386"/>
      <point x="227" y="1383"/>
      <point x="240" y="1367" type="curve" smooth="yes"/>
      <point x="251" y="1354"/>
      <point x="267" y="1321"/>
      <point x="267" y="1272" type="curve" smooth="yes"/>
      <point x="267" y="304" type="line" smooth="yes"/>
      <point x="267" y="152"/>
      <point x="224" y="93"/>
      <point x="45" y="93" type="curve"/>
    </contour>
  </outline>
</glyph>
<glyph name="N" format="2">
  <advance width="1706"/>
  <unicode hex="004E"/>
  <note>
N
</note>
  <guideline x="854" y="607" angle="307.2079"/>
  <anchor x="882" y="1620" name="Lupper"/>
  <outline>
    <contour>
      <point x="1386" y="391" type="line"/>
      <point x="561" y="1479" type="line"/>
      <point x="97" y="1479" type="line"/>
      <point x="97" y="1386" type="line"/>
      <point x="230" y="1386"/>
      <point x="286" y="1358"/>
      <point x="320" y="1310" type="curve"/>
      <point x="320" y="296" type="line" smooth="yes"/>
      <point x="320" y="162"/>
      <point x="279" y="93"/>
      <point x="99" y="93" type="curve"/>
      <point x="99" y="0" type="line"/>
      <point x="661" y="0" type="line"/>
      <point x="661" y="93" type="line"/>
      <point x="471" y="93"/>
      <point x="436" y="162"/>
      <point x="436" y="296" type="curve" smooth="yes"/>
      <point x="436" y="1230" type="line"/>
      <point x="382" y="1228" type="line"/>
      <point x="1325" y="-14" type="line"/>
      <point x="1441" y="-14" type="line"/>
      <point x="1441" y="1182" type="line" smooth="yes"/>
      <point x="1441" y="1326"/>
      <point x="1488" y="1386"/>
      <point x="1666" y="1386" type="curve"/>
      <point x="1666" y="1479" type="line"/>
      <point x="1104" y="1479" type="line"/>
      <point x="1104" y="1386" type="line"/>
      <point x="1281" y="1386"/>
      <point x="1325" y="1326"/>
      <point x="1325" y="1182" type="curve" smooth="yes"/>
      <point x="1325" y="391" type="line"/>
    </contour>
  </outline>
</glyph>
<glyph name="O" format="2">
  <advance width="1706"/>
  <unicode hex="004F"/>
  <anchor x="854" y="1620" name="Lupper"/>
  <outline>
    <contour>
      <point x="844" y="-31" type="curve" smooth="yes"/>
      <point x="1381" y="-31"/>
      <point x="1606" y="347"/>
      <point x="1606" y="719" type="curve" smooth="yes"/>
      <point x="1606" y="1090"/>
      <point x="1375" y="1509"/>
      <point x="854" y="1509" type="curve" smooth="yes"/>
      <point x="325" y="1509"/>
      <point x="100" y="1082"/>
      <point x="100" y="717" type="curve" smooth="yes"/>
      <point x="100" y="283"/>
      <point x="399" y="-31"/>
    </contour>
    <contour>
      <point x="856" y="70" type="curve" smooth="yes"/>
      <point x="550" y="70"/>
      <point x="454" y="432"/>
      <point x="454" y="736" type="curve" smooth="yes"/>
      <point x="454" y="1081"/>
      <point x="549" y="1413"/>
      <point x="856" y="1413" type="curve" smooth="yes"/>
      <point x="1151" y="1413"/>
      <point x="1252" y="1042"/>
      <point x="1252" y="717" type="curve" smooth="yes"/>
      <point x="1252" y="271"/>
      <point x="1090" y="70"/>
    </contour>
  </outline>
</glyph>
<glyph name="P" format="2">
  <advance width="1554"/>
  <unicode hex="0050"/>
  <outline>
    <contour>
      <point x="129" y="0" type="line"/>
      <point x="886" y="0" type="line"/>
      <point x="886" y="93" type="line"/>
      <point x="731" y="93"/>
      <point x="690" y="101"/>
      <point x="671" y="121" type="curve"/>
      <point x="657" y="144"/>
      <point x="657" y="153"/>
      <point x="657" y="277" type="curve" smooth="yes"/>
      <point x="657" y="1263" type="line" smooth="yes"/>
      <point x="657" y="1351"/>
      <point x="687" y="1386"/>
      <point x="819" y="1386" type="curve" smooth="yes"/>
      <point x="885" y="1386" type="line" smooth="yes"/>
      <point x="1032" y="1386"/>
      <point x="1131" y="1274"/>
      <point x="1131" y="1089" type="curve" smooth="yes"/>
      <point x="1131" y="834"/>
      <point x="1020" y="748"/>
      <point x="847" y="748" type="curve" smooth="yes"/>
      <point x="605" y="748" type="line"/>
      <point x="605" y="655" type="line"/>
      <point x="940" y="655" type="line" smooth="yes"/>
      <point x="1228" y="655"/>
      <point x="1481" y="780"/>
      <point x="1481" y="1067" type="curve" smooth="yes"/>
      <point x="1481" y="1404"/>
      <point x="1219" y="1479"/>
      <point x="992" y="1479" type="curve" smooth="yes"/>
      <point x="129" y="1479" type="line"/>
      <point x="129" y="1386" type="line"/>
      <point x="268" y="1386"/>
      <point x="303" y="1386"/>
      <point x="324" y="1363" type="curve" smooth="yes"/>
      <point x="342" y="1343"/>
      <point x="342" y="1329"/>
      <point x="342" y="1202" type="curve" smooth="yes"/>
      <point x="342" y="277" type="line" smooth="yes"/>
      <point x="342" y="156"/>
      <point x="335" y="136"/>
      <point x="321" y="117" type="curve"/>
      <point x="302" y="98"/>
      <point x="268" y="93"/>
      <point x="129" y="93" type="curve"/>
    </contour>
  </outline>
</glyph>
<glyph name="Q" format="2">
  <advance width="1706"/>
  <unicode hex="0051"/>
  <outline>
    <component base="O"/>
    <contour>
      <point x="1343" y="-397" type="curve" smooth="yes"/>
      <point x="1533" y="-397"/>
      <point x="1653" y="-262"/>
      <point x="1653" y="-49" type="curve"/>
      <point x="1564" y="-49" type="line"/>
      <point x="1555" y="-150"/>
      <point x="1527" y="-195"/>
      <point x="1464" y="-195" type="curve" smooth="yes"/>
      <point x="1225" y="-195"/>
      <point x="1346" y="582"/>
      <point x="843" y="582" type="curve" smooth="yes"/>
      <point x="671" y="582"/>
      <point x="538" y="461"/>
      <point x="538" y="291" type="curve" smooth="yes"/>
      <point x="538" y="214"/>
      <point x="580" y="79"/>
      <point x="679" y="62" type="curve"/>
      <point x="710" y="94" type="line"/>
      <point x="652" y="127"/>
      <point x="632" y="188"/>
      <point x="632" y="258" type="curve" smooth="yes"/>
      <point x="632" y="379"/>
      <point x="716" y="465"/>
      <point x="823" y="465" type="curve" smooth="yes"/>
      <point x="955" y="465"/>
      <point x="1015" y="372"/>
      <point x="1015" y="176" type="curve" smooth="yes"/>
      <point x="1015" y="128"/>
      <point x="1012" y="73"/>
      <point x="1007" y="11" type="curve"/>
      <point x="1007" y="-235"/>
      <point x="1104" y="-397"/>
    </contour>
  </outline>
</glyph>
<glyph name="R" format="2">
  <advance width="1669"/>
  <unicode hex="0052"/>
  <outline>
    <contour>
      <point x="1305" y="-27" type="curve" smooth="yes"/>
      <point x="1526" y="-27"/>
      <point x="1603" y="92"/>
      <point x="1613" y="336" type="curve"/>
      <point x="1523" y="336" type="line"/>
      <point x="1513" y="207"/>
      <point x="1489" y="154"/>
      <point x="1427" y="154" type="curve" smooth="yes"/>
      <point x="1378" y="154"/>
      <point x="1331" y="296"/>
      <point x="1306" y="403" type="curve" smooth="yes"/>
      <point x="1264" y="582"/>
      <point x="1115" y="727"/>
      <point x="914" y="761" type="curve"/>
      <point x="900" y="739" type="line"/>
      <point x="1169" y="760"/>
      <point x="1444" y="851"/>
      <point x="1444" y="1108" type="curve" smooth="yes"/>
      <point x="1444" y="1406"/>
      <point x="1218" y="1479"/>
      <point x="915" y="1479" type="curve" smooth="yes"/>
      <point x="111" y="1479" type="line"/>
      <point x="111" y="1386" type="line"/>
      <point x="252" y="1386"/>
      <point x="291" y="1378"/>
      <point x="310" y="1357" type="curve"/>
      <point x="324" y="1341"/>
      <point x="324" y="1316"/>
      <point x="324" y="1252" type="curve" smooth="yes"/>
      <point x="324" y="219" type="line" smooth="yes"/>
      <point x="324" y="152"/>
      <point x="324" y="141"/>
      <point x="310" y="123" type="curve" smooth="yes"/>
      <point x="292" y="99"/>
      <point x="250" y="93"/>
      <point x="111" y="93" type="curve"/>
      <point x="111" y="0" type="line"/>
      <point x="876" y="0" type="line"/>
      <point x="876" y="93" type="line"/>
      <point x="714" y="93"/>
      <point x="669" y="100"/>
      <point x="653" y="123" type="curve" smooth="yes"/>
      <point x="641" y="141"/>
      <point x="639" y="152"/>
      <point x="639" y="219" type="curve" smooth="yes"/>
      <point x="639" y="1257" type="line" smooth="yes"/>
      <point x="639" y="1356"/>
      <point x="673" y="1388"/>
      <point x="784" y="1388" type="curve" smooth="yes"/>
      <point x="833" y="1388" type="line" smooth="yes"/>
      <point x="1026" y="1388"/>
      <point x="1094" y="1284"/>
      <point x="1094" y="1096" type="curve" smooth="yes"/>
      <point x="1094" y="889"/>
      <point x="978" y="811"/>
      <point x="775" y="811" type="curve" smooth="yes"/>
      <point x="571" y="811" type="line"/>
      <point x="571" y="718" type="line"/>
      <point x="757" y="718" type="line" smooth="yes"/>
      <point x="873" y="718"/>
      <point x="934" y="649"/>
      <point x="989" y="406" type="curve" smooth="yes"/>
      <point x="1024" y="252"/>
      <point x="1035" y="209"/>
      <point x="1056" y="154" type="curve" smooth="yes"/>
      <point x="1105" y="27"/>
      <point x="1165" y="-27"/>
    </contour>
  </outline>
</glyph>
<glyph name="S" format="2">
  <advance width="1355"/>
  <unicode hex="0053"/>
  <anchor x="678" y="1607" name="Lupper"/>
  <outline>
    <contour>
      <point x="1181" y="968" type="line"/>
      <point x="1164" y="1481" type="line"/>
      <point x="1094" y="1481" type="line"/>
      <point x="991" y="1328" type="line"/>
      <point x="1049" y="1328" type="line"/>
      <point x="921" y="1425"/>
      <point x="786" y="1497"/>
      <point x="634" y="1497" type="curve" smooth="yes"/>
      <point x="301" y="1497"/>
      <point x="105" y="1327"/>
      <point x="105" y="1044" type="curve" smooth="yes"/>
      <point x="105" y="796"/>
      <point x="289" y="665"/>
      <point x="607" y="610" type="curve" smooth="yes"/>
      <point x="833" y="570"/>
      <point x="1042" y="531"/>
      <point x="1042" y="326" type="curve" smooth="yes"/>
      <point x="1042" y="171"/>
      <point x="897" y="70"/>
      <point x="730" y="70" type="curve" smooth="yes"/>
      <point x="430" y="70"/>
      <point x="272" y="226"/>
      <point x="174" y="531" type="curve"/>
      <point x="79" y="531" type="line"/>
      <point x="87" y="-14" type="line"/>
      <point x="162" y="-14" type="line"/>
      <point x="312" y="170" type="line"/>
      <point x="235" y="170" type="line"/>
      <point x="368" y="23"/>
      <point x="572" y="-31"/>
      <point x="740" y="-31" type="curve" smooth="yes"/>
      <point x="1036" y="-31"/>
      <point x="1262" y="172"/>
      <point x="1262" y="453" type="curve" smooth="yes"/>
      <point x="1262" y="713"/>
      <point x="1051" y="840"/>
      <point x="802" y="888" type="curve" smooth="yes"/>
      <point x="610" y="924"/>
      <point x="314" y="985"/>
      <point x="314" y="1180" type="curve" smooth="yes"/>
      <point x="314" y="1304"/>
      <point x="448" y="1405"/>
      <point x="628" y="1405" type="curve" smooth="yes"/>
      <point x="829" y="1405"/>
      <point x="986" y="1258"/>
      <point x="1092" y="968" type="curve"/>
    </contour>
  </outline>
</glyph>
<glyph name="T" format="2">
  <advance width="1467"/>
  <unicode hex="0054"/>
  <outline>
    <contour>
      <point x="355" y="0" type="line"/>
      <point x="1122" y="0" type="line"/>
      <point x="1122" y="92" type="line"/>
      <point x="967" y="92"/>
      <point x="933" y="94"/>
      <point x="915" y="115" type="curve" smooth="yes"/>
      <point x="901" y="133"/>
      <point x="895" y="151"/>
      <point x="895" y="205" type="curve" smooth="yes"/>
      <point x="895" y="1289" type="line" smooth="yes"/>
      <point x="895" y="1357"/>
      <point x="916" y="1371"/>
      <point x="977" y="1371" type="curve" smooth="yes"/>
      <point x="1190" y="1371"/>
      <point x="1286" y="1129"/>
      <point x="1324" y="916" type="curve"/>
      <point x="1416" y="916" type="line"/>
      <point x="1386" y="1467" type="line"/>
      <point x="90" y="1467" type="line"/>
      <point x="60" y="916" type="line"/>
      <point x="153" y="916" type="line"/>
      <point x="191" y="1135"/>
      <point x="291" y="1371"/>
      <point x="499" y="1371" type="curve" smooth="yes"/>
      <point x="560" y="1371"/>
      <point x="582" y="1357"/>
      <point x="582" y="1289" type="curve" smooth="yes"/>
      <point x="582" y="205" type="line" smooth="yes"/>
      <point x="582" y="149"/>
      <point x="579" y="129"/>
      <point x="566" y="120" type="curve" smooth="yes"/>
      <point x="540" y="101"/>
      <point x="509" y="92"/>
      <point x="355" y="92" type="curve"/>
    </contour>
  </outline>
</glyph>
<glyph name="U" format="2">
  <advance width="1706"/>
  <unicode hex="0055"/>
  <anchor x="857" y="1620" name="Lupper"/>
  <outline>
    <contour>
      <point x="898" y="-31" type="curve" smooth="yes"/>
      <point x="1256" y="-31"/>
      <point x="1427" y="151"/>
      <point x="1427" y="433" type="curve" smooth="yes"/>
      <point x="1427" y="1152" type="line" smooth="yes"/>
      <point x="1427" y="1316"/>
      <point x="1462" y="1386"/>
      <point x="1653" y="1386" type="curve"/>
      <point x="1653" y="1479" type="line"/>
      <point x="1091" y="1479" type="line"/>
      <point x="1091" y="1386" type="line"/>
      <point x="1277" y="1386"/>
      <point x="1325" y="1316"/>
      <point x="1325" y="1152" type="curve" smooth="yes"/>
      <point x="1325" y="450" type="line" smooth="yes"/>
      <point x="1325" y="183"/>
      <point x="1171" y="83"/>
      <point x="942" y="83" type="curve" smooth="yes"/>
      <point x="679" y="83"/>
      <point x="589" y="265"/>
      <point x="589" y="473" type="curve" smooth="yes"/>
      <point x="589" y="1242" type="line" smooth="yes"/>
      <point x="589" y="1329"/>
      <point x="589" y="1335"/>
      <point x="604" y="1355" type="curve" smooth="yes"/>
      <point x="622" y="1378"/>
      <point x="676" y="1386"/>
      <point x="817" y="1386" type="curve"/>
      <point x="817" y="1479" type="line"/>
      <point x="61" y="1479" type="line"/>
      <point x="61" y="1386" type="line"/>
      <point x="200" y="1386"/>
      <point x="241" y="1378"/>
      <point x="259" y="1355" type="curve" smooth="yes"/>
      <point x="274" y="1335"/>
      <point x="274" y="1329"/>
      <point x="274" y="1242" type="curve" smooth="yes"/>
      <point x="274" y="445" type="line" smooth="yes"/>
      <point x="274" y="148"/>
      <point x="489" y="-31"/>
    </contour>
  </outline>
</glyph>
<glyph name="V" format="2">
  <advance width="1554"/>
  <unicode hex="0056"/>
  <note>
V
</note>
  <outline>
    <contour>
      <point x="708" y="-31" type="line"/>
      <point x="829" y="-31" type="line"/>
      <point x="1298" y="1126" type="line" smooth="yes"/>
      <point x="1363" y="1287"/>
      <point x="1435" y="1386"/>
      <point x="1580" y="1386" type="curve"/>
      <point x="1580" y="1479" type="line"/>
      <point x="987" y="1479" type="line"/>
      <point x="987" y="1386" type="line"/>
      <point x="1049" y="1386" type="line"/>
      <point x="1150" y="1386"/>
      <point x="1223" y="1363"/>
      <point x="1223" y="1262" type="curve" smooth="yes"/>
      <point x="1223" y="1233"/>
      <point x="1213" y="1196"/>
      <point x="1186" y="1130" type="curve" smooth="yes"/>
      <point x="821" y="234" type="line"/>
      <point x="914" y="234" type="line"/>
      <point x="494" y="1267" type="line" smooth="yes"/>
      <point x="482" y="1296"/>
      <point x="477" y="1317"/>
      <point x="477" y="1334" type="curve" smooth="yes"/>
      <point x="477" y="1378"/>
      <point x="517" y="1386"/>
      <point x="603" y="1386" type="curve" smooth="yes"/>
      <point x="681" y="1386" type="line"/>
      <point x="681" y="1479" type="line"/>
      <point x="-30" y="1479" type="line"/>
      <point x="-30" y="1386" type="line"/>
      <point x="110" y="1386"/>
      <point x="144" y="1361"/>
      <point x="191" y="1245" type="curve" smooth="yes"/>
    </contour>
  </outline>
</glyph>
<glyph name="W" format="2">
  <advance width="1993"/>
  <unicode hex="0057"/>
  <outline>
    <contour>
      <point x="1325" y="-31" type="line"/>
      <point x="1452" y="-31" type="line"/>
      <point x="1806" y="1101" type="line" smooth="yes"/>
      <point x="1861" y="1276"/>
      <point x="1921" y="1375"/>
      <point x="2045" y="1375" type="curve"/>
      <point x="2045" y="1467" type="line"/>
      <point x="1567" y="1467" type="line"/>
      <point x="1567" y="1375" type="line"/>
      <point x="1626" y="1375"/>
      <point x="1641" y="1374"/>
      <point x="1666" y="1362" type="curve" smooth="yes"/>
      <point x="1709" y="1341"/>
      <point x="1730" y="1300"/>
      <point x="1730" y="1252" type="curve" smooth="yes"/>
      <point x="1730" y="1223"/>
      <point x="1726" y="1194"/>
      <point x="1703" y="1121" type="curve" smooth="yes"/>
      <point x="1443" y="289" type="line"/>
      <point x="1510" y="336" type="line"/>
      <point x="1202" y="1265" type="line" smooth="yes"/>
      <point x="1191" y="1297"/>
      <point x="1190" y="1307"/>
      <point x="1190" y="1320" type="curve" smooth="yes"/>
      <point x="1190" y="1345"/>
      <point x="1200" y="1362"/>
      <point x="1233" y="1370" type="curve" smooth="yes"/>
      <point x="1251" y="1374"/>
      <point x="1326" y="1375"/>
      <point x="1360" y="1375" type="curve"/>
      <point x="1360" y="1467" type="line"/>
      <point x="693" y="1467" type="line"/>
      <point x="693" y="1375" type="line"/>
      <point x="773" y="1375"/>
      <point x="859" y="1365"/>
      <point x="882" y="1295" type="curve" smooth="yes"/>
    </contour>
    <contour>
      <point x="502" y="-31" type="line"/>
      <point x="629" y="-31" type="line"/>
      <point x="1012" y="1099" type="line"/>
      <point x="983" y="1331" type="line"/>
      <point x="628" y="294" type="line"/>
      <point x="683" y="356" type="line"/>
      <point x="395" y="1255" type="line" smooth="yes"/>
      <point x="386" y="1282"/>
      <point x="378" y="1303"/>
      <point x="378" y="1322" type="curve" smooth="yes"/>
      <point x="378" y="1358"/>
      <point x="402" y="1375"/>
      <point x="458" y="1375" type="curve" smooth="yes"/>
      <point x="518" y="1375" type="line"/>
      <point x="518" y="1467" type="line"/>
      <point x="-67" y="1467" type="line"/>
      <point x="-67" y="1375" type="line"/>
      <point x="29" y="1375"/>
      <point x="55" y="1360"/>
      <point x="87" y="1257" type="curve" smooth="yes"/>
    </contour>
  </outline>
</glyph>
<glyph name="X" format="2">
  <advance width="1479"/>
  <unicode hex="0058"/>
  <outline>
    <contour>
      <point x="795" y="0" type="line"/>
      <point x="1502" y="0" type="line"/>
      <point x="1502" y="93" type="line"/>
      <point x="1395" y="93"/>
      <point x="1356" y="136"/>
      <point x="1235" y="299" type="curve" smooth="yes"/>
      <point x="527" y="1257" type="line" smooth="yes"/>
      <point x="501" y="1293"/>
      <point x="489" y="1319"/>
      <point x="489" y="1337" type="curve" smooth="yes"/>
      <point x="489" y="1381"/>
      <point x="554" y="1386"/>
      <point x="657" y="1386" type="curve"/>
      <point x="657" y="1479" type="line"/>
      <point x="-73" y="1479" type="line"/>
      <point x="-73" y="1386" type="line"/>
      <point x="48" y="1386"/>
      <point x="85" y="1363"/>
      <point x="144" y="1282" type="curve" smooth="yes"/>
      <point x="934" y="211" type="line" smooth="yes"/>
      <point x="952" y="186"/>
      <point x="960" y="166"/>
      <point x="960" y="150" type="curve" smooth="yes"/>
      <point x="960" y="112"/>
      <point x="912" y="93"/>
      <point x="836" y="93" type="curve"/>
      <point x="795" y="93" type="line"/>
    </contour>
    <contour>
      <point x="-65" y="0" type="line"/>
      <point x="551" y="0" type="line"/>
      <point x="551" y="93" type="line"/>
      <point x="396" y="93"/>
      <point x="362" y="127"/>
      <point x="362" y="199" type="curve" smooth="yes"/>
      <point x="362" y="232"/>
      <point x="376" y="268"/>
      <point x="403" y="301" type="curve" smooth="yes"/>
      <point x="702" y="667" type="line"/>
      <point x="812" y="759" type="line"/>
      <point x="1195" y="1228" type="line" smooth="yes"/>
      <point x="1295" y="1350"/>
      <point x="1389" y="1386"/>
      <point x="1495" y="1386" type="curve"/>
      <point x="1495" y="1479" type="line"/>
      <point x="876" y="1479" type="line"/>
      <point x="876" y="1386" type="line"/>
      <point x="1005" y="1386"/>
      <point x="1060" y="1349"/>
      <point x="1060" y="1282" type="curve" smooth="yes"/>
      <point x="1060" y="1249"/>
      <point x="1043" y="1215"/>
      <point x="991" y="1151" type="curve" smooth="yes"/>
      <point x="761" y="869" type="line"/>
      <point x="638" y="761" type="line"/>
      <point x="243" y="277" type="line" smooth="yes"/>
      <point x="127" y="134"/>
      <point x="54" y="93"/>
      <point x="-65" y="93" type="curve"/>
    </contour>
  </outline>
</glyph>
<glyph name="Y" format="2">
  <advance width="1479"/>
  <unicode hex="0059"/>
  <note>
Y
</note>
  <anchor x="824" y="1620" name="Lupper"/>
  <outline>
    <contour>
      <point x="1085" y="1170" type="curve" smooth="yes"/>
      <point x="807" y="637" type="line"/>
      <point x="887" y="691" type="line"/>
      <point x="556" y="1278" type="line" smooth="yes"/>
      <point x="540" y="1307"/>
      <point x="532" y="1328"/>
      <point x="532" y="1343" type="curve" smooth="yes"/>
      <point x="532" y="1379"/>
      <point x="572" y="1386"/>
      <point x="646" y="1386" type="curve" smooth="yes"/>
      <point x="729" y="1386" type="line"/>
      <point x="729" y="1479" type="line"/>
      <point x="-5" y="1479" type="line"/>
      <point x="-5" y="1386" type="line"/>
      <point x="88" y="1386"/>
      <point x="161" y="1374"/>
      <point x="214" y="1281" type="curve" smooth="yes"/>
      <point x="612" y="585" type="line"/>
      <point x="612" y="197" type="line" smooth="yes"/>
      <point x="612" y="150"/>
      <point x="611" y="137"/>
      <point x="598" y="123" type="curve" smooth="yes"/>
      <point x="578" y="101"/>
      <point x="518" y="93"/>
      <point x="363" y="93" type="curve"/>
      <point x="363" y="0" type="line"/>
      <point x="1176" y="0" type="line"/>
      <point x="1176" y="93" type="line"/>
      <point x="1030" y="93"/>
      <point x="971" y="93"/>
      <point x="941" y="123" type="curve" smooth="yes"/>
      <point x="928" y="136"/>
      <point x="927" y="150"/>
      <point x="927" y="197" type="curve" smooth="yes"/>
      <point x="927" y="640" type="line"/>
      <point x="1218" y="1196" type="line" smooth="yes"/>
      <point x="1289" y="1332"/>
      <point x="1371" y="1386"/>
      <point x="1485" y="1386" type="curve"/>
      <point x="1485" y="1479" type="line"/>
      <point x="914" y="1479" type="line"/>
      <point x="914" y="1386" type="line"/>
      <point x="990" y="1386" type="line" smooth="yes"/>
      <point x="1080" y="1386"/>
      <point x="1127" y="1345"/>
      <point x="1127" y="1288" type="curve" smooth="yes"/>
      <point x="1127" y="1263"/>
      <point x="1114" y="1225"/>
    </contour>
  </outline>
</glyph>
<glyph name="Z" format="2">
  <advance width="1366"/>
  <unicode hex="005A"/>
  <note>
Z
</note>
  <guideline x="689" y="1386" angle="90"/>
  <anchor x="689" y="1620" name="Lupper"/>
  <outline>
    <contour>
      <point x="1265" y="1370" type="line"/>
      <point x="1265" y="1479" type="line"/>
      <point x="162" y="1479" type="line"/>
      <point x="130" y="963" type="line"/>
      <point x="223" y="963" type="line"/>
      <point x="270" y="1246"/>
      <point x="403" y="1386"/>
      <point x="647" y="1386" type="curve" smooth="yes"/>
      <point x="976" y="1386" type="line"/>
      <point x="976" y="1469" type="line"/>
      <point x="79" y="116" type="line"/>
      <point x="79" y="0" type="line"/>
      <point x="1264" y="0" type="line"/>
      <point x="1292" y="565" type="line"/>
      <point x="1199" y="565" type="line"/>
      <point x="1148" y="276"/>
      <point x="998" y="93"/>
      <point x="768" y="93" type="curve" smooth="yes"/>
      <point x="375" y="93" type="line"/>
      <point x="382" y="40" type="line"/>
    </contour>
  </outline>
</glyph>
<glyph name="bracketleft" format="2">
  <advance width="790"/>
  <unicode hex="005B"/>
  <note>
bracketleft
</note>
  <outline>
    <contour>
      <point x="171" y="-219" type="line"/>
      <point x="698" y="-219" type="line"/>
      <point x="698" y="-118" type="line"/>
      <point x="495" y="-118" type="line"/>
      <point x="473" y="-118"/>
      <point x="430" y="-79"/>
      <point x="430" y="-39" type="curve"/>
      <point x="430" y="1283" type="line"/>
      <point x="430" y="1324"/>
      <point x="463" y="1365"/>
      <point x="490" y="1365" type="curve"/>
      <point x="698" y="1365" type="line"/>
      <point x="698" y="1467" type="line"/>
      <point x="171" y="1467" type="line"/>
    </contour>
  </outline>
</glyph>
<glyph name="backslash" format="2">
  <advance width="1231"/>
  <unicode hex="005C"/>
  <note>
backslash
</note>
  <outline>
    <contour>
      <point x="1085" y="-31" type="line"/>
      <point x="327" y="1497" type="line"/>
      <point x="146" y="1497" type="line"/>
      <point x="904" y="-31" type="line"/>
    </contour>
  </outline>
</glyph>
<glyph name="bracketright" format="2">
  <advance width="797"/>
  <unicode hex="005D"/>
  <note>
bracketright
</note>
  <outline>
    <contour>
      <point x="625" y="1479" type="line"/>
      <point x="93" y="1479" type="line"/>
      <point x="93" y="1377" type="line"/>
      <point x="298" y="1377" type="line"/>
      <point x="320" y="1377"/>
      <point x="363" y="1338"/>
      <point x="363" y="1297" type="curve"/>
      <point x="363" y="-36" type="line"/>
      <point x="363" y="-77"/>
      <point x="330" y="-118"/>
      <point x="303" y="-118" type="curve"/>
      <point x="93" y="-118" type="line"/>
      <point x="93" y="-221" type="line"/>
      <point x="625" y="-221" type="line"/>
    </contour>
  </outline>
</glyph>
<glyph name="asciicircum" format="2">
  <advance width="1231"/>
  <unicode hex="005E"/>
  <note>
asciicircum
</note>
  <outline>
    <contour>
      <point x="927" y="646" type="line"/>
      <point x="1126" y="646" type="line"/>
      <point x="703" y="1467" type="line"/>
      <point x="531" y="1467" type="line"/>
      <point x="105" y="646" type="line"/>
      <point x="303" y="646" type="line"/>
      <point x="642" y="1278" type="line"/>
      <point x="594" y="1278" type="line"/>
    </contour>
  </outline>
</glyph>
<glyph name="underscore" format="2">
  <advance width="1016"/>
  <unicode hex="005F"/>
  <note>
underscore
</note>
  <outline>
    <contour>
      <point x="1016" y="-132" type="line"/>
      <point x="0" y="-132" type="line"/>
      <point x="0" y="-326" type="line"/>
      <point x="1016" y="-326" type="line"/>
    </contour>
  </outline>
</glyph>
<glyph name="a" format="2">
  <advance width="1251"/>
  <unicode hex="0061"/>
  <anchor x="597" y="1100" name="Lupper"/>
  <outline>
    <contour>
      <point x="600" y="979" type="curve" smooth="yes"/>
      <point x="317" y="979"/>
      <point x="169" y="860"/>
      <point x="169" y="724" type="curve" smooth="yes"/>
      <point x="169" y="642"/>
      <point x="225" y="590"/>
      <point x="315" y="590" type="curve" smooth="yes"/>
      <point x="392" y="590"/>
      <point x="452" y="651"/>
      <point x="452" y="717" type="curve" smooth="yes"/>
      <point x="452" y="749"/>
      <point x="448" y="763"/>
      <point x="423" y="800" type="curve" smooth="yes"/>
      <point x="412" y="816"/>
      <point x="411" y="824"/>
      <point x="411" y="839" type="curve" smooth="yes"/>
      <point x="411" y="870"/>
      <point x="478" y="894"/>
      <point x="560" y="894" type="curve" smooth="yes"/>
      <point x="623" y="894"/>
      <point x="683" y="874"/>
      <point x="713" y="843" type="curve" smooth="yes"/>
      <point x="741" y="815"/>
      <point x="759" y="765"/>
      <point x="759" y="698" type="curve" smooth="yes"/>
      <point x="759" y="364" type="line" smooth="yes"/>
      <point x="759" y="274"/>
      <point x="730" y="209"/>
      <point x="687" y="165" type="curve" smooth="yes"/>
      <point x="656" y="134"/>
      <point x="600" y="107"/>
      <point x="551" y="107" type="curve" smooth="yes"/>
      <point x="466" y="107"/>
      <point x="409" y="161"/>
      <point x="409" y="245" type="curve" smooth="yes"/>
      <point x="409" y="307"/>
      <point x="431" y="352"/>
      <point x="466" y="386" type="curve" smooth="yes"/>
      <point x="541" y="458"/>
      <point x="680" y="484"/>
      <point x="810" y="508" type="curve"/>
      <point x="810" y="598" type="line"/>
      <point x="504" y="533"/>
      <point x="427" y="512"/>
      <point x="339" y="482" type="curve" smooth="yes"/>
      <point x="180" y="428"/>
      <point x="98" y="337"/>
      <point x="98" y="205" type="curve" smooth="yes"/>
      <point x="98" y="56"/>
      <point x="213" y="-30"/>
      <point x="382" y="-30" type="curve" smooth="yes"/>
      <point x="572" y="-30"/>
      <point x="678" y="45"/>
      <point x="795" y="171" type="curve"/>
      <point x="762" y="170" type="line"/>
      <point x="789" y="59"/>
      <point x="867" y="-30"/>
      <point x="998" y="-30" type="curve" smooth="yes"/>
      <point x="1112" y="-30"/>
      <point x="1165" y="5"/>
      <point x="1218" y="41" type="curve"/>
      <point x="1175" y="112" type="line"/>
      <point x="1153" y="98"/>
      <point x="1124" y="86"/>
      <point x="1084" y="86" type="curve" smooth="yes"/>
      <point x="1036" y="86"/>
      <point x="1022" y="167"/>
      <point x="1022" y="285" type="curve" smooth="yes"/>
      <point x="1022" y="638" type="line" smooth="yes"/>
      <point x="1022" y="768"/>
      <point x="998" y="835"/>
      <point x="926" y="892" type="curve" smooth="yes"/>
      <point x="850" y="953"/>
      <point x="762" y="979"/>
    </contour>
  </outline>
</glyph>
<glyph name="b" format="2">
  <advance width="1327"/>
  <unicode hex="0062"/>
  <outline>
    <contour>
      <point x="759" y="-30" type="curve" smooth="yes"/>
      <point x="1050" y="-30"/>
      <point x="1240" y="182"/>
      <point x="1240" y="492" type="curve" smooth="yes"/>
      <point x="1240" y="777"/>
      <point x="1059" y="979"/>
      <point x="809" y="979" type="curve" smooth="yes"/>
      <point x="649" y="979"/>
      <point x="527" y="899"/>
      <point x="445" y="770" type="curve"/>
      <point x="468" y="734" type="line"/>
      <point x="463" y="1479" type="line"/>
      <point x="30" y="1449" type="line"/>
      <point x="30" y="1361" type="line"/>
      <point x="69" y="1361" type="line" smooth="yes"/>
      <point x="184" y="1361"/>
      <point x="200" y="1341"/>
      <point x="200" y="1174" type="curve" smooth="yes"/>
      <point x="200" y="414" type="line" smooth="yes"/>
      <point x="200" y="191"/>
      <point x="190" y="100"/>
      <point x="171" y="7" type="curve"/>
      <point x="246" y="-29" type="line"/>
      <point x="314" y="30"/>
      <point x="379" y="94"/>
      <point x="438" y="172" type="curve"/>
      <point x="381" y="163" type="line"/>
      <point x="484" y="27"/>
      <point x="592" y="-30"/>
    </contour>
    <contour>
      <point x="696" y="64" type="curve" smooth="yes"/>
      <point x="571" y="64"/>
      <point x="460" y="197"/>
      <point x="460" y="425" type="curve" smooth="yes"/>
      <point x="460" y="690"/>
      <point x="542" y="840"/>
      <point x="692" y="840" type="curve" smooth="yes"/>
      <point x="836" y="840"/>
      <point x="929" y="709"/>
      <point x="929" y="467" type="curve" smooth="yes"/>
      <point x="929" y="207"/>
      <point x="829" y="64"/>
    </contour>
  </outline>
</glyph>
<glyph name="c" format="2">
  <advance width="1130"/>
  <unicode hex="0063"/>
  <anchor x="591" y="0" name="Llower"/>
  <outline>
    <contour>
      <point x="1059" y="292" type="curve"/>
      <point x="985" y="331" type="line"/>
      <point x="914" y="176"/>
      <point x="792" y="74"/>
      <point x="678" y="74" type="curve" smooth="yes"/>
      <point x="492" y="74"/>
      <point x="391" y="235"/>
      <point x="391" y="482" type="curve" smooth="yes"/>
      <point x="391" y="721"/>
      <point x="474" y="888"/>
      <point x="647" y="888" type="curve" smooth="yes"/>
      <point x="745" y="888"/>
      <point x="791" y="852"/>
      <point x="791" y="820" type="curve" smooth="yes"/>
      <point x="791" y="808"/>
      <point x="784" y="797"/>
      <point x="773" y="783" type="curve" smooth="yes"/>
      <point x="754" y="758"/>
      <point x="729" y="725"/>
      <point x="729" y="666" type="curve" smooth="yes"/>
      <point x="729" y="586"/>
      <point x="803" y="535"/>
      <point x="878" y="535" type="curve" smooth="yes"/>
      <point x="952" y="535"/>
      <point x="1027" y="586"/>
      <point x="1027" y="711" type="curve" smooth="yes"/>
      <point x="1027" y="859"/>
      <point x="868" y="971"/>
      <point x="622" y="971" type="curve" smooth="yes"/>
      <point x="304" y="971"/>
      <point x="82" y="746"/>
      <point x="82" y="446" type="curve" smooth="yes"/>
      <point x="82" y="156"/>
      <point x="283" y="-30"/>
      <point x="609" y="-30" type="curve" smooth="yes"/>
      <point x="814" y="-30"/>
      <point x="981" y="95"/>
    </contour>
  </outline>
</glyph>
<glyph name="d" format="2">
  <advance width="1366"/>
  <unicode hex="0064"/>
  <outline>
    <contour>
      <point x="545" y="-30" type="curve" smooth="yes"/>
      <point x="708" y="-30"/>
      <point x="825" y="84"/>
      <point x="909" y="226" type="curve"/>
      <point x="869" y="226" type="line"/>
      <point x="874" y="161"/>
      <point x="884" y="65"/>
      <point x="897" y="0" type="curve"/>
      <point x="1308" y="23" type="line"/>
      <point x="1308" y="116" type="line"/>
      <point x="1253" y="116" type="line" smooth="yes"/>
      <point x="1149" y="116"/>
      <point x="1132" y="126"/>
      <point x="1132" y="231" type="curve" smooth="yes"/>
      <point x="1132" y="1479" type="line"/>
      <point x="672" y="1449" type="line"/>
      <point x="672" y="1361" type="line"/>
      <point x="738" y="1361" type="line" smooth="yes"/>
      <point x="850" y="1361"/>
      <point x="869" y="1345"/>
      <point x="869" y="1174" type="curve" smooth="yes"/>
      <point x="869" y="763" type="line"/>
      <point x="886" y="781" type="line"/>
      <point x="810" y="894"/>
      <point x="712" y="979"/>
      <point x="572" y="979" type="curve" smooth="yes"/>
      <point x="306" y="979"/>
      <point x="103" y="753"/>
      <point x="103" y="460" type="curve" smooth="yes"/>
      <point x="103" y="169"/>
      <point x="285" y="-30"/>
    </contour>
    <contour>
      <point x="644" y="843" type="curve" smooth="yes"/>
      <point x="781" y="843"/>
      <point x="873" y="701"/>
      <point x="873" y="475" type="curve" smooth="yes"/>
      <point x="873" y="247"/>
      <point x="747" y="115"/>
      <point x="640" y="115" type="curve" smooth="yes"/>
      <point x="499" y="115"/>
      <point x="414" y="223"/>
      <point x="414" y="464" type="curve" smooth="yes"/>
      <point x="414" y="715"/>
      <point x="503" y="843"/>
    </contour>
  </outline>
</glyph>
<glyph name="e" format="2">
  <advance width="1176"/>
  <unicode hex="0065"/>
  <anchor x="620" y="1100" name="Lupper"/>
  <outline>
    <contour>
      <point x="628" y="-30" type="curve" smooth="yes"/>
      <point x="831" y="-30"/>
      <point x="998" y="71"/>
      <point x="1099" y="252" type="curve"/>
      <point x="1029" y="304" type="line"/>
      <point x="938" y="147"/>
      <point x="813" y="75"/>
      <point x="698" y="75" type="curve" smooth="yes"/>
      <point x="487" y="75"/>
      <point x="407" y="271"/>
      <point x="407" y="482" type="curve" smooth="yes"/>
      <point x="407" y="661"/>
      <point x="434" y="895"/>
      <point x="623" y="895" type="curve" smooth="yes"/>
      <point x="739" y="895"/>
      <point x="814" y="801"/>
      <point x="814" y="632" type="curve" smooth="yes"/>
      <point x="814" y="579"/>
      <point x="785" y="548"/>
      <point x="739" y="548" type="curve" smooth="yes"/>
      <point x="318" y="548" type="line"/>
      <point x="318" y="458" type="line"/>
      <point x="1086" y="458" type="line"/>
      <point x="1086" y="792"/>
      <point x="940" y="979"/>
      <point x="616" y="979" type="curve" smooth="yes"/>
      <point x="268" y="979"/>
      <point x="96" y="720"/>
      <point x="96" y="466" type="curve" smooth="yes"/>
      <point x="96" y="176"/>
      <point x="330" y="-30"/>
    </contour>
  </outline>
</glyph>
<glyph name="f" format="2">
  <advance width="797"/>
  <unicode hex="0066"/>
  <outline>
    <contour>
      <point x="520" y="182" type="curve" smooth="yes"/>
      <point x="520" y="1071" type="line" smooth="yes"/>
      <point x="520" y="1207"/>
      <point x="528" y="1254"/>
      <point x="554" y="1301" type="curve" smooth="yes"/>
      <point x="585" y="1355"/>
      <point x="658" y="1388"/>
      <point x="710" y="1388" type="curve" smooth="yes"/>
      <point x="742" y="1388"/>
      <point x="769" y="1382"/>
      <point x="769" y="1367" type="curve" smooth="yes"/>
      <point x="769" y="1351"/>
      <point x="759" y="1343"/>
      <point x="744" y="1331" type="curve" smooth="yes"/>
      <point x="709" y="1303"/>
      <point x="690" y="1264"/>
      <point x="690" y="1226" type="curve" smooth="yes"/>
      <point x="690" y="1144"/>
      <point x="758" y="1100"/>
      <point x="826" y="1100" type="curve" smooth="yes"/>
      <point x="897" y="1100"/>
      <point x="970" y="1148"/>
      <point x="970" y="1250" type="curve" smooth="yes"/>
      <point x="970" y="1355"/>
      <point x="883" y="1481"/>
      <point x="713" y="1481" type="curve" smooth="yes"/>
      <point x="415" y="1481"/>
      <point x="257" y="1310"/>
      <point x="257" y="983" type="curve" smooth="yes"/>
      <point x="257" y="171" type="line" smooth="yes"/>
      <point x="257" y="146"/>
      <point x="253" y="131"/>
      <point x="245" y="121" type="curve" smooth="yes"/>
      <point x="230" y="104"/>
      <point x="176" y="93"/>
      <point x="86" y="93" type="curve" smooth="yes"/>
      <point x="78" y="93" type="line"/>
      <point x="78" y="0" type="line"/>
      <point x="741" y="0" type="line"/>
      <point x="741" y="93" type="line"/>
      <point x="722" y="93"/>
      <point x="704" y="93"/>
      <point x="688" y="93" type="curve" smooth="yes"/>
      <point x="543" y="93"/>
      <point x="520" y="115"/>
    </contour>
    <contour>
      <point x="89" y="829" type="line"/>
      <point x="761" y="829" type="line"/>
      <point x="761" y="935" type="line"/>
      <point x="89" y="935" type="line"/>
    </contour>
  </outline>
</glyph>
<glyph name="g" format="2">
  <advance width="1251"/>
  <unicode hex="0067"/>
  <outline>
    <contour>
      <point x="582" y="-406" type="curve" smooth="yes"/>
      <point x="963" y="-406"/>
      <point x="1145" y="-287"/>
      <point x="1145" y="-73" type="curve" smooth="yes"/>
      <point x="1145" y="40"/>
      <point x="1088" y="114"/>
      <point x="986" y="147" type="curve" smooth="yes"/>
      <point x="919" y="169"/>
      <point x="836" y="184"/>
      <point x="680" y="177" type="curve"/>
      <point x="481" y="168" type="line"/>
      <point x="363" y="163"/>
      <point x="276" y="181"/>
      <point x="276" y="236" type="curve" smooth="yes"/>
      <point x="276" y="294"/>
      <point x="322" y="322"/>
      <point x="561" y="322" type="curve" smooth="yes"/>
      <point x="733" y="322"/>
      <point x="809" y="340"/>
      <point x="887" y="385" type="curve" smooth="yes"/>
      <point x="1001" y="451"/>
      <point x="1055" y="541"/>
      <point x="1055" y="656" type="curve" smooth="yes"/>
      <point x="1055" y="881"/>
      <point x="816" y="979"/>
      <point x="588" y="979" type="curve" smooth="yes"/>
      <point x="307" y="979"/>
      <point x="134" y="835"/>
      <point x="134" y="636" type="curve" smooth="yes"/>
      <point x="134" y="488"/>
      <point x="236" y="387"/>
      <point x="411" y="341" type="curve"/>
      <point x="411" y="387" type="line"/>
      <point x="213" y="361"/>
      <point x="142" y="282"/>
      <point x="142" y="167" type="curve" smooth="yes"/>
      <point x="142" y="68"/>
      <point x="220" y="-3"/>
      <point x="370" y="-29" type="curve"/>
      <point x="362" y="-69" type="line"/>
      <point x="725" y="-59" type="line" smooth="yes"/>
      <point x="815" y="-57"/>
      <point x="984" y="-45"/>
      <point x="984" y="-175" type="curve" smooth="yes"/>
      <point x="984" y="-258"/>
      <point x="818" y="-324"/>
      <point x="575" y="-324" type="curve" smooth="yes"/>
      <point x="413" y="-324"/>
      <point x="278" y="-293"/>
      <point x="278" y="-190" type="curve" smooth="yes"/>
      <point x="278" y="-130"/>
      <point x="367" y="-78"/>
      <point x="495" y="-54" type="curve"/>
      <point x="393" y="-17" type="line"/>
      <point x="211" y="-31"/>
      <point x="101" y="-87"/>
      <point x="101" y="-194" type="curve" smooth="yes"/>
      <point x="101" y="-291"/>
      <point x="233" y="-406"/>
    </contour>
    <contour>
      <point x="592" y="406" type="curve" smooth="yes"/>
      <point x="462" y="406"/>
      <point x="426" y="539"/>
      <point x="426" y="655" type="curve" smooth="yes"/>
      <point x="426" y="803"/>
      <point x="489" y="895"/>
      <point x="594" y="895" type="curve" smooth="yes"/>
      <point x="692" y="895"/>
      <point x="763" y="795"/>
      <point x="763" y="642" type="curve" smooth="yes"/>
      <point x="763" y="498"/>
      <point x="688" y="406"/>
    </contour>
    <contour>
      <point x="1144" y="844" type="curve" smooth="yes"/>
      <point x="1194" y="844"/>
      <point x="1243" y="884"/>
      <point x="1243" y="952" type="curve" smooth="yes"/>
      <point x="1243" y="1025"/>
      <point x="1189" y="1080"/>
      <point x="1109" y="1080" type="curve" smooth="yes"/>
      <point x="1005" y="1080"/>
      <point x="935" y="1021"/>
      <point x="832" y="883" type="curve"/>
      <point x="914" y="838" type="line"/>
      <point x="952" y="909"/>
      <point x="987" y="947"/>
      <point x="1019" y="947" type="curve" smooth="yes"/>
      <point x="1025" y="947"/>
      <point x="1050" y="928"/>
      <point x="1056" y="911" type="curve" smooth="yes"/>
      <point x="1073" y="865"/>
      <point x="1109" y="844"/>
    </contour>
  </outline>
</glyph>
<glyph name="h" format="2">
  <advance width="1403"/>
  <unicode hex="0068"/>
  <outline>
    <contour>
      <point x="82" y="0" type="line"/>
      <point x="659" y="0" type="line"/>
      <point x="659" y="93" type="line"/>
      <point x="544" y="93"/>
      <point x="509" y="110"/>
      <point x="509" y="180" type="curve" smooth="yes"/>
      <point x="509" y="484" type="line" smooth="yes"/>
      <point x="509" y="574"/>
      <point x="518" y="626"/>
      <point x="540" y="674" type="curve" smooth="yes"/>
      <point x="574" y="747"/>
      <point x="616" y="823"/>
      <point x="740" y="823" type="curve" smooth="yes"/>
      <point x="854" y="823"/>
      <point x="916" y="724"/>
      <point x="916" y="596" type="curve" smooth="yes"/>
      <point x="916" y="171" type="line" smooth="yes"/>
      <point x="916" y="144"/>
      <point x="912" y="131"/>
      <point x="903" y="119" type="curve"/>
      <point x="883" y="100"/>
      <point x="834" y="93"/>
      <point x="764" y="93" type="curve"/>
      <point x="764" y="0" type="line"/>
      <point x="1341" y="0" type="line"/>
      <point x="1341" y="93" type="line"/>
      <point x="1206" y="93"/>
      <point x="1179" y="100"/>
      <point x="1179" y="180" type="curve" smooth="yes"/>
      <point x="1179" y="624" type="line" smooth="yes"/>
      <point x="1179" y="749"/>
      <point x="1158" y="825"/>
      <point x="1101" y="883" type="curve" smooth="yes"/>
      <point x="1042" y="943"/>
      <point x="984" y="979"/>
      <point x="877" y="979" type="curve" smooth="yes"/>
      <point x="707" y="979"/>
      <point x="576" y="885"/>
      <point x="491" y="733" type="curve"/>
      <point x="509" y="713" type="line"/>
      <point x="509" y="1479" type="line"/>
      <point x="76" y="1449" type="line"/>
      <point x="76" y="1361" type="line"/>
      <point x="115" y="1361" type="line" smooth="yes"/>
      <point x="222" y="1361"/>
      <point x="246" y="1333"/>
      <point x="246" y="1166" type="curve" smooth="yes"/>
      <point x="246" y="171" type="line" smooth="yes"/>
      <point x="246" y="144"/>
      <point x="242" y="131"/>
      <point x="233" y="119" type="curve" smooth="yes"/>
      <point x="219" y="102"/>
      <point x="180" y="93"/>
      <point x="90" y="93" type="curve" smooth="yes"/>
      <point x="82" y="93" type="line"/>
    </contour>
  </outline>
</glyph>
<glyph name="i" format="2">
  <advance width="752"/>
  <unicode hex="0069"/>
  <note>
i
</note>
  <outline>
    <component base="dotlessi"/>
    <contour>
      <point x="361" y="1133" type="curve" smooth="yes"/>
      <point x="450" y="1133"/>
      <point x="523" y="1205"/>
      <point x="523" y="1295" type="curve" smooth="yes"/>
      <point x="523" y="1385"/>
      <point x="450" y="1457"/>
      <point x="361" y="1457" type="curve" smooth="yes"/>
      <point x="271" y="1457"/>
      <point x="198" y="1385"/>
      <point x="198" y="1295" type="curve" smooth="yes"/>
      <point x="198" y="1205"/>
      <point x="271" y="1133"/>
    </contour>
  </outline>
</glyph>
<glyph name="j" format="2">
  <advance width="721"/>
  <unicode hex="006A"/>
  <outline>
    <contour>
      <point x="145" y="-211" type="curve" smooth="yes"/>
      <point x="130" y="-167"/>
      <point x="114" y="-127"/>
      <point x="50" y="-127" type="curve" smooth="yes"/>
      <point x="-30" y="-127"/>
      <point x="-70" y="-180"/>
      <point x="-70" y="-255" type="curve" smooth="yes"/>
      <point x="-70" y="-342"/>
      <point x="12" y="-395"/>
      <point x="97" y="-395" type="curve" smooth="yes"/>
      <point x="216" y="-395"/>
      <point x="330" y="-330"/>
      <point x="407" y="-225" type="curve" smooth="yes"/>
      <point x="481" y="-124"/>
      <point x="520" y="-33"/>
      <point x="520" y="121" type="curve" smooth="yes"/>
      <point x="520" y="950" type="line"/>
      <point x="61" y="935" type="line"/>
      <point x="61" y="847" type="line"/>
      <point x="126" y="847" type="line" smooth="yes"/>
      <point x="229" y="847"/>
      <point x="257" y="815"/>
      <point x="257" y="675" type="curve" smooth="yes"/>
      <point x="257" y="-115" type="line" smooth="yes"/>
      <point x="257" y="-242"/>
      <point x="233" y="-280"/>
      <point x="200" y="-280" type="curve" smooth="yes"/>
      <point x="174" y="-280"/>
      <point x="160" y="-256"/>
    </contour>
    <contour>
      <point x="357" y="1142" type="curve" smooth="yes"/>
      <point x="447" y="1142"/>
      <point x="520" y="1215"/>
      <point x="520" y="1306" type="curve" smooth="yes"/>
      <point x="520" y="1396"/>
      <point x="447" y="1469"/>
      <point x="357" y="1469" type="curve" smooth="yes"/>
      <point x="266" y="1469"/>
      <point x="193" y="1396"/>
      <point x="193" y="1306" type="curve" smooth="yes"/>
      <point x="193" y="1215"/>
      <point x="266" y="1142"/>
    </contour>
  </outline>
</glyph>
<glyph name="k" format="2">
  <advance width="1355"/>
  <unicode hex="006B"/>
  <outline>
    <contour>
      <point x="76" y="0" type="line"/>
      <point x="638" y="0" type="line"/>
      <point x="638" y="92" type="line"/>
      <point x="525" y="92"/>
      <point x="500" y="109"/>
      <point x="500" y="179" type="curve" smooth="yes"/>
      <point x="500" y="1467" type="line"/>
      <point x="70" y="1437" type="line"/>
      <point x="70" y="1350" type="line"/>
      <point x="108" y="1350" type="line" smooth="yes"/>
      <point x="210" y="1350"/>
      <point x="239" y="1320"/>
      <point x="239" y="1164" type="curve" smooth="yes"/>
      <point x="239" y="170" type="line" smooth="yes"/>
      <point x="239" y="143"/>
      <point x="234" y="130"/>
      <point x="226" y="118" type="curve" smooth="yes"/>
      <point x="212" y="101"/>
      <point x="174" y="92"/>
      <point x="84" y="92" type="curve" smooth="yes"/>
      <point x="76" y="92" type="line"/>
    </contour>
    <contour>
      <point x="726" y="0" type="line"/>
      <point x="1309" y="0" type="line"/>
      <point x="1309" y="92" type="line"/>
      <point x="1295" y="92"/>
      <point x="1283" y="92"/>
      <point x="1271" y="92" type="curve" smooth="yes"/>
      <point x="1219" y="92"/>
      <point x="1179" y="131"/>
      <point x="1109" y="226" type="curve" smooth="yes"/>
      <point x="788" y="659" type="line"/>
      <point x="603" y="491" type="line"/>
      <point x="820" y="192" type="line" smooth="yes"/>
      <point x="834" y="174"/>
      <point x="847" y="151"/>
      <point x="847" y="132" type="curve" smooth="yes"/>
      <point x="847" y="105"/>
      <point x="821" y="92"/>
      <point x="768" y="92" type="curve" smooth="yes"/>
      <point x="726" y="92" type="line"/>
    </contour>
    <contour>
      <point x="461" y="315" type="line"/>
      <point x="988" y="757" type="line" smooth="yes"/>
      <point x="1067" y="823"/>
      <point x="1108" y="855"/>
      <point x="1234" y="855" type="curve"/>
      <point x="1234" y="942" type="line"/>
      <point x="676" y="947" type="line"/>
      <point x="676" y="855" type="line"/>
      <point x="700" y="855" type="line" smooth="yes"/>
      <point x="778" y="855"/>
      <point x="836" y="835"/>
      <point x="836" y="801" type="curve" smooth="yes"/>
      <point x="836" y="775"/>
      <point x="826" y="740"/>
      <point x="779" y="699" type="curve" smooth="yes"/>
      <point x="474" y="441" type="line"/>
    </contour>
  </outline>
</glyph>
<glyph name="l" format="2">
  <advance width="721"/>
  <unicode hex="006C"/>
  <outline>
    <contour>
      <point x="505" y="180" type="curve" smooth="yes"/>
      <point x="505" y="1479" type="line"/>
      <point x="72" y="1449" type="line"/>
      <point x="72" y="1361" type="line"/>
      <point x="111" y="1361" type="line" smooth="yes"/>
      <point x="214" y="1361"/>
      <point x="242" y="1331"/>
      <point x="242" y="1174" type="curve" smooth="yes"/>
      <point x="242" y="171" type="line" smooth="yes"/>
      <point x="242" y="144"/>
      <point x="238" y="131"/>
      <point x="229" y="119" type="curve" smooth="yes"/>
      <point x="215" y="102"/>
      <point x="176" y="93"/>
      <point x="86" y="93" type="curve" smooth="yes"/>
      <point x="78" y="93" type="line"/>
      <point x="78" y="0" type="line"/>
      <point x="659" y="0" type="line"/>
      <point x="659" y="93" type="line"/>
      <point x="645" y="93" type="line" smooth="yes"/>
      <point x="522" y="93"/>
      <point x="505" y="108"/>
    </contour>
  </outline>
</glyph>
<glyph name="m" format="2">
  <advance width="1972"/>
  <unicode hex="006D"/>
  <outline>
    <contour>
      <point x="41" y="0" type="line"/>
      <point x="607" y="0" type="line"/>
      <point x="607" y="93" type="line"/>
      <point x="479" y="98"/>
      <point x="468" y="114"/>
      <point x="468" y="289" type="curve" smooth="yes"/>
      <point x="468" y="558" type="line" smooth="yes"/>
      <point x="468" y="676"/>
      <point x="561" y="809"/>
      <point x="701" y="809" type="curve" smooth="yes"/>
      <point x="786" y="809"/>
      <point x="875" y="741"/>
      <point x="875" y="606" type="curve" smooth="yes"/>
      <point x="875" y="289" type="line" smooth="yes"/>
      <point x="875" y="188"/>
      <point x="875" y="142"/>
      <point x="860" y="119" type="curve" smooth="yes"/>
      <point x="845" y="97"/>
      <point x="771" y="93"/>
      <point x="714" y="93" type="curve"/>
      <point x="714" y="0" type="line"/>
      <point x="1299" y="0" type="line"/>
      <point x="1299" y="93" type="line"/>
      <point x="1180" y="93"/>
      <point x="1138" y="98"/>
      <point x="1138" y="289" type="curve" smooth="yes"/>
      <point x="1138" y="558" type="line" smooth="yes"/>
      <point x="1138" y="676"/>
      <point x="1231" y="809"/>
      <point x="1371" y="809" type="curve" smooth="yes"/>
      <point x="1456" y="809"/>
      <point x="1545" y="741"/>
      <point x="1545" y="577" type="curve" smooth="yes"/>
      <point x="1545" y="169" type="line" smooth="yes"/>
      <point x="1545" y="144"/>
      <point x="1541" y="133"/>
      <point x="1533" y="119" type="curve"/>
      <point x="1516" y="100"/>
      <point x="1474" y="93"/>
      <point x="1406" y="93" type="curve"/>
      <point x="1406" y="0" type="line"/>
      <point x="1970" y="0" type="line"/>
      <point x="1970" y="93" type="line"/>
      <point x="1835" y="93"/>
      <point x="1808" y="100"/>
      <point x="1808" y="180" type="curve" smooth="yes"/>
      <point x="1808" y="633" type="line" smooth="yes"/>
      <point x="1808" y="896"/>
      <point x="1632" y="969"/>
      <point x="1502" y="969" type="curve" smooth="yes"/>
      <point x="1347" y="969"/>
      <point x="1183" y="850"/>
      <point x="1099" y="701" type="curve"/>
      <point x="1130" y="715" type="line"/>
      <point x="1093" y="881"/>
      <point x="961" y="969"/>
      <point x="832" y="969" type="curve" smooth="yes"/>
      <point x="677" y="969"/>
      <point x="513" y="850"/>
      <point x="429" y="701" type="curve"/>
      <point x="460" y="715" type="line"/>
      <point x="460" y="795"/>
      <point x="449" y="874"/>
      <point x="437" y="950" type="curve"/>
      <point x="41" y="935" type="line"/>
      <point x="41" y="847" type="line"/>
      <point x="74" y="847" type="line" smooth="yes"/>
      <point x="174" y="847"/>
      <point x="205" y="817"/>
      <point x="205" y="658" type="curve" smooth="yes"/>
      <point x="205" y="171" type="line" smooth="yes"/>
      <point x="205" y="144"/>
      <point x="202" y="130"/>
      <point x="193" y="119" type="curve" smooth="yes"/>
      <point x="179" y="101"/>
      <point x="139" y="93"/>
      <point x="51" y="93" type="curve" smooth="yes"/>
      <point x="41" y="93" type="line"/>
    </contour>
  </outline>
</glyph>
<glyph name="n" format="2">
  <advance width="1391"/>
  <unicode hex="006E"/>
  <guideline x="732" y="458" angle="0"/>
  <anchor x="725" y="1091" name="Lupper"/>
  <outline>
    <contour>
      <point x="102" y="0" type="line"/>
      <point x="676" y="0" type="line"/>
      <point x="676" y="92" type="line"/>
      <point x="549" y="97"/>
      <point x="524" y="113"/>
      <point x="524" y="213" type="curve" smooth="yes"/>
      <point x="524" y="480" type="line" smooth="yes"/>
      <point x="524" y="558"/>
      <point x="539" y="628"/>
      <point x="567" y="680" type="curve" smooth="yes"/>
      <point x="609" y="757"/>
      <point x="673" y="802"/>
      <point x="755" y="802" type="curve" smooth="yes"/>
      <point x="839" y="802"/>
      <point x="927" y="735"/>
      <point x="927" y="591" type="curve" smooth="yes"/>
      <point x="927" y="287" type="line" smooth="yes"/>
      <point x="927" y="186"/>
      <point x="927" y="141"/>
      <point x="912" y="118" type="curve" smooth="yes"/>
      <point x="898" y="96"/>
      <point x="834" y="92"/>
      <point x="778" y="92" type="curve"/>
      <point x="778" y="0" type="line"/>
      <point x="1336" y="0" type="line"/>
      <point x="1336" y="92" type="line"/>
      <point x="1218" y="92"/>
      <point x="1188" y="97"/>
      <point x="1188" y="287" type="curve" smooth="yes"/>
      <point x="1188" y="622" type="line"/>
      <point x="1188" y="883"/>
      <point x="1049" y="961"/>
      <point x="885" y="961" type="curve" smooth="yes"/>
      <point x="731" y="961"/>
      <point x="568" y="843"/>
      <point x="485" y="695" type="curve"/>
      <point x="516" y="709" type="line"/>
      <point x="516" y="788"/>
      <point x="505" y="867"/>
      <point x="493" y="942" type="curve"/>
      <point x="100" y="927" type="line"/>
      <point x="100" y="840" type="line"/>
      <point x="133" y="840" type="line" smooth="yes"/>
      <point x="232" y="840"/>
      <point x="263" y="810"/>
      <point x="263" y="653" type="curve" smooth="yes"/>
      <point x="263" y="170" type="line" smooth="yes"/>
      <point x="263" y="143"/>
      <point x="259" y="130"/>
      <point x="251" y="118" type="curve" smooth="yes"/>
      <point x="236" y="101"/>
      <point x="197" y="92"/>
      <point x="102" y="92" type="curve"/>
    </contour>
  </outline>
</glyph>
<glyph name="o" format="2">
  <advance width="1251"/>
  <unicode hex="006F"/>
  <anchor x="623" y="1100" name="Lupper"/>
  <outline>
    <contour>
      <point x="623" y="979" type="curve" smooth="yes"/>
      <point x="312" y="979"/>
      <point x="83" y="782"/>
      <point x="83" y="471" type="curve" smooth="yes"/>
      <point x="83" y="160"/>
      <point x="312" y="-30"/>
      <point x="623" y="-30" type="curve" smooth="yes"/>
      <point x="934" y="-30"/>
      <point x="1162" y="158"/>
      <point x="1162" y="469" type="curve" smooth="yes"/>
      <point x="1162" y="780"/>
      <point x="934" y="979"/>
    </contour>
    <contour>
      <point x="623" y="885" type="curve" smooth="yes"/>
      <point x="773" y="885"/>
      <point x="851" y="762"/>
      <point x="851" y="471" type="curve" smooth="yes"/>
      <point x="851" y="180"/>
      <point x="773" y="64"/>
      <point x="623" y="64" type="curve" smooth="yes"/>
      <point x="473" y="64"/>
      <point x="396" y="182"/>
      <point x="396" y="473" type="curve" smooth="yes"/>
      <point x="396" y="764"/>
      <point x="473" y="885"/>
    </contour>
  </outline>
</glyph>
<glyph name="p" format="2">
  <advance width="1366"/>
  <unicode hex="0070"/>
  <outline>
    <contour>
      <point x="70" y="-406" type="line"/>
      <point x="673" y="-406" type="line"/>
      <point x="673" y="-313" type="line"/>
      <point x="526" y="-313"/>
      <point x="495" y="-284"/>
      <point x="495" y="-225" type="curve" smooth="yes"/>
      <point x="495" y="212" type="line"/>
      <point x="472" y="212" type="line"/>
      <point x="561" y="54"/>
      <point x="695" y="-30"/>
      <point x="844" y="-30" type="curve" smooth="yes"/>
      <point x="1120" y="-30"/>
      <point x="1284" y="197"/>
      <point x="1284" y="476" type="curve" smooth="yes"/>
      <point x="1284" y="777"/>
      <point x="1137" y="979"/>
      <point x="875" y="979" type="curve" smooth="yes"/>
      <point x="720" y="979"/>
      <point x="557" y="877"/>
      <point x="478" y="727" type="curve"/>
      <point x="509" y="709" type="line"/>
      <point x="509" y="769"/>
      <point x="495" y="890"/>
      <point x="485" y="950" type="curve"/>
      <point x="70" y="935" type="line"/>
      <point x="70" y="847" type="line"/>
      <point x="101" y="847" type="line" smooth="yes"/>
      <point x="208" y="847"/>
      <point x="232" y="817"/>
      <point x="232" y="652" type="curve" smooth="yes"/>
      <point x="232" y="-232" type="line" smooth="yes"/>
      <point x="232" y="-261"/>
      <point x="228" y="-273"/>
      <point x="219" y="-285" type="curve" smooth="yes"/>
      <point x="207" y="-303"/>
      <point x="166" y="-313"/>
      <point x="70" y="-313" type="curve"/>
    </contour>
    <contour>
      <point x="763" y="829" type="curve" smooth="yes"/>
      <point x="887" y="829"/>
      <point x="973" y="705"/>
      <point x="973" y="466" type="curve" smooth="yes"/>
      <point x="973" y="239"/>
      <point x="877" y="107"/>
      <point x="746" y="107" type="curve" smooth="yes"/>
      <point x="609" y="107"/>
      <point x="493" y="233"/>
      <point x="493" y="460" type="curve" smooth="yes"/>
      <point x="493" y="699"/>
      <point x="613" y="829"/>
    </contour>
  </outline>
</glyph>
<glyph name="q" format="2">
  <advance width="1327"/>
  <unicode hex="0071"/>
  <outline>
    <contour>
      <point x="511" y="-30" type="curve" smooth="yes"/>
      <point x="656" y="-30"/>
      <point x="793" y="31"/>
      <point x="887" y="186" type="curve"/>
      <point x="859" y="229" type="line"/>
      <point x="859" y="-224" type="line" smooth="yes"/>
      <point x="859" y="-253"/>
      <point x="855" y="-273"/>
      <point x="847" y="-285" type="curve" smooth="yes"/>
      <point x="835" y="-303"/>
      <point x="794" y="-313"/>
      <point x="681" y="-313" type="curve"/>
      <point x="681" y="-406" type="line"/>
      <point x="1284" y="-406" type="line"/>
      <point x="1284" y="-313" type="line"/>
      <point x="1150" y="-313"/>
      <point x="1122" y="-289"/>
      <point x="1122" y="-217" type="curve" smooth="yes"/>
      <point x="1122" y="626" type="line" smooth="yes"/>
      <point x="1122" y="744"/>
      <point x="1128" y="818"/>
      <point x="1153" y="968" type="curve"/>
      <point x="1093" y="988" type="line"/>
      <point x="1034" y="926"/>
      <point x="980" y="863"/>
      <point x="939" y="792" type="curve"/>
      <point x="1003" y="757" type="line"/>
      <point x="906" y="890"/>
      <point x="793" y="979"/>
      <point x="624" y="979" type="curve" smooth="yes"/>
      <point x="325" y="979"/>
      <point x="102" y="760"/>
      <point x="102" y="427" type="curve" smooth="yes"/>
      <point x="102" y="154"/>
      <point x="294" y="-30"/>
    </contour>
    <contour>
      <point x="660" y="888" type="curve" smooth="yes"/>
      <point x="807" y="888"/>
      <point x="866" y="672"/>
      <point x="866" y="508" type="curve" smooth="yes"/>
      <point x="866" y="239"/>
      <point x="767" y="107"/>
      <point x="641" y="107" type="curve" smooth="yes"/>
      <point x="514" y="107"/>
      <point x="413" y="233"/>
      <point x="413" y="473" type="curve" smooth="yes"/>
      <point x="413" y="739"/>
      <point x="506" y="888"/>
    </contour>
  </outline>
</glyph>
<glyph name="r" format="2">
  <advance width="1063"/>
  <unicode hex="0072"/>
  <outline>
    <contour>
      <point x="100" y="0" type="line"/>
      <point x="735" y="0" type="line"/>
      <point x="735" y="93" type="line"/>
      <point x="563" y="93"/>
      <point x="536" y="126"/>
      <point x="536" y="180" type="curve" smooth="yes"/>
      <point x="536" y="330" type="line" smooth="yes"/>
      <point x="536" y="555"/>
      <point x="603" y="733"/>
      <point x="662" y="814" type="curve" smooth="yes"/>
      <point x="695" y="859"/>
      <point x="736" y="889"/>
      <point x="767" y="889" type="curve" smooth="yes"/>
      <point x="791" y="889"/>
      <point x="794" y="874"/>
      <point x="794" y="864" type="curve" smooth="yes"/>
      <point x="794" y="856"/>
      <point x="792" y="849"/>
      <point x="784" y="834" type="curve" smooth="yes"/>
      <point x="775" y="816"/>
      <point x="768" y="800"/>
      <point x="768" y="770" type="curve" smooth="yes"/>
      <point x="768" y="693"/>
      <point x="818" y="642"/>
      <point x="887" y="642" type="curve" smooth="yes"/>
      <point x="966" y="642"/>
      <point x="1014" y="713"/>
      <point x="1014" y="795" type="curve" smooth="yes"/>
      <point x="1014" y="897"/>
      <point x="940" y="972"/>
      <point x="815" y="972" type="curve" smooth="yes"/>
      <point x="671" y="972"/>
      <point x="546" y="872"/>
      <point x="486" y="607" type="curve"/>
      <point x="516" y="583" type="line"/>
      <point x="502" y="953" type="line"/>
      <point x="100" y="935" type="line"/>
      <point x="100" y="847" type="line"/>
      <point x="236" y="847"/>
      <point x="262" y="817"/>
      <point x="262" y="652" type="curve" smooth="yes"/>
      <point x="262" y="171" type="line" smooth="yes"/>
      <point x="262" y="144"/>
      <point x="258" y="131"/>
      <point x="249" y="119" type="curve" smooth="yes"/>
      <point x="235" y="102"/>
      <point x="196" y="93"/>
      <point x="100" y="93" type="curve"/>
    </contour>
  </outline>
</glyph>
<glyph name="s" format="2">
  <advance width="1016"/>
  <unicode hex="0073"/>
  <anchor x="532" y="1091" name="Lupper"/>
  <outline>
    <contour>
      <point x="539" y="-30" type="curve" smooth="yes"/>
      <point x="778" y="-30"/>
      <point x="940" y="93"/>
      <point x="940" y="292" type="curve" smooth="yes"/>
      <point x="940" y="484"/>
      <point x="804" y="569"/>
      <point x="618" y="606" type="curve" smooth="yes"/>
      <point x="401" y="649"/>
      <point x="289" y="678"/>
      <point x="289" y="763" type="curve" smooth="yes"/>
      <point x="289" y="840"/>
      <point x="358" y="886"/>
      <point x="479" y="886" type="curve" smooth="yes"/>
      <point x="617" y="886"/>
      <point x="719" y="822"/>
      <point x="803" y="659" type="curve"/>
      <point x="886" y="659" type="line"/>
      <point x="866" y="979" type="line"/>
      <point x="804" y="979" type="line"/>
      <point x="729" y="882" type="line"/>
      <point x="760" y="883" type="line"/>
      <point x="670" y="938"/>
      <point x="590" y="971"/>
      <point x="477" y="971" type="curve" smooth="yes"/>
      <point x="248" y="971"/>
      <point x="132" y="838"/>
      <point x="132" y="650" type="curve" smooth="yes"/>
      <point x="132" y="483"/>
      <point x="264" y="386"/>
      <point x="429" y="350" type="curve" smooth="yes"/>
      <point x="570" y="319" type="line" smooth="yes"/>
      <point x="706" y="290"/>
      <point x="775" y="268"/>
      <point x="775" y="195" type="curve" smooth="yes"/>
      <point x="775" y="88"/>
      <point x="646" y="57"/>
      <point x="539" y="57" type="curve" smooth="yes"/>
      <point x="382" y="57"/>
      <point x="293" y="138"/>
      <point x="195" y="326" type="curve"/>
      <point x="114" y="326" type="line"/>
      <point x="133" y="-22" type="line"/>
      <point x="218" y="-22" type="line"/>
      <point x="296" y="72" type="line"/>
      <point x="236" y="85" type="line"/>
      <point x="307" y="32"/>
      <point x="397" y="-30"/>
    </contour>
  </outline>
</glyph>
<glyph name="t" format="2">
  <advance width="872"/>
  <unicode hex="0074"/>
  <outline>
    <contour>
      <point x="483" y="-30" type="curve" smooth="yes"/>
      <point x="736" y="-30"/>
      <point x="827" y="150"/>
      <point x="827" y="373" type="curve"/>
      <point x="737" y="373" type="line"/>
      <point x="737" y="222"/>
      <point x="683" y="108"/>
      <point x="594" y="108" type="curve" smooth="yes"/>
      <point x="534" y="108"/>
      <point x="474" y="147"/>
      <point x="474" y="253" type="curve" smooth="yes"/>
      <point x="474" y="1327" type="line"/>
      <point x="385" y="1327" type="line"/>
      <point x="352" y="1070"/>
      <point x="240" y="941"/>
      <point x="45" y="918" type="curve"/>
      <point x="45" y="829" type="line"/>
      <point x="263" y="829" type="line"/>
      <point x="211" y="881" type="line"/>
      <point x="211" y="272" type="line" smooth="yes"/>
      <point x="211" y="111"/>
      <point x="280" y="-30"/>
    </contour>
    <contour>
      <point x="462" y="829" type="line"/>
      <point x="780" y="829" type="line"/>
      <point x="780" y="935" type="line"/>
      <point x="462" y="935" type="line"/>
    </contour>
  </outline>
</glyph>
<glyph name="u" format="2">
  <advance width="1403"/>
  <unicode hex="0075"/>
  <anchor x="695" y="1100" name="Lupper"/>
  <outline>
    <contour>
      <point x="536" y="-23" type="curve" smooth="yes"/>
      <point x="694" y="-23"/>
      <point x="815" y="69"/>
      <point x="944" y="238" type="curve"/>
      <point x="915" y="289" type="line"/>
      <point x="915" y="217"/>
      <point x="930" y="84"/>
      <point x="952" y="0" type="curve"/>
      <point x="1333" y="23" type="line"/>
      <point x="1333" y="116" type="line"/>
      <point x="1276" y="116" type="line" smooth="yes"/>
      <point x="1189" y="116"/>
      <point x="1163" y="146"/>
      <point x="1163" y="249" type="curve" smooth="yes"/>
      <point x="1163" y="950" type="line"/>
      <point x="737" y="935" type="line"/>
      <point x="737" y="847" type="line"/>
      <point x="799" y="847" type="line" smooth="yes"/>
      <point x="897" y="847"/>
      <point x="900" y="809"/>
      <point x="900" y="652" type="curve" smooth="yes"/>
      <point x="900" y="477" type="line" smooth="yes"/>
      <point x="900" y="377"/>
      <point x="892" y="323"/>
      <point x="866" y="270" type="curve" smooth="yes"/>
      <point x="833" y="203"/>
      <point x="745" y="145"/>
      <point x="667" y="145" type="curve" smooth="yes"/>
      <point x="565" y="145"/>
      <point x="491" y="219"/>
      <point x="491" y="371" type="curve" smooth="yes"/>
      <point x="491" y="950" type="line"/>
      <point x="80" y="935" type="line"/>
      <point x="80" y="847" type="line"/>
      <point x="119" y="847" type="line" smooth="yes"/>
      <point x="225" y="847"/>
      <point x="228" y="813"/>
      <point x="228" y="652" type="curve" smooth="yes"/>
      <point x="228" y="383" type="line" smooth="yes"/>
      <point x="228" y="146"/>
      <point x="301" y="-23"/>
    </contour>
  </outline>
</glyph>
<glyph name="v" format="2">
  <advance width="1241"/>
  <unicode hex="0076"/>
  <outline>
    <contour>
      <point x="899" y="643" type="curve" smooth="yes"/>
      <point x="697" y="231" type="line"/>
      <point x="741" y="232" type="line"/>
      <point x="460" y="760" type="line" smooth="yes"/>
      <point x="449" y="781"/>
      <point x="446" y="799"/>
      <point x="446" y="811" type="curve" smooth="yes"/>
      <point x="446" y="843"/>
      <point x="474" y="855"/>
      <point x="591" y="855" type="curve"/>
      <point x="591" y="942" type="line"/>
      <point x="41" y="942" type="line"/>
      <point x="41" y="855" type="line"/>
      <point x="115" y="855"/>
      <point x="133" y="831"/>
      <point x="179" y="747" type="curve" smooth="yes"/>
      <point x="601" y="-28" type="line"/>
      <point x="682" y="-28" type="line"/>
      <point x="1022" y="664" type="line" smooth="yes"/>
      <point x="1093" y="809"/>
      <point x="1126" y="855"/>
      <point x="1209" y="855" type="curve"/>
      <point x="1209" y="942" type="line"/>
      <point x="793" y="942" type="line"/>
      <point x="793" y="855" type="line"/>
      <point x="905" y="855"/>
      <point x="940" y="835"/>
      <point x="940" y="777" type="curve" smooth="yes"/>
      <point x="940" y="750"/>
      <point x="925" y="697"/>
    </contour>
  </outline>
</glyph>
<glyph name="w" format="2">
  <advance width="1806"/>
  <unicode hex="0077"/>
  <outline>
    <contour>
      <point x="1176" y="-28" type="line"/>
      <point x="1268" y="-28" type="line"/>
      <point x="1548" y="680" type="line" smooth="yes"/>
      <point x="1603" y="818"/>
      <point x="1649" y="851"/>
      <point x="1741" y="855" type="curve"/>
      <point x="1741" y="942" type="line"/>
      <point x="1350" y="942" type="line"/>
      <point x="1350" y="855" type="line"/>
      <point x="1365" y="855" type="line" smooth="yes"/>
      <point x="1450" y="855"/>
      <point x="1463" y="830"/>
      <point x="1463" y="783" type="curve" smooth="yes"/>
      <point x="1463" y="761"/>
      <point x="1448" y="703"/>
      <point x="1428" y="656" type="curve" smooth="yes"/>
      <point x="1267" y="259" type="line"/>
      <point x="1320" y="259" type="line"/>
      <point x="1097" y="768" type="line" smooth="yes"/>
      <point x="1090" y="784"/>
      <point x="1085" y="799"/>
      <point x="1085" y="809" type="curve" smooth="yes"/>
      <point x="1085" y="843"/>
      <point x="1119" y="855"/>
      <point x="1196" y="855" type="curve" smooth="yes"/>
      <point x="1210" y="855" type="line"/>
      <point x="1210" y="942" type="line"/>
      <point x="690" y="942" type="line"/>
      <point x="690" y="855" type="line"/>
      <point x="765" y="855"/>
      <point x="786" y="842"/>
      <point x="814" y="781" type="curve" smooth="yes"/>
    </contour>
    <contour>
      <point x="553" y="-28" type="line"/>
      <point x="639" y="-28" type="line"/>
      <point x="923" y="674" type="line"/>
      <point x="869" y="813" type="line"/>
      <point x="643" y="259" type="line"/>
      <point x="697" y="259" type="line"/>
      <point x="477" y="757" type="line" smooth="yes"/>
      <point x="463" y="788"/>
      <point x="463" y="801"/>
      <point x="463" y="809" type="curve" smooth="yes"/>
      <point x="463" y="842"/>
      <point x="478" y="851"/>
      <point x="542" y="854" type="curve"/>
      <point x="562" y="855" type="line"/>
      <point x="562" y="942" type="line"/>
      <point x="64" y="942" type="line"/>
      <point x="64" y="855" type="line"/>
      <point x="144" y="851"/>
      <point x="168" y="829"/>
      <point x="208" y="739" type="curve" smooth="yes"/>
    </contour>
  </outline>
</glyph>
<glyph name="x" format="2">
  <advance width="1251"/>
  <unicode hex="0078"/>
  <outline>
    <contour>
      <point x="603" y="0" type="line"/>
      <point x="1195" y="0" type="line"/>
      <point x="1195" y="93" type="line"/>
      <point x="1119" y="93"/>
      <point x="1096" y="106"/>
      <point x="1013" y="207" type="curve" smooth="yes"/>
      <point x="541" y="779" type="line" smooth="yes"/>
      <point x="527" y="796"/>
      <point x="520" y="811"/>
      <point x="520" y="823" type="curve" smooth="yes"/>
      <point x="520" y="848"/>
      <point x="549" y="862"/>
      <point x="600" y="862" type="curve" smooth="yes"/>
      <point x="633" y="862" type="line"/>
      <point x="633" y="950" type="line"/>
      <point x="77" y="950" type="line"/>
      <point x="77" y="862" type="line"/>
      <point x="138" y="860"/>
      <point x="161" y="842"/>
      <point x="214" y="778" type="curve" smooth="yes"/>
      <point x="705" y="183" type="line" smooth="yes"/>
      <point x="722" y="163"/>
      <point x="728" y="153"/>
      <point x="728" y="137" type="curve" smooth="yes"/>
      <point x="728" y="107"/>
      <point x="674" y="93"/>
      <point x="603" y="93" type="curve"/>
    </contour>
    <contour>
      <point x="57" y="0" type="line"/>
      <point x="516" y="0" type="line"/>
      <point x="516" y="93" type="line"/>
      <point x="462" y="93"/>
      <point x="383" y="96"/>
      <point x="383" y="149" type="curve" smooth="yes"/>
      <point x="383" y="168"/>
      <point x="393" y="188"/>
      <point x="412" y="207" type="curve" smooth="yes"/>
      <point x="599" y="397" type="line"/>
      <point x="714" y="483" type="line"/>
      <point x="981" y="753" type="line" smooth="yes"/>
      <point x="1064" y="836"/>
      <point x="1096" y="862"/>
      <point x="1164" y="862" type="curve"/>
      <point x="1164" y="950" type="line"/>
      <point x="720" y="950" type="line"/>
      <point x="720" y="862" type="line"/>
      <point x="778" y="862" type="line" smooth="yes"/>
      <point x="829" y="862"/>
      <point x="859" y="846"/>
      <point x="859" y="818" type="curve" smooth="yes"/>
      <point x="859" y="796"/>
      <point x="853" y="776"/>
      <point x="821" y="743" type="curve" smooth="yes"/>
      <point x="652" y="571" type="line"/>
      <point x="524" y="471" type="line"/>
      <point x="239" y="183" type="line" smooth="yes"/>
      <point x="169" y="113"/>
      <point x="120" y="93"/>
      <point x="57" y="93" type="curve"/>
    </contour>
  </outline>
</glyph>
<glyph name="y" format="2">
  <advance width="1251"/>
  <unicode hex="0079"/>
  <anchor x="689" y="1100" name="Lupper"/>
  <outline>
    <contour>
      <point x="286" y="-399" type="curve" smooth="yes"/>
      <point x="391" y="-399"/>
      <point x="468" y="-353"/>
      <point x="530" y="-283" type="curve" smooth="yes"/>
      <point x="589" y="-217"/>
      <point x="634" y="-129"/>
      <point x="677" y="-37" type="curve" smooth="yes"/>
      <point x="1018" y="692" type="line" smooth="yes"/>
      <point x="1079" y="822"/>
      <point x="1119" y="858"/>
      <point x="1205" y="862" type="curve"/>
      <point x="1205" y="950" type="line"/>
      <point x="784" y="950" type="line"/>
      <point x="784" y="862" type="line"/>
      <point x="894" y="862"/>
      <point x="940" y="854"/>
      <point x="940" y="796" type="curve" smooth="yes"/>
      <point x="940" y="775"/>
      <point x="923" y="721"/>
      <point x="911" y="696" type="curve" smooth="yes"/>
      <point x="563" y="-44" type="line" smooth="yes"/>
      <point x="485" y="-210"/>
      <point x="400" y="-304"/>
      <point x="330" y="-304" type="curve" smooth="yes"/>
      <point x="307" y="-304"/>
      <point x="301" y="-292"/>
      <point x="301" y="-280" type="curve" smooth="yes"/>
      <point x="301" y="-271"/>
      <point x="303" y="-265"/>
      <point x="307" y="-253" type="curve" smooth="yes"/>
      <point x="311" y="-241"/>
      <point x="311" y="-226"/>
      <point x="311" y="-209" type="curve" smooth="yes"/>
      <point x="311" y="-172"/>
      <point x="285" y="-92"/>
      <point x="185" y="-92" type="curve" smooth="yes"/>
      <point x="108" y="-92"/>
      <point x="62" y="-151"/>
      <point x="62" y="-223" type="curve" smooth="yes"/>
      <point x="62" y="-336"/>
      <point x="170" y="-399"/>
    </contour>
    <contour>
      <point x="614" y="-34" type="line"/>
      <point x="742" y="272" type="line"/>
      <point x="500" y="758" type="line" smooth="yes"/>
      <point x="490" y="777"/>
      <point x="486" y="806"/>
      <point x="486" y="820" type="curve" smooth="yes"/>
      <point x="486" y="850"/>
      <point x="508" y="862"/>
      <point x="557" y="862" type="curve" smooth="yes"/>
      <point x="594" y="862" type="line"/>
      <point x="594" y="950" type="line"/>
      <point x="69" y="950" type="line"/>
      <point x="69" y="862" type="line"/>
      <point x="144" y="862"/>
      <point x="171" y="847"/>
      <point x="207" y="776" type="curve" smooth="yes"/>
    </contour>
  </outline>
</glyph>
<glyph name="z" format="2">
  <advance width="1100"/>
  <unicode hex="007A"/>
  <guideline x="566" y="1100" angle="90"/>
  <anchor x="566" y="1100" name="Lupper"/>
  <outline>
    <contour>
      <point x="994" y="853" type="line"/>
      <point x="994" y="950" type="line"/>
      <point x="179" y="950" type="line"/>
      <point x="154" y="588" type="line"/>
      <point x="239" y="588" type="line"/>
      <point x="298" y="809"/>
      <point x="347" y="854"/>
      <point x="456" y="854" type="curve" smooth="yes"/>
      <point x="711" y="854" type="line"/>
      <point x="708" y="891" type="line"/>
      <point x="104" y="102" type="line"/>
      <point x="104" y="0" type="line"/>
      <point x="991" y="0" type="line"/>
      <point x="1012" y="381" type="line"/>
      <point x="919" y="381" type="line"/>
      <point x="899" y="288"/>
      <point x="883" y="225"/>
      <point x="839" y="166" type="curve" smooth="yes"/>
      <point x="790" y="100"/>
      <point x="723" y="96"/>
      <point x="588" y="96" type="curve" smooth="yes"/>
      <point x="379" y="96" type="line"/>
      <point x="386" y="58" type="line"/>
    </contour>
  </outline>
</glyph>
<glyph name="braceleft" format="2">
  <advance width="790"/>
  <unicode hex="007B"/>
  <outline>
    <contour>
      <point x="707" y="-368" type="curve"/>
      <point x="707" y="-329" type="line"/>
      <point x="604" y="-325"/>
      <point x="514" y="-190"/>
      <point x="514" y="-94" type="curve" smooth="yes"/>
      <point x="514" y="2"/>
      <point x="587" y="89"/>
      <point x="587" y="225" type="curve" smooth="yes"/>
      <point x="587" y="427"/>
      <point x="356" y="537"/>
      <point x="214" y="573" type="curve"/>
      <point x="214" y="555" type="line"/>
      <point x="356" y="592"/>
      <point x="587" y="701"/>
      <point x="587" y="904" type="curve" smooth="yes"/>
      <point x="587" y="1029"/>
      <point x="514" y="1127"/>
      <point x="514" y="1223" type="curve" smooth="yes"/>
      <point x="514" y="1319"/>
      <point x="604" y="1454"/>
      <point x="707" y="1458" type="curve"/>
      <point x="707" y="1497" type="line"/>
      <point x="516" y="1497"/>
      <point x="271" y="1339"/>
      <point x="271" y="1145" type="curve" smooth="yes"/>
      <point x="271" y="1019"/>
      <point x="328" y="940"/>
      <point x="328" y="833" type="curve" smooth="yes"/>
      <point x="328" y="724"/>
      <point x="230" y="607"/>
      <point x="119" y="585" type="curve"/>
      <point x="119" y="544" type="line"/>
      <point x="230" y="522"/>
      <point x="328" y="405"/>
      <point x="328" y="296" type="curve" smooth="yes"/>
      <point x="328" y="188"/>
      <point x="271" y="110"/>
      <point x="271" y="-16" type="curve" smooth="yes"/>
      <point x="271" y="-210"/>
      <point x="516" y="-368"/>
    </contour>
  </outline>
</glyph>
<glyph name="bar" format="2">
  <advance width="1241"/>
  <unicode hex="007C"/>
  <note>
bar
</note>
  <outline>
    <contour>
      <point x="716" y="-400" type="line"/>
      <point x="716" y="1479" type="line"/>
      <point x="523" y="1479" type="line"/>
      <point x="523" y="-400" type="line"/>
    </contour>
  </outline>
</glyph>
<glyph name="braceright" format="2">
  <advance width="797"/>
  <unicode hex="007D"/>
  <outline>
    <contour>
      <point x="120" y="-371" type="line"/>
      <point x="313" y="-371"/>
      <point x="560" y="-212"/>
      <point x="560" y="-16" type="curve" smooth="yes"/>
      <point x="560" y="111"/>
      <point x="502" y="190"/>
      <point x="502" y="298" type="curve" smooth="yes"/>
      <point x="502" y="408"/>
      <point x="601" y="526"/>
      <point x="713" y="548" type="curve"/>
      <point x="713" y="590" type="line"/>
      <point x="601" y="612"/>
      <point x="502" y="730"/>
      <point x="502" y="840" type="curve" smooth="yes"/>
      <point x="502" y="948"/>
      <point x="560" y="1027"/>
      <point x="560" y="1154" type="curve" smooth="yes"/>
      <point x="560" y="1350"/>
      <point x="313" y="1509"/>
      <point x="120" y="1509" type="curve"/>
      <point x="120" y="1470" type="line"/>
      <point x="224" y="1466"/>
      <point x="315" y="1330"/>
      <point x="315" y="1233" type="curve" smooth="yes"/>
      <point x="315" y="1136"/>
      <point x="241" y="1038"/>
      <point x="241" y="911" type="curve" smooth="yes"/>
      <point x="241" y="707"/>
      <point x="474" y="597"/>
      <point x="617" y="560" type="curve"/>
      <point x="617" y="578" type="line"/>
      <point x="474" y="541"/>
      <point x="241" y="431"/>
      <point x="241" y="227" type="curve" smooth="yes"/>
      <point x="241" y="90"/>
      <point x="315" y="2"/>
      <point x="315" y="-95" type="curve" smooth="yes"/>
      <point x="315" y="-192"/>
      <point x="224" y="-328"/>
      <point x="120" y="-332" type="curve"/>
    </contour>
  </outline>
</glyph>
<glyph name="asciitilde" format="2">
  <advance width="1241"/>
  <unicode hex="007E"/>
  <note>
asciitilde
</note>
  <outline>
    <contour>
      <point x="723" y="655" type="curve" smooth="yes"/>
      <point x="584" y="719" type="line" smooth="yes"/>
      <point x="487" y="764"/>
      <point x="384" y="778"/>
      <point x="339" y="778" type="curve" smooth="yes"/>
      <point x="146" y="778"/>
      <point x="66" y="602"/>
      <point x="66" y="428" type="curve"/>
      <point x="127" y="428" type="line"/>
      <point x="145" y="524"/>
      <point x="178" y="608"/>
      <point x="299" y="608" type="curve" smooth="yes"/>
      <point x="381" y="608"/>
      <point x="430" y="587"/>
      <point x="520" y="548" type="curve" smooth="yes"/>
      <point x="659" y="487" type="line" smooth="yes"/>
      <point x="755" y="445"/>
      <point x="859" y="425"/>
      <point x="904" y="425" type="curve" smooth="yes"/>
      <point x="1097" y="425"/>
      <point x="1177" y="601"/>
      <point x="1177" y="775" type="curve"/>
      <point x="1116" y="775" type="line"/>
      <point x="1098" y="679"/>
      <point x="1065" y="595"/>
      <point x="944" y="595" type="curve" smooth="yes"/>
      <point x="857" y="595"/>
      <point x="814" y="613"/>
    </contour>
  </outline>
</glyph>
<glyph name="cent" format="2">
  <advance width="1166"/>
  <unicode hex="00A2"/>
  <guideline x="470" y="275" angle="241.4058"/>
  <outline>
    <contour>
      <point x="92" y="-414" type="line"/>
      <point x="209" y="-414" type="line"/>
      <point x="1176" y="1367" type="line"/>
      <point x="1062" y="1367" type="line"/>
      <point x="793" y="873" type="line"/>
      <point x="795" y="831" type="line"/>
      <point x="795" y="821"/>
      <point x="748" y="789"/>
      <point x="740" y="776" type="curve" smooth="yes"/>
    </contour>
    <contour>
      <point x="599" y="-29" type="curve" smooth="yes"/>
      <point x="851" y="-29"/>
      <point x="1007" y="65"/>
      <point x="1090" y="307" type="curve"/>
      <point x="1004" y="345" type="line"/>
      <point x="948" y="187"/>
      <point x="829" y="80"/>
      <point x="688" y="80" type="curve" smooth="yes"/>
      <point x="478" y="80"/>
      <point x="415" y="268"/>
      <point x="415" y="490" type="curve" smooth="yes"/>
      <point x="415" y="773"/>
      <point x="500" y="886"/>
      <point x="672" y="886" type="curve" smooth="yes"/>
      <point x="731" y="886"/>
      <point x="780" y="861"/>
      <point x="780" y="833" type="curve" smooth="yes"/>
      <point x="780" y="818"/>
      <point x="776" y="812"/>
      <point x="754" y="788" type="curve"/>
      <point x="739" y="638" type="line"/>
      <point x="776" y="581"/>
      <point x="823" y="544"/>
      <point x="886" y="544" type="curve" smooth="yes"/>
      <point x="987" y="544"/>
      <point x="1062" y="613"/>
      <point x="1062" y="717" type="curve" smooth="yes"/>
      <point x="1062" y="805"/>
      <point x="1009" y="881"/>
      <point x="912" y="929" type="curve" smooth="yes"/>
      <point x="838" y="967"/>
      <point x="744" y="991"/>
      <point x="650" y="991" type="curve" smooth="yes"/>
      <point x="332" y="991"/>
      <point x="99" y="768"/>
      <point x="99" y="465" type="curve" smooth="yes"/>
      <point x="99" y="168"/>
      <point x="309" y="-29"/>
    </contour>
  </outline>
</glyph>
<glyph name="sterling" format="2">
  <advance width="1176"/>
  <unicode hex="00A3"/>
  <outline>
    <contour>
      <point x="240" y="-36" type="curve" smooth="yes"/>
      <point x="350" y="-36"/>
      <point x="465" y="46"/>
      <point x="552" y="197" type="curve" smooth="yes"/>
      <point x="637" y="344"/>
      <point x="648" y="441"/>
      <point x="648" y="552" type="curve" smooth="yes"/>
      <point x="648" y="724"/>
      <point x="525" y="962"/>
      <point x="525" y="1152" type="curve" smooth="yes"/>
      <point x="525" y="1271"/>
      <point x="601" y="1353"/>
      <point x="731" y="1353" type="curve" smooth="yes"/>
      <point x="817" y="1353"/>
      <point x="867" y="1324"/>
      <point x="867" y="1286" type="curve" smooth="yes"/>
      <point x="867" y="1268"/>
      <point x="861" y="1251"/>
      <point x="835" y="1228" type="curve" smooth="yes"/>
      <point x="793" y="1191"/>
      <point x="773" y="1157"/>
      <point x="773" y="1110" type="curve" smooth="yes"/>
      <point x="773" y="1018"/>
      <point x="823" y="973"/>
      <point x="918" y="973" type="curve" smooth="yes"/>
      <point x="1020" y="973"/>
      <point x="1072" y="1049"/>
      <point x="1072" y="1155" type="curve" smooth="yes"/>
      <point x="1072" y="1328"/>
      <point x="934" y="1443"/>
      <point x="707" y="1443" type="curve" smooth="yes"/>
      <point x="430" y="1443"/>
      <point x="259" y="1243"/>
      <point x="259" y="1017" type="curve" smooth="yes"/>
      <point x="259" y="664"/>
      <point x="453" y="604"/>
      <point x="453" y="370" type="curve" smooth="yes"/>
      <point x="453" y="247"/>
      <point x="388" y="45"/>
      <point x="215" y="45" type="curve" smooth="yes"/>
      <point x="147" y="45"/>
      <point x="72" y="96"/>
      <point x="72" y="164" type="curve" smooth="yes"/>
      <point x="72" y="237"/>
      <point x="143" y="272"/>
      <point x="215" y="272" type="curve" smooth="yes"/>
      <point x="275" y="272"/>
      <point x="356" y="240"/>
      <point x="430" y="171" type="curve" smooth="yes"/>
      <point x="549" y="60"/>
      <point x="707" y="-26"/>
      <point x="834" y="-26" type="curve" smooth="yes"/>
      <point x="991" y="-26"/>
      <point x="1096" y="41"/>
      <point x="1145" y="305" type="curve"/>
      <point x="1060" y="354" type="line"/>
      <point x="1020" y="237"/>
      <point x="972" y="227"/>
      <point x="903" y="227" type="curve" smooth="yes"/>
      <point x="781" y="227"/>
      <point x="632" y="305"/>
      <point x="540" y="355" type="curve" smooth="yes"/>
      <point x="468" y="394"/>
      <point x="331" y="410"/>
      <point x="248" y="410" type="curve" smooth="yes"/>
      <point x="78" y="410"/>
      <point x="-18" y="322"/>
      <point x="-18" y="182" type="curve" smooth="yes"/>
      <point x="-18" y="21"/>
      <point x="123" y="-36"/>
    </contour>
    <contour>
      <point x="70" y="641" type="line"/>
      <point x="940" y="641" type="line"/>
      <point x="940" y="747" type="line"/>
      <point x="70" y="747" type="line"/>
    </contour>
  </outline>
</glyph>
<glyph name="currency" format="2">
  <advance width="1166"/>
  <unicode hex="00A4"/>
  <note>
currency
</note>
  <outline>
    <contour>
      <point x="583" y="207" type="curve" smooth="yes"/>
      <point x="678" y="207"/>
      <point x="760" y="229"/>
      <point x="851" y="285" type="curve"/>
      <point x="958" y="178" type="line"/>
      <point x="1117" y="335" type="line"/>
      <point x="1010" y="442" type="line"/>
      <point x="1064" y="537"/>
      <point x="1087" y="613"/>
      <point x="1087" y="711" type="curve" smooth="yes"/>
      <point x="1087" y="808"/>
      <point x="1060" y="900"/>
      <point x="1010" y="983" type="curve"/>
      <point x="1117" y="1088" type="line"/>
      <point x="958" y="1247" type="line"/>
      <point x="851" y="1140" type="line"/>
      <point x="758" y="1194"/>
      <point x="680" y="1217"/>
      <point x="585" y="1217" type="curve" smooth="yes"/>
      <point x="485" y="1217"/>
      <point x="392" y="1190"/>
      <point x="312" y="1140" type="curve"/>
      <point x="205" y="1247" type="line"/>
      <point x="48" y="1090" type="line"/>
      <point x="155" y="981" type="line"/>
      <point x="105" y="907"/>
      <point x="77" y="806"/>
      <point x="77" y="711" type="curve" smooth="yes"/>
      <point x="77" y="616"/>
      <point x="103" y="524"/>
      <point x="155" y="442" type="curve"/>
      <point x="50" y="335" type="line"/>
      <point x="205" y="180" type="line"/>
      <point x="312" y="285" type="line"/>
      <point x="400" y="231"/>
      <point x="485" y="207"/>
    </contour>
    <contour>
      <point x="579" y="453" type="curve" smooth="yes"/>
      <point x="438" y="453"/>
      <point x="321" y="570"/>
      <point x="321" y="713" type="curve" smooth="yes"/>
      <point x="321" y="855"/>
      <point x="436" y="971"/>
      <point x="583" y="971" type="curve" smooth="yes"/>
      <point x="727" y="971"/>
      <point x="843" y="855"/>
      <point x="843" y="713" type="curve" smooth="yes"/>
      <point x="843" y="566"/>
      <point x="727" y="453"/>
    </contour>
  </outline>
</glyph>
<glyph name="yen" format="2">
  <advance width="1176"/>
  <unicode hex="00A5"/>
  <guideline x="888" y="957" angle="66.7858"/>
  <guideline x="595" y="969" angle="294.3873"/>
  <outline>
    <contour>
      <point x="271" y="0" type="line"/>
      <point x="902" y="0" type="line"/>
      <point x="902" y="93" type="line"/>
      <point x="793" y="93"/>
      <point x="767" y="96"/>
      <point x="755" y="119" type="curve" smooth="yes"/>
      <point x="744" y="140"/>
      <point x="742" y="150"/>
      <point x="742" y="277" type="curve" smooth="yes"/>
      <point x="742" y="681" type="line"/>
      <point x="983" y="1196" type="line" smooth="yes"/>
      <point x="1042" y="1321"/>
      <point x="1092" y="1378"/>
      <point x="1169" y="1386" type="curve"/>
      <point x="1169" y="1479" type="line"/>
      <point x="756" y="1479" type="line"/>
      <point x="756" y="1386" type="line"/>
      <point x="796" y="1386" type="line" smooth="yes"/>
      <point x="848" y="1386"/>
      <point x="882" y="1347"/>
      <point x="882" y="1288" type="curve" smooth="yes"/>
      <point x="882" y="1263"/>
      <point x="875" y="1222"/>
      <point x="862" y="1194" type="curve" smooth="yes"/>
      <point x="570" y="554" type="line"/>
      <point x="706" y="725" type="line"/>
      <point x="455" y="1278" type="line" smooth="yes"/>
      <point x="433" y="1326"/>
      <point x="433" y="1333"/>
      <point x="433" y="1345" type="curve" smooth="yes"/>
      <point x="433" y="1370"/>
      <point x="453" y="1386"/>
      <point x="486" y="1386" type="curve" smooth="yes"/>
      <point x="498" y="1386" type="line"/>
      <point x="498" y="1479" type="line"/>
      <point x="6" y="1479" type="line"/>
      <point x="6" y="1386" type="line"/>
      <point x="68" y="1386"/>
      <point x="89" y="1373"/>
      <point x="117" y="1312" type="curve" smooth="yes"/>
      <point x="428" y="626" type="line"/>
      <point x="428" y="277" type="line" smooth="yes"/>
      <point x="428" y="152"/>
      <point x="428" y="142"/>
      <point x="418" y="123" type="curve" smooth="yes"/>
      <point x="406" y="101"/>
      <point x="377" y="93"/>
      <point x="271" y="93" type="curve"/>
    </contour>
    <contour>
      <point x="995" y="718" type="line"/>
      <point x="174" y="718" type="line"/>
      <point x="174" y="612" type="line"/>
      <point x="995" y="612" type="line"/>
    </contour>
    <contour>
      <point x="995" y="487" type="line"/>
      <point x="174" y="487" type="line"/>
      <point x="174" y="381" type="line"/>
      <point x="995" y="381" type="line"/>
    </contour>
  </outline>
</glyph>
<glyph name="brokenbar" format="2">
  <advance width="1231"/>
  <unicode hex="00A6"/>
  <note>
brokenbar
</note>
  <outline>
    <contour>
      <point x="710" y="724" type="line"/>
      <point x="710" y="1457" type="line"/>
      <point x="519" y="1457" type="line"/>
      <point x="519" y="724" type="line"/>
    </contour>
    <contour>
      <point x="710" y="-397" type="line"/>
      <point x="710" y="336" type="line"/>
      <point x="519" y="336" type="line"/>
      <point x="519" y="-397" type="line"/>
    </contour>
  </outline>
</glyph>
<glyph name="section" format="2">
  <advance width="1016"/>
  <unicode hex="00A7"/>
  <outline>
    <contour>
      <point x="490" y="-300" type="curve" smooth="yes"/>
      <point x="682" y="-300"/>
      <point x="828" y="-181"/>
      <point x="828" y="3" type="curve" smooth="yes"/>
      <point x="828" y="134"/>
      <point x="769" y="205"/>
      <point x="627" y="332" type="curve"/>
      <point x="613" y="297" type="line"/>
      <point x="634" y="297"/>
      <point x="656" y="297"/>
      <point x="676" y="297" type="curve" smooth="yes"/>
      <point x="794" y="297"/>
      <point x="890" y="421"/>
      <point x="890" y="571" type="curve" smooth="yes"/>
      <point x="890" y="643"/>
      <point x="876" y="696"/>
      <point x="841" y="754" type="curve" smooth="yes"/>
      <point x="801" y="819"/>
      <point x="749" y="885"/>
      <point x="695" y="931" type="curve" smooth="yes"/>
      <point x="481" y="1121" type="line" smooth="yes"/>
      <point x="403" y="1190"/>
      <point x="368" y="1242"/>
      <point x="368" y="1294" type="curve" smooth="yes"/>
      <point x="368" y="1367"/>
      <point x="434" y="1425"/>
      <point x="514" y="1425" type="curve" smooth="yes"/>
      <point x="564" y="1425"/>
      <point x="607" y="1400"/>
      <point x="607" y="1373" type="curve" smooth="yes"/>
      <point x="607" y="1363"/>
      <point x="604" y="1356"/>
      <point x="593" y="1344" type="curve" smooth="yes"/>
      <point x="564" y="1313"/>
      <point x="544" y="1287"/>
      <point x="544" y="1255" type="curve" smooth="yes"/>
      <point x="544" y="1186"/>
      <point x="597" y="1137"/>
      <point x="668" y="1137" type="curve" smooth="yes"/>
      <point x="741" y="1137"/>
      <point x="794" y="1192"/>
      <point x="794" y="1270" type="curve" smooth="yes"/>
      <point x="794" y="1405"/>
      <point x="678" y="1495"/>
      <point x="518" y="1495" type="curve" smooth="yes"/>
      <point x="335" y="1495"/>
      <point x="195" y="1371"/>
      <point x="195" y="1180" type="curve" smooth="yes"/>
      <point x="195" y="1055"/>
      <point x="247" y="1005"/>
      <point x="400" y="860" type="curve"/>
      <point x="397" y="898" type="line"/>
      <point x="375" y="898"/>
      <point x="358" y="898"/>
      <point x="338" y="898" type="curve" smooth="yes"/>
      <point x="224" y="898"/>
      <point x="128" y="770"/>
      <point x="128" y="619" type="curve" smooth="yes"/>
      <point x="128" y="516"/>
      <point x="171" y="418"/>
      <point x="252" y="343" type="curve" smooth="yes"/>
      <point x="523" y="93" type="line" smooth="yes"/>
      <point x="609" y="13"/>
      <point x="646" y="-29"/>
      <point x="646" y="-94" type="curve" smooth="yes"/>
      <point x="646" y="-175"/>
      <point x="581" y="-230"/>
      <point x="483" y="-230" type="curve" smooth="yes"/>
      <point x="423" y="-230"/>
      <point x="378" y="-203"/>
      <point x="378" y="-168" type="curve" smooth="yes"/>
      <point x="378" y="-157"/>
      <point x="384" y="-147"/>
      <point x="405" y="-125" type="curve" smooth="yes"/>
      <point x="429" y="-99"/>
      <point x="446" y="-81"/>
      <point x="446" y="-52" type="curve" smooth="yes"/>
      <point x="446" y="19"/>
      <point x="394" y="72"/>
      <point x="327" y="72" type="curve" smooth="yes"/>
      <point x="248" y="72"/>
      <point x="191" y="7"/>
      <point x="191" y="-81" type="curve" smooth="yes"/>
      <point x="191" y="-205"/>
      <point x="325" y="-300"/>
    </contour>
    <contour>
      <point x="455" y="512" type="curve" smooth="yes"/>
      <point x="317" y="643"/>
      <point x="295" y="665"/>
      <point x="295" y="713" type="curve" smooth="yes"/>
      <point x="295" y="766"/>
      <point x="332" y="804"/>
      <point x="384" y="804" type="curve" smooth="yes"/>
      <point x="430" y="804"/>
      <point x="467" y="778"/>
      <point x="561" y="686" type="curve" smooth="yes"/>
      <point x="698" y="554"/>
      <point x="722" y="531"/>
      <point x="722" y="485" type="curve" smooth="yes"/>
      <point x="722" y="431"/>
      <point x="684" y="393"/>
      <point x="633" y="393" type="curve" smooth="yes"/>
      <point x="586" y="393"/>
      <point x="550" y="422"/>
    </contour>
  </outline>
</glyph>
<glyph name="copyright" format="2">
  <advance width="1517"/>
  <unicode hex="00A9"/>
  <note>
copyright
</note>
  <outline>
    <contour>
      <point x="1091" y="800" type="line"/>
      <point x="1078" y="1126" type="line"/>
      <point x="1022" y="1126" type="line"/>
      <point x="965" y="1074" type="line"/>
      <point x="898" y="1115"/>
      <point x="845" y="1130"/>
      <point x="768" y="1130" type="curve" smooth="yes"/>
      <point x="524" y="1130"/>
      <point x="351" y="953"/>
      <point x="351" y="705" type="curve" smooth="yes"/>
      <point x="351" y="463"/>
      <point x="514" y="301"/>
      <point x="756" y="301" type="curve" smooth="yes"/>
      <point x="953" y="301"/>
      <point x="1066" y="396"/>
      <point x="1107" y="601" type="curve"/>
      <point x="1026" y="622" type="line"/>
      <point x="996" y="467"/>
      <point x="914" y="386"/>
      <point x="792" y="386" type="curve" smooth="yes"/>
      <point x="650" y="386"/>
      <point x="585" y="494"/>
      <point x="585" y="723" type="curve" smooth="yes"/>
      <point x="585" y="942"/>
      <point x="650" y="1054"/>
      <point x="780" y="1054" type="curve" smooth="yes"/>
      <point x="896" y="1054"/>
      <point x="971" y="973"/>
      <point x="1018" y="792" type="curve"/>
    </contour>
    <contour>
      <point x="758" y="1465" type="curve" smooth="yes"/>
      <point x="345" y="1465"/>
      <point x="10" y="1130"/>
      <point x="10" y="717" type="curve" smooth="yes"/>
      <point x="10" y="308"/>
      <point x="345" y="-31"/>
      <point x="750" y="-31" type="curve" smooth="yes"/>
      <point x="1172" y="-31"/>
      <point x="1506" y="301"/>
      <point x="1506" y="719" type="curve" smooth="yes"/>
      <point x="1506" y="1130"/>
      <point x="1170" y="1465"/>
    </contour>
    <contour>
      <point x="758" y="1359" type="curve" smooth="yes"/>
      <point x="1099" y="1359"/>
      <point x="1378" y="1072"/>
      <point x="1378" y="719" type="curve" smooth="yes"/>
      <point x="1378" y="359"/>
      <point x="1101" y="75"/>
      <point x="750" y="75" type="curve" smooth="yes"/>
      <point x="417" y="75"/>
      <point x="138" y="368"/>
      <point x="138" y="717" type="curve" smooth="yes"/>
      <point x="138" y="1070"/>
      <point x="417" y="1359"/>
    </contour>
  </outline>
</glyph>
<glyph name="logicalnot" format="2">
  <advance width="1231"/>
  <unicode hex="00AC"/>
  <note>
logicalnot
</note>
  <outline>
    <contour>
      <point x="1128" y="630" type="line"/>
      <point x="103" y="630" type="line"/>
      <point x="103" y="435" type="line"/>
      <point x="933" y="435" type="line"/>
      <point x="933" y="0" type="line"/>
      <point x="1128" y="0" type="line"/>
    </contour>
  </outline>
</glyph>
<glyph name="registered" format="2">
  <advance width="1530"/>
  <unicode hex="00AE"/>
  <note>
registered
</note>
  <outline>
    <contour>
      <point x="350" y="322" type="line"/>
      <point x="803" y="322" type="line"/>
      <point x="803" y="397" type="line"/>
      <point x="766" y="397" type="line" smooth="yes"/>
      <point x="713" y="397"/>
      <point x="690" y="399"/>
      <point x="682" y="410" type="curve" smooth="yes"/>
      <point x="676" y="418"/>
      <point x="676" y="420"/>
      <point x="676" y="485" type="curve" smooth="yes"/>
      <point x="676" y="696" type="line"/>
      <point x="729" y="696" type="line" smooth="yes"/>
      <point x="825" y="696"/>
      <point x="840" y="672"/>
      <point x="848" y="543" type="curve" smooth="yes"/>
      <point x="854" y="461"/>
      <point x="858" y="440"/>
      <point x="868" y="412" type="curve" smooth="yes"/>
      <point x="897" y="340"/>
      <point x="954" y="305"/>
      <point x="1042" y="305" type="curve" smooth="yes"/>
      <point x="1161" y="305"/>
      <point x="1235" y="375"/>
      <point x="1235" y="489" type="curve" smooth="yes"/>
      <point x="1235" y="514" type="line"/>
      <point x="1159" y="514" type="line"/>
      <point x="1159" y="444"/>
      <point x="1147" y="412"/>
      <point x="1118" y="412" type="curve" smooth="yes"/>
      <point x="1096" y="412"/>
      <point x="1088" y="422"/>
      <point x="1081" y="471" type="curve" smooth="yes"/>
      <point x="1071" y="543" type="line" smooth="yes"/>
      <point x="1058" y="634"/>
      <point x="1014" y="688"/>
      <point x="940" y="717" type="curve"/>
      <point x="1073" y="748"/>
      <point x="1135" y="811"/>
      <point x="1135" y="915" type="curve" smooth="yes"/>
      <point x="1135" y="1079"/>
      <point x="991" y="1122"/>
      <point x="825" y="1122" type="curve" smooth="yes"/>
      <point x="350" y="1122" type="line"/>
      <point x="350" y="1047" type="line"/>
      <point x="375" y="1047" type="line" smooth="yes"/>
      <point x="432" y="1047"/>
      <point x="451" y="1044"/>
      <point x="459" y="1034" type="curve" smooth="yes"/>
      <point x="465" y="1026"/>
      <point x="465" y="1024"/>
      <point x="465" y="956" type="curve" smooth="yes"/>
      <point x="465" y="485" type="line" smooth="yes"/>
      <point x="465" y="420"/>
      <point x="463" y="414"/>
      <point x="459" y="410" type="curve" smooth="yes"/>
      <point x="451" y="399"/>
      <point x="430" y="397"/>
      <point x="375" y="397" type="curve" smooth="yes"/>
      <point x="350" y="397" type="line"/>
    </contour>
    <contour>
      <point x="727" y="772" type="curve" smooth="yes"/>
      <point x="676" y="772" type="line"/>
      <point x="676" y="985" type="line" smooth="yes"/>
      <point x="674" y="1042"/>
      <point x="680" y="1047"/>
      <point x="745" y="1047" type="curve" smooth="yes"/>
      <point x="772" y="1047" type="line" smooth="yes"/>
      <point x="870" y="1047"/>
      <point x="909" y="1008"/>
      <point x="909" y="909" type="curve" smooth="yes"/>
      <point x="909" y="805"/>
      <point x="868" y="772"/>
    </contour>
    <contour>
      <point x="764" y="1477" type="curve" smooth="yes"/>
      <point x="348" y="1477"/>
      <point x="10" y="1139"/>
      <point x="10" y="723" type="curve" smooth="yes"/>
      <point x="10" y="311"/>
      <point x="348" y="-31"/>
      <point x="756" y="-31" type="curve" smooth="yes"/>
      <point x="1182" y="-31"/>
      <point x="1518" y="303"/>
      <point x="1518" y="725" type="curve" smooth="yes"/>
      <point x="1518" y="1139"/>
      <point x="1180" y="1477"/>
    </contour>
    <contour>
      <point x="766" y="1370" type="curve" smooth="yes"/>
      <point x="1110" y="1370"/>
      <point x="1391" y="1081"/>
      <point x="1391" y="729" type="curve" smooth="yes"/>
      <point x="1391" y="371"/>
      <point x="1112" y="86"/>
      <point x="758" y="86" type="curve" smooth="yes"/>
      <point x="420" y="86"/>
      <point x="139" y="379"/>
      <point x="139" y="727" type="curve" smooth="yes"/>
      <point x="139" y="1083"/>
      <point x="420" y="1370"/>
    </contour>
  </outline>
</glyph>
<glyph name="degree" format="2">
  <advance width="819"/>
  <unicode hex="00B0"/>
  <note>
degree
</note>
  <outline>
    <contour>
      <point x="408" y="762" type="curve" smooth="yes"/>
      <point x="590" y="762"/>
      <point x="738" y="910"/>
      <point x="738" y="1092" type="curve" smooth="yes"/>
      <point x="738" y="1274"/>
      <point x="590" y="1422"/>
      <point x="408" y="1422" type="curve" smooth="yes"/>
      <point x="226" y="1422"/>
      <point x="78" y="1274"/>
      <point x="78" y="1092" type="curve" smooth="yes"/>
      <point x="78" y="910"/>
      <point x="226" y="762"/>
    </contour>
    <contour>
      <point x="408" y="914" type="curve" smooth="yes"/>
      <point x="309" y="914"/>
      <point x="230" y="993"/>
      <point x="230" y="1092" type="curve" smooth="yes"/>
      <point x="230" y="1190"/>
      <point x="309" y="1269"/>
      <point x="408" y="1269" type="curve" smooth="yes"/>
      <point x="506" y="1269"/>
      <point x="585" y="1190"/>
      <point x="585" y="1092" type="curve" smooth="yes"/>
      <point x="585" y="993"/>
      <point x="506" y="914"/>
    </contour>
  </outline>
</glyph>
<glyph name="plusminus" format="2">
  <advance width="1241"/>
  <unicode hex="00B1"/>
  <note>
plusminus
</note>
  <outline>
    <contour>
      <point x="104" y="669" type="line"/>
      <point x="524" y="669" type="line"/>
      <point x="524" y="284" type="line"/>
      <point x="719" y="284" type="line"/>
      <point x="719" y="669" type="line"/>
      <point x="1137" y="669" type="line"/>
      <point x="1137" y="864" type="line"/>
      <point x="719" y="864" type="line"/>
      <point x="719" y="1249" type="line"/>
      <point x="524" y="1249" type="line"/>
      <point x="524" y="864" type="line"/>
      <point x="104" y="864" type="line"/>
    </contour>
    <contour>
      <point x="104" y="196" type="line"/>
      <point x="104" y="0" type="line"/>
      <point x="1137" y="0" type="line"/>
      <point x="1137" y="196" type="line"/>
    </contour>
  </outline>
</glyph>
<glyph name="uni00B5" format="2">
  <advance width="1403"/>
  <unicode hex="00B5"/>
  <note>
mu
</note>
  <outline>
    <component base="u"/>
    <contour>
      <point x="295" y="-449" type="curve" smooth="yes"/>
      <point x="359" y="-449"/>
      <point x="443" y="-411"/>
      <point x="443" y="-295" type="curve" smooth="yes"/>
      <point x="443" y="-254"/>
      <point x="439" y="-242"/>
      <point x="389" y="-115" type="curve" smooth="yes"/>
      <point x="352" y="-22"/>
      <point x="352" y="67"/>
      <point x="352" y="146" type="curve" smooth="yes"/>
      <point x="352" y="415" type="line"/>
      <point x="229" y="415" type="line"/>
      <point x="229" y="41" type="line" smooth="yes"/>
      <point x="229" y="0"/>
      <point x="218" y="-51"/>
      <point x="193" y="-115" type="curve" smooth="yes"/>
      <point x="143" y="-242"/>
      <point x="139" y="-254"/>
      <point x="139" y="-301" type="curve" smooth="yes"/>
      <point x="139" y="-387"/>
      <point x="203" y="-449"/>
    </contour>
  </outline>
</glyph>
<glyph name="paragraph" format="2">
  <advance width="1241"/>
  <unicode hex="00B6"/>
  <outline>
    <contour>
      <point x="515" y="-295" type="line"/>
      <point x="666" y="-295" type="line"/>
      <point x="666" y="1366" type="line"/>
      <point x="850" y="1366" type="line"/>
      <point x="850" y="-295" type="line"/>
      <point x="1001" y="-295" type="line"/>
      <point x="1001" y="1306" type="line" smooth="yes"/>
      <point x="1001" y="1335"/>
      <point x="1005" y="1347"/>
      <point x="1013" y="1357" type="curve" smooth="yes"/>
      <point x="1026" y="1374"/>
      <point x="1061" y="1386"/>
      <point x="1175" y="1386" type="curve"/>
      <point x="1175" y="1479" type="line"/>
      <point x="544" y="1479" type="line" smooth="yes"/>
      <point x="169" y="1479"/>
      <point x="67" y="1277"/>
      <point x="67" y="1067" type="curve" smooth="yes"/>
      <point x="67" y="817"/>
      <point x="237" y="666"/>
      <point x="515" y="666" type="curve"/>
    </contour>
  </outline>
</glyph>
<glyph name="onequarter" format="2">
  <advance width="1763"/>
  <unicode hex="00BC"/>
  <note>
onequarter
</note>
  <outline>
    <component base="one" xScale="0.6" yScale="0.6" xOffset="1" yOffset="585"/>
    <component base="four" xScale="0.6" yScale="0.6" xOffset="1005" yOffset="5"/>
    <contour>
      <point x="1426" y="1479" type="line"/>
      <point x="1265" y="1479" type="line"/>
      <point x="405" y="-40" type="line"/>
      <point x="568" y="-40" type="line"/>
    </contour>
  </outline>
</glyph>
<glyph name="onehalf" format="2">
  <advance width="1763"/>
  <unicode hex="00BD"/>
  <note>
onehalf
</note>
  <outline>
    <component base="one" xScale="0.6" yScale="0.6" xOffset="-5" yOffset="585"/>
    <component base="two" xScale="0.6" yScale="0.6" xOffset="1025" yOffset="5"/>
    <contour>
      <point x="1376" y="1479" type="line"/>
      <point x="1214" y="1479" type="line"/>
      <point x="354" y="-40" type="line"/>
      <point x="516" y="-40" type="line"/>
    </contour>
  </outline>
</glyph>
<glyph name="threequarters" format="2">
  <advance width="1763"/>
  <unicode hex="00BE"/>
  <note>
threequarters
</note>
  <outline>
    <component base="three" xScale="0.6" yScale="0.6" xOffset="13" yOffset="585"/>
    <component base="four" xScale="0.6" yScale="0.6" xOffset="1005" yOffset="5"/>
    <contour>
      <point x="1436" y="1479" type="line"/>
      <point x="1272" y="1479" type="line"/>
      <point x="414" y="-40" type="line"/>
      <point x="575" y="-40" type="line"/>
    </contour>
  </outline>
</glyph>
<glyph name="AE" format="2">
  <advance width="2007"/>
  <unicode hex="00C6"/>
  <outline>
    <contour>
      <point x="431" y="1386" type="line"/>
      <point x="480" y="1386" type="line" smooth="yes"/>
      <point x="590" y="1386"/>
      <point x="650" y="1347"/>
      <point x="650" y="1279" type="curve" smooth="yes"/>
      <point x="650" y="1242"/>
      <point x="642" y="1203"/>
      <point x="605" y="1135" type="curve" smooth="yes"/>
      <point x="127" y="270" type="line" smooth="yes"/>
      <point x="66" y="159"/>
      <point x="24" y="93"/>
      <point x="-82" y="93" type="curve"/>
      <point x="-82" y="0" type="line"/>
      <point x="452" y="0" type="line"/>
      <point x="452" y="93" type="line"/>
      <point x="411" y="93" type="line" smooth="yes"/>
      <point x="301" y="93"/>
      <point x="235" y="132"/>
      <point x="235" y="210" type="curve" smooth="yes"/>
      <point x="235" y="237"/>
      <point x="242" y="258"/>
      <point x="259" y="289" type="curve" smooth="yes"/>
      <point x="836" y="1333" type="line"/>
      <point x="843" y="1346"/>
      <point x="846" y="1351"/>
      <point x="854" y="1351" type="curve" smooth="yes"/>
      <point x="863" y="1351"/>
      <point x="867" y="1345"/>
      <point x="867" y="1320" type="curve"/>
      <point x="867" y="1479" type="line"/>
      <point x="431" y="1479" type="line"/>
    </contour>
    <contour>
      <point x="654" y="0" type="line"/>
      <point x="1899" y="0" type="line"/>
      <point x="1924" y="551" type="line"/>
      <point x="1842" y="551" type="line"/>
      <point x="1785" y="254"/>
      <point x="1726" y="91"/>
      <point x="1428" y="91" type="curve" smooth="yes"/>
      <point x="1287" y="91" type="line" smooth="yes"/>
      <point x="1217" y="91"/>
      <point x="1182" y="115"/>
      <point x="1182" y="196" type="curve" smooth="yes"/>
      <point x="1182" y="1272" type="line" smooth="yes"/>
      <point x="1182" y="1355"/>
      <point x="1207" y="1388"/>
      <point x="1279" y="1388" type="curve" smooth="yes"/>
      <point x="1435" y="1388" type="line" smooth="yes"/>
      <point x="1661" y="1388"/>
      <point x="1715" y="1264"/>
      <point x="1781" y="959" type="curve"/>
      <point x="1878" y="959" type="line"/>
      <point x="1848" y="1479" type="line"/>
      <point x="867" y="1479" type="line"/>
      <point x="867" y="277" type="line" smooth="yes"/>
      <point x="867" y="150"/>
      <point x="866" y="144"/>
      <point x="851" y="123" type="curve" smooth="yes"/>
      <point x="834" y="100"/>
      <point x="793" y="93"/>
      <point x="684" y="93" type="curve" smooth="yes"/>
      <point x="654" y="93" type="line"/>
    </contour>
    <contour>
      <point x="349" y="527" type="line"/>
      <point x="937" y="527" type="line"/>
      <point x="932" y="625" type="line"/>
      <point x="387" y="625" type="line"/>
    </contour>
    <contour>
      <point x="1443" y="418" type="curve"/>
      <point x="1553" y="418" type="line"/>
      <point x="1553" y="1092" type="line"/>
      <point x="1443" y="1092" type="line"/>
      <point x="1420" y="904"/>
      <point x="1349" y="801"/>
      <point x="1157" y="801" type="curve" smooth="yes"/>
      <point x="1070" y="801" type="line"/>
      <point x="1070" y="709" type="line"/>
      <point x="1157" y="709" type="line" smooth="yes"/>
      <point x="1349" y="709"/>
      <point x="1420" y="606"/>
    </contour>
  </outline>
</glyph>
<glyph name="Eth" format="2">
  <advance width="1692"/>
  <unicode hex="00D0"/>
  <note>
Eth
</note>
  <outline>
    <component base="D"/>
    <contour>
      <point x="43" y="807" type="line"/>
      <point x="43" y="686" type="line"/>
      <point x="900" y="686" type="line"/>
      <point x="900" y="807" type="line"/>
    </contour>
  </outline>
</glyph>
<glyph name="multiply" format="2">
  <advance width="1231"/>
  <unicode hex="00D7"/>
  <note>
multiply
</note>
  <outline>
    <contour>
      <point x="1117" y="157" type="line"/>
      <point x="258" y="1016" type="line"/>
      <point x="113" y="871" type="line"/>
      <point x="972" y="12" type="line"/>
    </contour>
    <contour>
      <point x="258" y="12" type="line"/>
      <point x="1117" y="871" type="line"/>
      <point x="972" y="1016" type="line"/>
      <point x="113" y="157" type="line"/>
    </contour>
  </outline>
</glyph>
<glyph name="Oslash" format="2">
  <advance width="1706"/>
  <unicode hex="00D8"/>
  <note>
Oslash
</note>
  <outline>
    <component base="O"/>
    <contour>
      <point x="201" y="1" type="line"/>
      <point x="331" y="1" type="line"/>
      <point x="1505" y="1489" type="line"/>
      <point x="1375" y="1489" type="line"/>
    </contour>
  </outline>
</glyph>
<glyph name="Thorn" format="2">
  <advance width="1554"/>
  <unicode hex="00DE"/>
  <outline>
    <contour>
      <point x="129" y="0" type="line"/>
      <point x="916" y="0" type="line"/>
      <point x="916" y="93" type="line"/>
      <point x="851" y="93" type="line" smooth="yes"/>
      <point x="725" y="93"/>
      <point x="690" y="103"/>
      <point x="671" y="121" type="curve"/>
      <point x="657" y="134"/>
      <point x="657" y="144"/>
      <point x="657" y="234" type="curve" smooth="yes"/>
      <point x="657" y="995" type="line" smooth="yes"/>
      <point x="657" y="1055"/>
      <point x="660" y="1076"/>
      <point x="729" y="1076" type="curve" smooth="yes"/>
      <point x="829" y="1076" type="line" smooth="yes"/>
      <point x="1062" y="1076"/>
      <point x="1131" y="971"/>
      <point x="1131" y="766" type="curve" smooth="yes"/>
      <point x="1131" y="541"/>
      <point x="1040" y="455"/>
      <point x="826" y="455" type="curve" smooth="yes"/>
      <point x="605" y="455" type="line"/>
      <point x="605" y="362" type="line"/>
      <point x="960" y="362" type="line" smooth="yes"/>
      <point x="1228" y="362"/>
      <point x="1481" y="477"/>
      <point x="1481" y="764" type="curve" smooth="yes"/>
      <point x="1481" y="1101"/>
      <point x="1219" y="1171"/>
      <point x="1002" y="1171" type="curve" smooth="yes"/>
      <point x="657" y="1171" type="line"/>
      <point x="657" y="1309"/>
      <point x="657" y="1347"/>
      <point x="681" y="1369" type="curve"/>
      <point x="697" y="1383"/>
      <point x="729" y="1386"/>
      <point x="840" y="1386" type="curve" smooth="yes"/>
      <point x="886" y="1386" type="line"/>
      <point x="886" y="1479" type="line"/>
      <point x="129" y="1479" type="line"/>
      <point x="129" y="1386" type="line"/>
      <point x="174" y="1386" type="line"/>
      <point x="276" y="1386"/>
      <point x="306" y="1384"/>
      <point x="324" y="1363" type="curve" smooth="yes"/>
      <point x="342" y="1342"/>
      <point x="342" y="1329"/>
      <point x="342" y="1282" type="curve" smooth="yes"/>
      <point x="342" y="217" type="line" smooth="yes"/>
      <point x="342" y="156"/>
      <point x="339" y="134"/>
      <point x="321" y="117" type="curve" smooth="yes"/>
      <point x="300" y="98"/>
      <point x="275" y="93"/>
      <point x="172" y="93" type="curve" smooth="yes"/>
      <point x="129" y="93" type="line"/>
    </contour>
  </outline>
</glyph>
<glyph name="germandbls" format="2">
  <advance width="1278"/>
  <unicode hex="00DF"/>
  <outline>
    <contour>
      <point x="12" y="0" type="line"/>
      <point x="489" y="0" type="line"/>
      <point x="489" y="1108" type="line" smooth="yes"/>
      <point x="489" y="1337"/>
      <point x="525" y="1403"/>
      <point x="666" y="1403" type="curve" smooth="yes"/>
      <point x="735" y="1403"/>
      <point x="801" y="1333"/>
      <point x="801" y="1143" type="curve" smooth="yes"/>
      <point x="801" y="969"/>
      <point x="720" y="897"/>
      <point x="655" y="897" type="curve" smooth="yes"/>
      <point x="597" y="897" type="line"/>
      <point x="597" y="803" type="line"/>
      <point x="701" y="803" type="line" smooth="yes"/>
      <point x="735" y="803"/>
      <point x="772" y="800"/>
      <point x="817" y="751" type="curve" smooth="yes"/>
      <point x="855" y="710"/>
      <point x="898" y="629"/>
      <point x="898" y="449" type="curve" smooth="yes"/>
      <point x="898" y="189"/>
      <point x="844" y="85"/>
      <point x="791" y="85" type="curve" smooth="yes"/>
      <point x="773" y="85"/>
      <point x="762" y="89"/>
      <point x="762" y="109" type="curve" smooth="yes"/>
      <point x="762" y="138"/>
      <point x="810" y="170"/>
      <point x="810" y="222" type="curve" smooth="yes"/>
      <point x="810" y="311"/>
      <point x="747" y="358"/>
      <point x="680" y="358" type="curve" smooth="yes"/>
      <point x="596" y="358"/>
      <point x="537" y="290"/>
      <point x="537" y="188" type="curve" smooth="yes"/>
      <point x="537" y="135"/>
      <point x="559" y="91"/>
      <point x="597" y="58" type="curve" smooth="yes"/>
      <point x="649" y="14"/>
      <point x="729" y="-11"/>
      <point x="822" y="-11" type="curve" smooth="yes"/>
      <point x="1047" y="-11"/>
      <point x="1238" y="130"/>
      <point x="1238" y="440" type="curve" smooth="yes"/>
      <point x="1238" y="730"/>
      <point x="1080" y="836"/>
      <point x="853" y="874" type="curve"/>
      <point x="812" y="856" type="line"/>
      <point x="997" y="895"/>
      <point x="1132" y="954"/>
      <point x="1132" y="1176" type="curve" smooth="yes"/>
      <point x="1132" y="1452"/>
      <point x="897" y="1509"/>
      <point x="701" y="1509" type="curve" smooth="yes"/>
      <point x="353" y="1509"/>
      <point x="174" y="1362"/>
      <point x="174" y="1020" type="curve" smooth="yes"/>
      <point x="174" y="173" type="line" smooth="yes"/>
      <point x="174" y="145"/>
      <point x="170" y="132"/>
      <point x="162" y="120" type="curve" smooth="yes"/>
      <point x="147" y="102"/>
      <point x="109" y="93"/>
      <point x="12" y="93" type="curve"/>
    </contour>
  </outline>
</glyph>
